<?xml version="1.0" encoding="UTF-8" standalone="no"?>
<!-- Created with Inkscape (http://www.inkscape.org/) -->

<svg
   xmlns:dc="http://purl.org/dc/elements/1.1/"
   xmlns:cc="http://creativecommons.org/ns#"
   xmlns:rdf="http://www.w3.org/1999/02/22-rdf-syntax-ns#"
   xmlns:svg="http://www.w3.org/2000/svg"
   xmlns="http://www.w3.org/2000/svg"
   xmlns:xlink="http://www.w3.org/1999/xlink"
   xmlns:sodipodi="http://sodipodi.sourceforge.net/DTD/sodipodi-0.dtd"
   xmlns:inkscape="http://www.inkscape.org/namespaces/inkscape"
   width="825"
   height="825"
   id="svg4017"
   version="1.1"
   inkscape:version="0.48.4 r9939"
   sodipodi:docname="New document 7">
  <defs
     id="defs4019">
    <path
       inkscape:connector-curvature="0"
       transform="matrix(10,0,0,-10,260,260)"
       id="p"
       d="M 2.8117,-1.046 A 3,3 0 0 1 0.5,2.958 V 4.5119 A 10.5,10.5 0 0 1 2,25.3078 v 0.5583 A 15,15 0 0 0 14.7975,8.5433 15,15 0 0 0 23.4007,-11.201 l -0.4835,0.2792 A 10.5,10.5 0 0 1 4.1574,-1.8229 z m 3.4148,8.871 a 10,10 0 0 1 -12.453,0 9.5,9.5 0 0 0 -2.1756,2.7417 13.5,13.5 0 0 0 16.8042,0 A 10,10 0 0 0 6.2265,7.825 z" />
  </defs>
  <sodipodi:namedview
     id="base"
     pagecolor="#ffffff"
     bordercolor="#666666"
     borderopacity="1.0"
     inkscape:pageopacity="0.0"
     inkscape:pageshadow="2"
     inkscape:zoom="0.70710678"
     inkscape:cx="401.06002"
     inkscape:cy="545.77329"
     inkscape:document-units="px"
     inkscape:current-layer="layer1"
     showgrid="false"
     inkscape:window-width="1625"
     inkscape:window-height="1026"
     inkscape:window-x="55"
     inkscape:window-y="24"
     inkscape:window-maximized="1" />
  <metadata
     id="metadata4022">
    <rdf:RDF>
      <cc:Work
         rdf:about="">
        <dc:format>image/svg+xml</dc:format>
        <dc:type
           rdf:resource="http://purl.org/dc/dcmitype/StillImage" />
        <dc:title></dc:title>
      </cc:Work>
    </rdf:RDF>
  </metadata>
  <g
     inkscape:label="Layer 1"
     inkscape:groupmode="layer"
     id="layer1"
     transform="translate(0,-227.36218)">
    <g
       id="g4232"
       transform="matrix(3.1226005,0,0,3.1539778,-1443.9555,-1943.0885)">
      <path
         sodipodi:nodetypes="ccccccccccccccccccccccccccccccccc"
         inkscape:connector-curvature="0"
         id="path4"
         d="m 659.65485,827.80389 c 2.50881,3.30502 5.23966,6.46579 7.4727,9.94334 4.40811,6.86176 7.64383,14.27366 9.13229,22.32831 1.03167,5.57553 0.91075,11.22603 0.58407,16.86025 -0.24608,4.2582 -0.5466,8.51427 -0.8853,12.76611 -0.40305,5.08127 -0.84429,10.16112 -1.33502,15.23532 -0.11455,1.2233 0.15132,2.14395 1.07551,3.00591 3.42452,3.17986 6.77762,6.44245 10.20285,9.62585 0.80044,0.74811 1.02601,1.52523 0.89236,2.57528 -0.54588,4.26103 -1.03237,8.53479 -1.54644,12.80218 -0.18809,1.57401 -0.39739,1.63058 -1.71544,0.77074 -3.54119,-2.30941 -7.10925,-4.57215 -10.67448,-6.84338 -0.67246,-0.42921 -2.18284,0.31466 -2.51518,1.22118 -0.5268,1.43472 -1.14339,2.84044 -1.53655,4.30981 -0.37052,1.3831 -1.32936,2.00253 -2.53851,2.25426 -5.09682,1.06773 -10.20567,1.01187 -15.33432,0.0297 -2.2196,-0.42497 -2.57882,-2.23658 -3.23784,-3.86434 -0.37194,-0.915 -0.67599,-1.85545 -1.02742,-2.77822 -0.42498,-1.11794 -1.9,-1.54503 -2.89773,-0.90934 -2.63751,1.68008 -5.29764,3.3234 -7.94222,4.98793 -0.80469,0.50629 -1.58534,1.0451 -2.38578,1.55846 -1.02743,0.65973 -1.27491,0.54801 -1.45028,-0.74034 -0.36062,-2.66579 -0.68518,-5.33512 -1.02884,-8.00233 -0.19516,-1.52169 -0.35779,-3.04905 -0.60033,-4.56438 -0.22769,-1.41987 0.32951,-2.33486 1.39017,-3.28522 2.5569,-2.29385 4.79136,-4.96106 7.45361,-7.10854 2.62761,-2.11991 3.29936,-4.47599 2.88712,-7.77464 -0.86903,-6.96147 -1.42128,-13.96677 -1.90565,-20.96501 -0.48154,-6.97702 -1.0543,-13.97172 0.19162,-20.93248 0.91571,-5.10178 2.31437,-10.04162 4.7058,-14.65903 1.33643,-2.57811 2.45508,-5.30755 4.08566,-7.68625 2.3971,-3.49877 5.1237,-6.7755 7.7902,-10.08405 1.09955,-1.36543 1.3633,-1.28694 2.69337,-0.0771" />
      <path
         d="m 617.54806,857.1186 c 1.88161,2.47877 3.92975,4.84934 5.60453,7.45751 3.30608,5.14632 5.73287,10.70524 6.84921,16.74623 0.77376,4.18165 0.68307,8.41952 0.43806,12.64519 -0.18456,3.19365 -0.40995,6.3857 -0.66398,9.57458 -0.30228,3.81095 -0.63321,7.62084 -1.00126,11.42649 -1.62192,11.42425 -1.69025,11.44017 -3.21062,17.36832 -0.39509,1.07604 -0.85754,2.13033 -1.1524,3.23236 -0.2779,1.03732 -0.99702,1.50189 -1.90389,1.69069 -3.82262,0.8008 -7.65425,0.7589 -11.50074,0.0223 -1.6647,-0.31873 -1.93411,-1.67743 -2.42838,-2.89825 -0.27895,-0.68625 -0.507,-1.39159 -0.77057,-2.08367 -1.96985,-8.50651 -2.00152,-8.49377 -3.4307,-19.3788 -0.65178,-5.2211 -1.06597,-10.47508 -1.42924,-15.72375 -0.36116,-5.23277 -0.79073,-10.4788 0.14372,-15.69936 1.41114,-6.22254 3.28487,-11.85031 6.59359,-16.75897 1.79782,-2.62407 3.84277,-5.08162 5.84265,-7.56303 0.82466,-1.02407 1.02247,-0.96521 2.02002,-0.0578"
         id="path3958"
         inkscape:connector-curvature="0"
         sodipodi:nodetypes="cccccccccccccccccc" />
      <path
         sodipodi:nodetypes="cccccccccccccccccc"
         inkscape:connector-curvature="0"
         id="path3974"
         d="m 701.54806,857.1186 c 1.88161,2.47877 3.92975,4.84934 5.60453,7.45751 3.30608,5.14632 5.73287,10.70524 6.84921,16.74623 0.77376,4.18165 0.68307,8.41952 0.43806,12.64519 -0.18456,3.19365 -0.40995,6.3857 -0.66398,9.57458 -0.30228,3.81095 -0.63321,7.62084 -1.00126,11.42649 -1.62192,11.42425 -1.69025,11.44017 -3.21062,17.36832 -0.39509,1.07604 -0.85754,2.13033 -1.1524,3.23236 -0.2779,1.03732 -0.99702,1.50189 -1.90389,1.69069 -3.82262,0.8008 -7.65425,0.7589 -11.50074,0.0223 -1.6647,-0.31873 -1.93411,-1.67743 -2.42838,-2.89825 -0.27895,-0.68625 -0.507,-1.39159 -0.77057,-2.08367 -1.96985,-8.50651 -2.00152,-8.49377 -3.43071,-19.3788 -0.65177,-5.2211 -1.06596,-10.47508 -1.42923,-15.72375 -0.36116,-5.23277 -0.79073,-10.4788 0.14371,-15.69936 1.41115,-6.22254 3.28488,-11.85031 6.5936,-16.75897 1.79782,-2.62407 3.84277,-5.08162 5.84265,-7.56303 0.82466,-1.02407 1.02247,-0.96521 2.02002,-0.0578" />
      <rect
         transform="matrix(0.78364672,-0.62120674,0.62120674,0.78364672,0,0)"
         ry="0"
         y="1084.2179"
         x="-61.172222"
         height="4.2426405"
         width="20.85965"
         id="rect4013"
         style="fill:#000000;fill-opacity:1;stroke:none" />
      <rect
         style="fill:#000000;fill-opacity:1;stroke:none"
         id="rect4015"
         width="20.85965"
         height="4.2426405"
         x="-1094.1394"
         y="265.37158"
         ry="0"
         transform="matrix(-0.78364672,-0.62120674,-0.62120674,0.78364672,0,0)" />
    </g>
    <g
       transform="matrix(0.66373269,0,0,0.66373267,389.26039,289.75215)"
       inkscape:transform-center-y="7.1826789"
       inkscape:transform-center-x="122.90361"
       id="g3396">
      <g
         style="stroke-width:6.66666651;stroke-miterlimit:4;stroke-dasharray:none"
         transform="matrix(0.9,0,0,0.9,30,26.25)"
         id="g5143">
        <g
           transform="translate(40.377378,-40.377356)"
           id="g5174">
          <g
             transform="matrix(0.75,0,0,0.75,105.00006,67.622662)"
             id="biohazard">
            <use
               height="1"
               width="1"
               y="0"
               x="0"
               id="use3341"
               xlink:href="#p" />
            <use
               height="1"
               width="1"
               y="0"
               x="0"
               id="use3343"
               transform="matrix(-0.5,0.8660254,-0.8660254,-0.5,615.1666,164.8334)"
               xlink:href="#p" />
            <use
               height="1"
               width="1"
               y="0"
               x="0"
               id="use3345"
               transform="matrix(-0.5,-0.8660254,0.8660254,-0.5,164.8334,615.1666)"
               xlink:href="#p" />
          </g>
          <path
             transform="matrix(1.1,0,0,1.1,-29.016787,-26.42973)"
             d="m 540.22958,262.66339 c 0,133.16878 -107.95463,241.12341 -241.12341,241.12341 -133.16878,0 -241.123412,-107.95463 -241.123412,-241.12341 0,-133.16878 107.954632,-241.123412 241.123412,-241.123412 133.16878,0 241.12341,107.954632 241.12341,241.123412 z"
             sodipodi:ry="241.12341"
             sodipodi:rx="241.12341"
             sodipodi:cy="262.66339"
             sodipodi:cx="299.10617"
             id="path3165"
             style="fill:none;stroke:#000000;stroke-width:6.66666651;stroke-miterlimit:4;stroke-opacity:1;stroke-dasharray:none"
             sodipodi:type="arc" />
          <path
             inkscape:connector-curvature="0"
             id="path5109"
             d="m 78.038166,262.5 -66.503395,0"
             style="fill:none;stroke:#000000;stroke-width:8.98146248;stroke-linecap:butt;stroke-linejoin:miter;stroke-miterlimit:4;stroke-opacity:1;stroke-dasharray:none" />
          <path
             style="fill:none;stroke:#000000;stroke-width:8.98146248;stroke-linecap:butt;stroke-linejoin:miter;stroke-miterlimit:4;stroke-opacity:1;stroke-dasharray:none"
             d="m 588.46522,262.5 -66.50339,0"
             id="path5111"
             inkscape:connector-curvature="0" />
          <path
             style="fill:none;stroke:#000000;stroke-width:8.98146248;stroke-linecap:butt;stroke-linejoin:miter;stroke-miterlimit:4;stroke-opacity:1;stroke-dasharray:none"
             d="m 300,40.538166 0,-66.503395"
             id="path5125"
             inkscape:connector-curvature="0" />
          <path
             inkscape:connector-curvature="0"
             id="path5127"
             d="m 300,550.96522 0,-66.50339"
             style="fill:none;stroke:#000000;stroke-width:8.98146248;stroke-linecap:butt;stroke-linejoin:miter;stroke-miterlimit:4;stroke-opacity:1;stroke-dasharray:none" />
        </g>
      </g>
    </g>
    <g
       id="g4449"
       transform="matrix(3.9112263,0,0,4.1461824,16.938686,632.55097)">
      <path
         inkscape:connector-curvature="0"
         d="m 34.141,73.958 -0.345,-6.106 c -0.441,-7.826 -1.319,-16.478 -2.052,-17.837 -1.051,-0.12 -5.609,1.547 -9.368,3.216 l -2.072,0.92 1.022,-2.023 c 1.896,-3.753 3.834,-8.326 3.748,-9.354 -0.857,-0.854 -7.157,-2.798 -12.631,-4.142 l -7.186,-1.765 7.398,0.172 c 6.449,0.146 13.846,-0.352 14.57,-1.338 0.201,-1.043 -3.892,-6.252 -8.957,-11.333 l -4.167,-4.18 5.137,2.906 c 2.8,1.583 7.35,3.604 8.704,3.138 C 28.7,25.56 28.123,19.365 26.67,12.993 l -1.186,-5.2 2.673,4.616 c 3.079,5.316 6.69,11.094 7.837,12.296 0.44,-0.667 1.057,-2.763 1.411,-4.866 l 1.14,-6.79 0.463,6.87 c 0.402,5.957 1.431,11.448 2.248,11.991 -0.036,-0.024 0.319,1.512 0.319,1.512 -0.409,0.141 -0.839,0.082 -1.212,-0.165 -1.317,-0.873 -2.1,-5.067 -2.536,-8.644 -0.341,0.811 -0.75,1.451 -1.232,1.7 -0.364,0.188 -0.765,0.194 -1.128,0.017 -0.997,-0.485 -3.901,-5.048 -6.267,-8.976 0.811,4.71 1.187,9.744 -0.729,10.407 -1.334,0.462 -3.719,-0.283 -5.85,-1.188 3.436,3.744 6.889,8.127 6.051,9.851 -0.309,0.637 -1.931,1.946 -9.918,2.218 4.037,1.185 7.475,2.487 7.846,3.561 0.456,1.319 -1.407,5.644 -2.859,8.681 3.341,-1.395 7.55,-2.913 8.8,-2.306 0.404,0.196 1.539,0.748 2.51,13.648 1.31,-5.25 3.206,-11.388 5.032,-12.019 1.741,-0.601 4.477,1.041 6.475,2.532 -0.795,-2.334 -1.528,-5.077 -1.037,-6.15 0.189,-0.414 0.491,-0.592 0.712,-0.668 0,0 0.744,1.379 0.76,1.336 -0.284,0.735 0.866,4.582 2.118,7.713 l 1.307,3.268 -2.602,-2.37 c -2.125,-1.937 -5.882,-4.588 -7.204,-4.133 -0.963,0.449 -3.236,6.787 -5.215,16.239 l -1.256,5.984 z"
         id="path4451" />
      <path
         inkscape:connector-curvature="0"
         d="M 86.268,77.107 C 81.236,74.5 78.355,67.15 77.227,63.633 L 78.9,62.947 c 0.514,-0.211 0.76,-0.798 0.549,-1.313 L 67.743,33.084 64.747,25.778 c -0.211,-0.514 -0.798,-0.76 -1.313,-0.549 l -5.919,2.427 -5.659,2.32 c -0.514,0.211 -0.76,0.798 -0.549,1.313 l 1.037,2.53 -19.098,7.831 c -0.364,0.149 -0.537,0.565 -0.388,0.928 0.093,0.226 0.289,0.379 0.511,0.426 0.135,0.029 0.279,0.018 0.417,-0.038 l 19.098,-7.831 1.037,2.53 c 0.211,0.514 0.798,0.76 1.313,0.549 l 4.728,-1.939 c 0.514,-0.211 1.102,0.035 1.313,0.549 L 72.6,64.443 c 0.211,0.514 0.799,0.76 1.313,0.549 l 1.327,-0.544 c 1.244,3.863 4.359,11.606 10.047,14.554 6.573,3.406 7.32,13.109 7.327,13.206 l 2.129,-0.145 C 94.712,91.616 93.915,81.07 86.268,77.107 z"
         id="path4453" />
    </g>
    <g
       transform="matrix(0.67243036,0,0,0.67243031,17.327089,-72.605159)"
       id="layer1-5"
       inkscape:label="Layer 1">
      <path
         sodipodi:nodetypes="cc"
         inkscape:connector-curvature="0"
         id="path6831"
         d="M 50,1002.3622 500,552.36218"
         style="fill:none;stroke:#000000;stroke-width:40;stroke-linecap:round;stroke-linejoin:miter;stroke-miterlimit:0;stroke-opacity:1;stroke-dasharray:none" />
      <path
         sodipodi:nodetypes="cccc"
         inkscape:connector-curvature="0"
         id="path7357"
         d="m 200,502.36218 c 225,0 350,125 350,350 0,-100 -125,-225 -125,-225 0,0 -125,-125 -225,-125 z"
         style="fill:#000000;fill-opacity:1;stroke:#000000;stroke-width:1px;stroke-linecap:butt;stroke-linejoin:miter;stroke-opacity:1" />
      <path
         sodipodi:nodetypes="cc"
         inkscape:connector-curvature="0"
         id="path7367"
         d="m 403.5,648.86218 75,-75"
         style="fill:none;stroke:#000000;stroke-width:100;stroke-linecap:butt;stroke-linejoin:miter;stroke-miterlimit:4;stroke-opacity:1;stroke-dasharray:none" />
    </g>
  </g>
</svg>
