<?xml version="1.0" encoding="UTF-8" standalone="no"?>
<!-- Created by Cary Bass http://commons.wikipedia.com/wiki/User:Bastique on January 20, 2006 -->

<svg
   xmlns:dc="http://purl.org/dc/elements/1.1/"
   xmlns:cc="http://creativecommons.org/ns#"
   xmlns:rdf="http://www.w3.org/1999/02/22-rdf-syntax-ns#"
   xmlns:svg="http://www.w3.org/2000/svg"
   xmlns="http://www.w3.org/2000/svg"
   xmlns:xlink="http://www.w3.org/1999/xlink"
   xmlns:sodipodi="http://sodipodi.sourceforge.net/DTD/sodipodi-0.dtd"
   xmlns:inkscape="http://www.inkscape.org/namespaces/inkscape"
   version="1.1"
   width="600"
   height="525"
   id="svg3069"
   inkscape:version="0.48.4 r9939"
   sodipodi:docname="Biohazard.svg">
  <metadata
     id="metadata3085">
    <rdf:RDF>
      <cc:Work
         rdf:about="">
        <dc:format>image/svg+xml</dc:format>
        <dc:type
           rdf:resource="http://purl.org/dc/dcmitype/StillImage" />
        <dc:title />
      </cc:Work>
    </rdf:RDF>
  </metadata>
  <sodipodi:namedview
     pagecolor="#ffffff"
     bordercolor="#666666"
     borderopacity="1"
     objecttolerance="10"
     gridtolerance="10"
     guidetolerance="10"
     inkscape:pageopacity="0"
     inkscape:pageshadow="2"
     inkscape:window-width="1625"
     inkscape:window-height="1026"
     id="namedview3083"
     showgrid="false"
     inkscape:zoom="5.6568542"
     inkscape:cx="278.17333"
     inkscape:cy="240.25293"
     inkscape:window-x="55"
     inkscape:window-y="24"
     inkscape:window-maximized="1"
     inkscape:current-layer="g3396"
     inkscape:snap-center="true"
     inkscape:snap-page="true"
     inkscape:snap-bbox="true"
     inkscape:snap-global="false">
    <sodipodi:guide
       position="279.84746,242.34746"
       orientation="-40.305088,0"
       id="guide3157" />
    <sodipodi:guide
       position="279.84746,282.65254"
       orientation="0,40.305088"
       id="guide3159" />
    <sodipodi:guide
       position="320.15254,282.65254"
       orientation="40.305088,0"
       id="guide3161" />
    <sodipodi:guide
       position="320.15254,242.34746"
       orientation="0,-40.305088"
       id="guide3163" />
  </sodipodi:namedview>
  <defs
     id="defs3073">
    <path
       d="M 2.8117,-1.046 A 3 3 0 0 1 .5,2.958 V 4.5119 A 10.5 10.5 0 0 1 2,25.3078 V 25.8661 A 15 15 0 0 0 14.7975,8.5433 15 15 0 0 0 23.4007,-11.201 L 22.9172,-10.9218 A 10.5 10.5 0 0 1 4.1574,-1.8229 z M 6.2265,7.825 A 10 10 0 0 1 -6.2265,7.825 9.5 9.5 0 0 0 -8.4021,10.5667 13.5 13.5 0 0 0 8.4021,10.5667 10 10 0 0 0 6.2265,7.825 z"
       id="p"
       transform="scale(10,-10) translate(26,-26)" />
  </defs>
  <g
     id="g3396"
     inkscape:transform-center-x="162.02405"
     inkscape:transform-center-y="9.4689379">
    <g
       transform="matrix(0.675,0,0,0.675,124.50005,87.1104)"
       id="biohazard">
      <use
         height="1"
         width="1"
         y="0"
         x="0"
         id="use3341"
         xlink:href="#p" />
      <use
         height="1"
         width="1"
         y="0"
         x="0"
         id="use3343"
         transform="matrix(-0.5,0.8660254,-0.8660254,-0.5,615.1666,164.8334)"
         xlink:href="#p" />
      <use
         height="1"
         width="1"
         y="0"
         x="0"
         id="use3345"
         transform="matrix(-0.5,-0.8660254,0.8660254,-0.5,164.8334,615.1666)"
         xlink:href="#p" />
    </g>
  </g>
</svg>
