<?xml version="1.0" encoding="UTF-8" standalone="no"?>
<!-- Created with Inkscape (http://www.inkscape.org/) -->

<svg
   xmlns:dc="http://purl.org/dc/elements/1.1/"
   xmlns:cc="http://creativecommons.org/ns#"
   xmlns:rdf="http://www.w3.org/1999/02/22-rdf-syntax-ns#"
   xmlns:svg="http://www.w3.org/2000/svg"
   xmlns="http://www.w3.org/2000/svg"
   xmlns:sodipodi="http://sodipodi.sourceforge.net/DTD/sodipodi-0.dtd"
   xmlns:inkscape="http://www.inkscape.org/namespaces/inkscape"
   width="350"
   height="150"
   id="svg4019"
   version="1.1"
   inkscape:version="0.48.4 r9939"
   sodipodi:docname="New document 10">
  <defs
     id="defs4021" />
  <sodipodi:namedview
     id="base"
     pagecolor="#000c18"
     bordercolor="#666666"
     borderopacity="1.0"
     inkscape:pageopacity="1"
     inkscape:pageshadow="2"
     inkscape:zoom="2.8284271"
     inkscape:cx="165.78807"
     inkscape:cy="137.51041"
     inkscape:document-units="px"
     inkscape:current-layer="layer1"
     showgrid="false"
     inkscape:window-width="1625"
     inkscape:window-height="1026"
     inkscape:window-x="55"
     inkscape:window-y="24"
     inkscape:window-maximized="1" />
  <metadata
     id="metadata4024">
    <rdf:RDF>
      <cc:Work
         rdf:about="">
        <dc:format>image/svg+xml</dc:format>
        <dc:type
           rdf:resource="http://purl.org/dc/dcmitype/StillImage" />
        <dc:title></dc:title>
      </cc:Work>
    </rdf:RDF>
  </metadata>
  <g
     inkscape:label="Layer 1"
     inkscape:groupmode="layer"
     id="layer1"
     transform="translate(0,-902.36218)">
    <g
       id="g4115"
       transform="matrix(0.93922894,0,0,0.93922894,170.87403,794.31221)"
       style="fill:#b7410e;fill-opacity:1">
      <g
         id="g4121"
         transform="matrix(1.486423,0,0,1.486423,-12.380347,122.04302)"
         style="fill:#b7410e;fill-opacity:1">
        <path
           inkscape:connector-curvature="0"
           d="m 98.863,2.993 c -0.563,4.111 -0.867,8.277 -1.747,12.315 -1.735,7.969 -4.688,15.498 -9.331,22.246 -3.213,4.672 -7.294,8.582 -11.509,12.335 -3.185,2.837 -6.407,5.634 -9.653,8.401 -3.878,3.308 -7.782,6.588 -11.717,9.829 -0.946,0.784 -1.409,1.623 -1.365,2.886 0.173,4.67 0.237,9.348 0.408,14.021 0.037,1.095 -0.353,1.804 -1.19,2.452 -3.399,2.627 -6.765,5.305 -10.146,7.959 -1.246,0.98 -1.434,0.872 -1.758,-0.668 -0.871,-4.137 -1.794,-8.26 -2.709,-12.387 -0.172,-0.779 -1.766,-1.321 -2.642,-0.915 -1.387,0.642 -2.817,1.2 -4.134,1.961 -1.24,0.716 -2.356,0.476 -3.389,-0.201 C 23.622,80.378 20.049,76.726 17.117,72.405 15.848,70.535 16.875,69 17.56,67.383 c 0.384,-0.91 0.834,-1.79 1.238,-2.691 C 19.288,63.601 18.547,62.256 17.392,62 14.339,61.323 11.296,60.604 8.249,59.911 7.322,59.7 6.389,59.529 5.46,59.326 4.267,59.066 4.171,58.812 4.958,57.777 c 1.63,-2.14 3.288,-4.257 4.931,-6.386 0.938,-1.214 1.903,-2.409 2.803,-3.652 0.843,-1.165 1.884,-1.418 3.306,-1.34 3.43,0.186 6.896,-0.12 10.297,0.244 3.357,0.359 5.498,-0.832 7.539,-3.456 4.308,-5.537 8.871,-10.881 13.477,-16.172 4.593,-5.274 9.134,-10.625 14.937,-14.666 4.255,-2.96 8.737,-5.464 13.693,-7.038 2.768,-0.878 5.489,-2.017 8.324,-2.546 4.169,-0.779 8.414,-1.168 12.639,-1.622 1.743,-0.188 1.874,0.054 1.959,1.85 m -21.966,27.91 c 0.032,-4.145 -3.563,-7.81 -7.684,-7.834 -4.228,-0.025 -7.889,3.551 -7.825,7.734 0.072,4.715 3.55,7.797 7.572,7.828 4.769,0.036 7.697,-3.475 7.937,-7.728"
           id="path4101"
           style="fill:#b7410e;fill-opacity:1" />
        <path
           inkscape:connector-curvature="0"
           d="m 1.489,94.608 c 0.372,-6.044 1.562,-12.272 5.445,-17.641 1.051,-1.452 2.395,-2.7 3.688,-3.957 0.308,-0.3 0.951,-0.248 1.439,-0.358 0.108,0.62 0.485,1.356 0.276,1.84 -0.843,1.974 -2.047,3.801 -2.78,5.809 -1.319,3.618 -1.629,7.427 -1.484,11.262 0.013,0.272 0.551,0.749 0.85,0.752 3.753,0.058 7.504,-0.1 11.036,-1.551 1.976,-0.812 3.837,-1.914 5.813,-2.724 0.514,-0.208 1.273,0.193 1.919,0.317 -0.136,0.459 -0.149,1.022 -0.43,1.363 -2.78,3.382 -6.31,5.634 -10.434,7.057 -4.547,1.571 -9.2,2.217 -13.988,2.158 C 1.801,98.921 1.395,98.601 1.476,97.555 1.542,96.718 1.489,95.87 1.489,94.608"
           id="path4103"
           style="fill:#b7410e;fill-opacity:1" />
      </g>
    </g>
    <text
       xml:space="preserve"
       style="font-size:64px;font-style:normal;font-variant:normal;font-weight:bold;font-stretch:normal;text-align:start;line-height:125%;letter-spacing:0px;word-spacing:0px;writing-mode:lr-tb;text-anchor:start;fill:#0e84b7;fill-opacity:1;stroke:none;font-family:Nasa;-inkscape-font-specification:Nasa"
       x="3.2190521"
       y="971.16626"
       id="text4027"
       sodipodi:linespacing="125%"><tspan
         sodipodi:role="line"
         id="tspan4029"
         x="3.2190521"
         y="971.16626">Trajectory</tspan></text>
  </g>
</svg>
