<?xml version="1.0" encoding="UTF-8" standalone="no"?>
<!-- Created by Cary Bass http://commons.wikipedia.com/wiki/User:Bastique on January 20, 2006 -->

<svg
   xmlns:dc="http://purl.org/dc/elements/1.1/"
   xmlns:cc="http://creativecommons.org/ns#"
   xmlns:rdf="http://www.w3.org/1999/02/22-rdf-syntax-ns#"
   xmlns:svg="http://www.w3.org/2000/svg"
   xmlns="http://www.w3.org/2000/svg"
   xmlns:xlink="http://www.w3.org/1999/xlink"
   xmlns:sodipodi="http://sodipodi.sourceforge.net/DTD/sodipodi-0.dtd"
   xmlns:inkscape="http://www.inkscape.org/namespaces/inkscape"
   version="1.1"
   width="600"
   height="600"
   id="svg3069"
   inkscape:version="0.48.4 r9939"
   sodipodi:docname="intercept_icon.svg"
   inkscape:export-filename="/home/bjorn/Documents/SpaceJourney/intercept_icon.png"
   inkscape:export-xdpi="90"
   inkscape:export-ydpi="90">
  <metadata
     id="metadata3085">
    <rdf:RDF>
      <cc:Work
         rdf:about="">
        <dc:format>image/svg+xml</dc:format>
        <dc:type
           rdf:resource="http://purl.org/dc/dcmitype/StillImage" />
        <dc:title></dc:title>
      </cc:Work>
    </rdf:RDF>
  </metadata>
  <sodipodi:namedview
     pagecolor="#ffffff"
     bordercolor="#666666"
     borderopacity="1"
     objecttolerance="10"
     gridtolerance="10"
     guidetolerance="10"
     inkscape:pageopacity="0"
     inkscape:pageshadow="2"
     inkscape:window-width="1625"
     inkscape:window-height="1026"
     id="namedview3083"
     showgrid="false"
     inkscape:zoom="1"
     inkscape:cx="183.46737"
     inkscape:cy="200.84436"
     inkscape:window-x="55"
     inkscape:window-y="24"
     inkscape:window-maximized="1"
     inkscape:current-layer="g5143"
     inkscape:snap-center="true"
     inkscape:snap-page="true"
     inkscape:snap-bbox="true"
     inkscape:snap-global="true"
     inkscape:snap-bbox-edge-midpoints="true"
     fit-margin-top="0"
     fit-margin-left="0"
     fit-margin-right="0"
     fit-margin-bottom="0" />
  <defs
     id="defs3073">
    <path
       d="M 2.8117,-1.046 A 3,3 0 0 1 0.5,2.958 V 4.5119 A 10.5,10.5 0 0 1 2,25.3078 v 0.5583 A 15,15 0 0 0 14.7975,8.5433 15,15 0 0 0 23.4007,-11.201 l -0.4835,0.2792 A 10.5,10.5 0 0 1 4.1574,-1.8229 z m 3.4148,8.871 a 10,10 0 0 1 -12.453,0 9.5,9.5 0 0 0 -2.1756,2.7417 13.5,13.5 0 0 0 16.8042,0 A 10,10 0 0 0 6.2265,7.825 z"
       id="p"
       transform="matrix(10,0,0,-10,260,260)"
       inkscape:connector-curvature="0" />
  </defs>
  <g
     id="g3396"
     inkscape:transform-center-x="162.02405"
     inkscape:transform-center-y="9.4689379"
     transform="translate(-36.339636,73.839624)">
    <g
       id="g5143"
       transform="matrix(0.9,0,0,0.9,30,26.25)"
       style="stroke-width:6.66666651;stroke-miterlimit:4;stroke-dasharray:none">
      <g
         id="g5174"
         transform="translate(40.377378,-40.377356)">
        <g
           id="biohazard"
           transform="matrix(0.75,0,0,0.75,105.00006,67.622662)">
          <use
             xlink:href="#p"
             id="use3341"
             x="0"
             y="0"
             width="1"
             height="1" />
          <use
             xlink:href="#p"
             transform="matrix(-0.5,0.8660254,-0.8660254,-0.5,615.1666,164.8334)"
             id="use3343"
             x="0"
             y="0"
             width="1"
             height="1" />
          <use
             xlink:href="#p"
             transform="matrix(-0.5,-0.8660254,0.8660254,-0.5,164.8334,615.1666)"
             id="use3345"
             x="0"
             y="0"
             width="1"
             height="1" />
        </g>
        <path
           sodipodi:type="arc"
           style="fill:none;stroke:#000000;stroke-width:6.66666651;stroke-miterlimit:4;stroke-opacity:1;stroke-dasharray:none"
           id="path3165"
           sodipodi:cx="299.10617"
           sodipodi:cy="262.66339"
           sodipodi:rx="241.12341"
           sodipodi:ry="241.12341"
           d="m 540.22958,262.66339 c 0,133.16878 -107.95463,241.12341 -241.12341,241.12341 -133.16878,0 -241.123412,-107.95463 -241.123412,-241.12341 0,-133.16878 107.954632,-241.123412 241.123412,-241.123412 133.16878,0 241.12341,107.954632 241.12341,241.123412 z"
           transform="matrix(1.1,0,0,1.1,-29.016787,-26.42973)" />
        <path
           style="fill:none;stroke:#000000;stroke-width:8.98146248;stroke-linecap:butt;stroke-linejoin:miter;stroke-miterlimit:4;stroke-opacity:1;stroke-dasharray:none"
           d="m 78.038166,262.5 -66.503395,0"
           id="path5109"
           inkscape:connector-curvature="0" />
        <path
           inkscape:connector-curvature="0"
           id="path5111"
           d="m 588.46522,262.5 -66.50339,0"
           style="fill:none;stroke:#000000;stroke-width:8.98146248;stroke-linecap:butt;stroke-linejoin:miter;stroke-miterlimit:4;stroke-opacity:1;stroke-dasharray:none" />
        <path
           inkscape:connector-curvature="0"
           id="path5125"
           d="m 300,40.538166 0,-66.503395"
           style="fill:none;stroke:#000000;stroke-width:8.98146248;stroke-linecap:butt;stroke-linejoin:miter;stroke-miterlimit:4;stroke-opacity:1;stroke-dasharray:none" />
        <path
           style="fill:none;stroke:#000000;stroke-width:8.98146248;stroke-linecap:butt;stroke-linejoin:miter;stroke-miterlimit:4;stroke-opacity:1;stroke-dasharray:none"
           d="m 300,550.96522 0,-66.50339"
           id="path5127"
           inkscape:connector-curvature="0" />
      </g>
    </g>
  </g>
</svg>
