<?xml version="1.0" encoding="UTF-8" standalone="no"?>
<svg
   xmlns:dc="http://purl.org/dc/elements/1.1/"
   xmlns:cc="http://creativecommons.org/ns#"
   xmlns:rdf="http://www.w3.org/1999/02/22-rdf-syntax-ns#"
   xmlns:svg="http://www.w3.org/2000/svg"
   xmlns="http://www.w3.org/2000/svg"
   xmlns:sodipodi="http://sodipodi.sourceforge.net/DTD/sodipodi-0.dtd"
   xmlns:inkscape="http://www.inkscape.org/namespaces/inkscape"
   version="1.1"
   x="0px"
   y="0px"
   viewBox="0 0 125 125"
   enable-background="new 0 0 100 100"
   xml:space="preserve"
   id="svg2"
   inkscape:version="0.48.4 r9939"
   width="100%"
   height="100%"
   sodipodi:docname="ship-card[back].svg"><metadata
     id="metadata16"><rdf:RDF><cc:Work
         rdf:about=""><dc:format>image/svg+xml</dc:format><dc:type
           rdf:resource="http://purl.org/dc/dcmitype/StillImage" /><dc:title></dc:title></cc:Work></rdf:RDF></metadata><defs
     id="defs14" /><sodipodi:namedview
     pagecolor="#ffffff"
     bordercolor="#666666"
     borderopacity="1"
     objecttolerance="10"
     gridtolerance="10"
     guidetolerance="10"
     inkscape:pageopacity="0"
     inkscape:pageshadow="2"
     inkscape:window-width="1625"
     inkscape:window-height="1026"
     id="namedview12"
     showgrid="false"
     inkscape:snap-grids="false"
     inkscape:zoom="5.6568542"
     inkscape:cx="52.464459"
     inkscape:cy="51.473254"
     inkscape:window-x="55"
     inkscape:window-y="24"
     inkscape:window-maximized="1"
     inkscape:current-layer="svg2" /><path
     d="m 63.583429,9.0991616 c 2.508815,3.3050174 5.239661,6.4657844 7.472704,9.9433354 4.408104,6.861764 7.643825,14.273658 9.132284,22.328311 1.031669,5.575537 0.910754,11.226028 0.584071,16.860254 -0.246074,4.258197 -0.546594,8.514273 -0.885298,12.766106 -0.403051,5.08127 -0.844286,10.161125 -1.335018,15.235323 -0.114551,1.223295 0.151321,2.143948 1.07551,3.005911 3.424518,3.179859 6.777618,6.44245 10.202844,9.625844 0.800444,0.748119 1.026011,1.525234 0.892368,2.575284 -0.545886,4.26103 -1.032376,8.53479 -1.546442,12.80218 -0.188091,1.57401 -0.397394,1.63058 -1.715441,0.77074 -3.541191,-2.30941 -7.109252,-4.57215 -10.674484,-6.84338 -0.672459,-0.42921 -2.182839,0.31466 -2.515179,1.22118 -0.526795,1.43472 -1.143392,2.84044 -1.536543,4.30981 -0.370524,1.3831 -1.329361,2.00253 -2.538513,2.25426 -5.096826,1.06773 -10.205673,1.01187 -15.334318,0.0297 -2.219608,-0.42497 -2.578819,-2.23658 -3.237842,-3.86434 -0.371938,-0.915 -0.675994,-1.85545 -1.027426,-2.77822 -0.424971,-1.11794 -1.899996,-1.54503 -2.897724,-0.90934 -2.637508,1.68008 -5.297644,3.3234 -7.942223,4.98793 -0.804688,0.50629 -1.585334,1.0451 -2.385778,1.55846 -1.027427,0.65973 -1.274914,0.54801 -1.450276,-0.74034 -0.360625,-2.66579 -0.685187,-5.33512 -1.028841,-8.00233 -0.195161,-1.52169 -0.357796,-3.04905 -0.600334,-4.56438 -0.227688,-1.41987 0.329512,-2.334865 1.390172,-3.285217 2.556899,-2.293854 4.791356,-4.961061 7.453613,-7.108544 2.627609,-2.119906 3.29936,-4.475986 2.887117,-7.774639 -0.869034,-6.961466 -1.421285,-13.966773 -1.905653,-20.965009 -0.48154,-6.977023 -1.054296,-13.971723 0.191626,-20.932482 0.915703,-5.101776 2.314361,-10.041624 4.705796,-14.659031 1.336432,-2.578111 2.455075,-5.307544 4.085663,-7.686251 2.397092,-3.498764 5.123695,-6.775497 7.790195,-10.0840494 1.099551,-1.365424 1.363302,-1.286935 2.69337,-0.07708"
     id="path4"
     inkscape:connector-curvature="0"
     sodipodi:nodetypes="ccccccccccccccccccccccccccccccccc" /><path
     sodipodi:type="arc"
     style="fill:#ffffff;fill-opacity:1;stroke:none"
     id="path2995"
     sodipodi:cx="41.853382"
     sodipodi:cy="50.188251"
     sodipodi:rx="7.3969064"
     sodipodi:ry="7.3969064"
     d="m 49.250288,50.188251 a 7.3969064,7.3969064 0 1 1 -14.793812,0 7.3969064,7.3969064 0 1 1 14.793812,0 z"
     transform="matrix(0.87845464,0,0,0.87845464,33.231549,-4.1267053)" /><path
     d="m 49.250288,50.188251 a 7.3969064,7.3969064 0 1 1 -14.793812,0 7.3969064,7.3969064 0 1 1 14.793812,0 z"
     sodipodi:ry="7.3969064"
     sodipodi:rx="7.3969064"
     sodipodi:cy="50.188251"
     sodipodi:cx="41.853382"
     id="path2997"
     style="fill:#999999;fill-opacity:1;stroke:none"
     sodipodi:type="arc"
     transform="matrix(0.87845464,0,0,0.87845464,33.231549,40.860375)" /><path
     transform="matrix(0.87845464,0,0,0.87845464,18.235856,-4.1267053)"
     sodipodi:type="arc"
     style="fill:#ffffff;fill-opacity:1;stroke:none"
     id="path2999"
     sodipodi:cx="41.853382"
     sodipodi:cy="50.188251"
     sodipodi:rx="7.3969064"
     sodipodi:ry="7.3969064"
     d="m 49.250288,50.188251 a 7.3969064,7.3969064 0 1 1 -14.793812,0 7.3969064,7.3969064 0 1 1 14.793812,0 z" /><path
     transform="matrix(0.87845464,0,0,0.87845464,33.231549,10.868988)"
     sodipodi:type="arc"
     style="fill:#e6e6e6;fill-opacity:1;stroke:none"
     id="path3003"
     sodipodi:cx="41.853382"
     sodipodi:cy="50.188251"
     sodipodi:rx="7.3969064"
     sodipodi:ry="7.3969064"
     d="m 49.250288,50.188251 a 7.3969064,7.3969064 0 1 1 -14.793812,0 7.3969064,7.3969064 0 1 1 14.793812,0 z" /><path
     transform="matrix(0.87845464,0,0,0.87845464,18.235856,40.860375)"
     d="m 49.250288,50.188251 a 7.3969064,7.3969064 0 1 1 -14.793812,0 7.3969064,7.3969064 0 1 1 14.793812,0 z"
     sodipodi:ry="7.3969064"
     sodipodi:rx="7.3969064"
     sodipodi:cy="50.188251"
     sodipodi:cx="41.853382"
     id="path3005"
     style="fill:#999999;fill-opacity:1;stroke:none"
     sodipodi:type="arc" /><path
     transform="matrix(0.87845464,0,0,0.87845464,18.235856,10.868988)"
     sodipodi:type="arc"
     style="fill:#e6e6e6;fill-opacity:1;stroke:none"
     id="path3007"
     sodipodi:cx="41.853382"
     sodipodi:cy="50.188251"
     sodipodi:rx="7.3969064"
     sodipodi:ry="7.3969064"
     d="m 49.250288,50.188251 a 7.3969064,7.3969064 0 1 1 -14.793812,0 7.3969064,7.3969064 0 1 1 14.793812,0 z" /><path
     d="m 49.250288,50.188251 a 7.3969064,7.3969064 0 1 1 -14.793812,0 7.3969064,7.3969064 0 1 1 14.793812,0 z"
     sodipodi:ry="7.3969064"
     sodipodi:rx="7.3969064"
     sodipodi:cy="50.188251"
     sodipodi:cx="41.853382"
     id="path3009"
     style="fill:#cccccc;fill-opacity:1;stroke:none"
     sodipodi:type="arc"
     transform="matrix(0.87845464,0,0,0.87845464,33.231549,25.864682)" /><path
     d="m 49.250288,50.188251 a 7.3969064,7.3969064 0 1 1 -14.793812,0 7.3969064,7.3969064 0 1 1 14.793812,0 z"
     sodipodi:ry="7.3969064"
     sodipodi:rx="7.3969064"
     sodipodi:cy="50.188251"
     sodipodi:cx="41.853382"
     id="path3011"
     style="fill:#cccccc;fill-opacity:1;stroke:none"
     sodipodi:type="arc"
     transform="matrix(0.87845464,0,0,0.87845464,18.235856,25.864682)" /><path
     sodipodi:nodetypes="ccccccccccccccccccccccccccccccccc"
     inkscape:connector-curvature="0"
     id="path3930"
     d="m 96.949176,41.964182 c 2.50882,2.298672 5.239654,4.497017 7.472704,6.915689 4.4081,4.772426 7.64382,9.927472 9.13228,15.529564 1.03167,3.877842 0.91075,7.807815 0.58407,11.726476 -0.24607,2.961619 -0.54659,5.921762 -0.8853,8.878955 -0.40305,3.534074 -0.84428,7.067164 -1.33501,10.596316 -0.11456,0.85082 0.15132,1.49114 1.07551,2.09065 3.42451,2.21162 6.77761,4.480778 10.20284,6.694868 0.80044,0.52032 1.02601,1.06081 0.89237,1.79114 -0.54589,2.9636 -1.03238,5.93604 -1.54644,8.90406 -0.1881,1.09474 -0.3974,1.13408 -1.71545,0.53605 -3.54119,-1.60621 -7.10925,-3.17997 -10.67448,-4.75963 -0.67246,-0.29852 -2.18284,0.21884 -2.51518,0.84934 -0.52679,0.99786 -1.14339,1.97555 -1.53654,2.99751 -0.37053,0.96196 -1.32936,1.39278 -2.53851,1.56786 -5.096824,0.74262 -10.205674,0.70377 -15.33432,0.0207 -2.219608,-0.29557 -2.578819,-1.55556 -3.237842,-2.68768 -0.371938,-0.63639 -0.675994,-1.29049 -1.027426,-1.93228 -0.424971,-0.77754 -1.899996,-1.07459 -2.897724,-0.63246 -2.637508,1.16851 -5.297644,2.31146 -7.942223,3.46916 -0.804688,0.35213 -1.585334,0.72688 -2.385778,1.08392 -1.027427,0.45885 -1.274914,0.38115 -1.450276,-0.51491 -0.360625,-1.85409 -0.685187,-3.71063 -1.028841,-5.5657 -0.195161,-1.05835 -0.357796,-2.12065 -0.600334,-3.17459 -0.227688,-0.98754 0.329512,-1.62393 1.390172,-2.28491 2.556899,-1.59539 4.791356,-3.45046 7.453613,-4.944058 2.627609,-1.47442 3.29936,-3.11309 2.887117,-5.40734 -0.869034,-4.841769 -1.421285,-9.714031 -1.905653,-14.581374 -0.48154,-4.852589 -1.054296,-9.717473 0.191626,-14.558751 0.915703,-3.548336 2.314361,-6.98405 4.705796,-10.195503 1.336432,-1.793102 2.455075,-3.69145 4.085663,-5.345865 2.397092,-2.433425 5.123695,-4.712426 7.790196,-7.013557 1.09955,-0.949666 1.3633,-0.895076 2.69337,-0.05361" /><path
     d="m 49.250288,50.188251 a 7.3969064,7.3969064 0 1 1 -14.793812,0 7.3969064,7.3969064 0 1 1 14.793812,0 z"
     sodipodi:ry="7.3969064"
     sodipodi:rx="7.3969064"
     sodipodi:cy="50.188251"
     sodipodi:cx="41.853382"
     id="path3938"
     style="fill:#e6e6e6;fill-opacity:1;stroke:none"
     sodipodi:type="arc"
     transform="matrix(0.87845464,0,0,0.87845464,66.420518,33.808329)" /><path
     d="m 49.250288,50.188251 a 7.3969064,7.3969064 0 1 1 -14.793812,0 7.3969064,7.3969064 0 1 1 14.793812,0 z"
     sodipodi:ry="7.3969064"
     sodipodi:rx="7.3969064"
     sodipodi:cy="50.188251"
     sodipodi:cx="41.853382"
     id="path3942"
     style="fill:#e6e6e6;fill-opacity:1;stroke:none"
     sodipodi:type="arc"
     transform="matrix(0.87845464,0,0,0.87845464,51.424825,33.808329)" /><path
     transform="matrix(0.87845464,0,0,0.87845464,66.420518,48.804023)"
     sodipodi:type="arc"
     style="fill:#cccccc;fill-opacity:1;stroke:none"
     id="path3944"
     sodipodi:cx="41.853382"
     sodipodi:cy="50.188251"
     sodipodi:rx="7.3969064"
     sodipodi:ry="7.3969064"
     d="m 49.250288,50.188251 a 7.3969064,7.3969064 0 1 1 -14.793812,0 7.3969064,7.3969064 0 1 1 14.793812,0 z" /><path
     transform="matrix(0.87845464,0,0,0.87845464,51.424825,48.804023)"
     sodipodi:type="arc"
     style="fill:#cccccc;fill-opacity:1;stroke:none"
     id="path3946"
     sodipodi:cx="41.853382"
     sodipodi:cy="50.188251"
     sodipodi:rx="7.3969064"
     sodipodi:ry="7.3969064"
     d="m 49.250288,50.188251 a 7.3969064,7.3969064 0 1 1 -14.793812,0 7.3969064,7.3969064 0 1 1 14.793812,0 z" /><path
     d="m 30.009838,41.964182 c 2.50882,2.298672 5.239654,4.497017 7.472704,6.915689 4.4081,4.772426 7.64382,9.927472 9.13228,15.529564 1.03167,3.877842 0.91075,7.807815 0.58407,11.726476 -0.24607,2.961619 -0.54659,5.921762 -0.8853,8.878955 -0.40305,3.534074 -0.84428,7.067164 -1.33501,10.596316 -0.11456,0.85082 0.15132,1.49114 1.07551,2.09065 3.42451,2.21162 6.77761,4.480778 10.20284,6.694868 0.80044,0.52032 1.02601,1.06081 0.89237,1.79114 -0.54589,2.9636 -1.03238,5.93604 -1.54644,8.90406 -0.1881,1.09474 -0.3974,1.13408 -1.71545,0.53605 -3.54119,-1.60621 -7.10925,-3.17997 -10.67448,-4.75963 -0.67246,-0.29852 -2.18284,0.21884 -2.51518,0.84934 -0.52679,0.99786 -1.14339,1.97555 -1.53654,2.99751 -0.37053,0.96196 -1.32936,1.39278 -2.53851,1.56786 -5.096824,0.74262 -10.205674,0.70377 -15.33432,0.0207 -2.219608,-0.29557 -2.578819,-1.55556 -3.237842,-2.68768 -0.371938,-0.63639 -0.675994,-1.29049 -1.027426,-1.93228 -0.424971,-0.77754 -1.899996,-1.07459 -2.897724,-0.63246 -2.637508,1.16851 -5.2976458,2.31146 -7.9422248,3.46916 -0.804688,0.35213 -1.585334,0.72688 -2.385778,1.08392 -1.027427,0.45885 -1.274914,0.38115 -1.450276,-0.51491 -0.360625,-1.85409 -0.685187,-3.71063 -1.028841,-5.5657 -0.195161,-1.05835 -0.357796,-2.12065 -0.600334,-3.17459 -0.227688,-0.98754 0.329512,-1.62393 1.390172,-2.28491 2.556899,-1.59539 4.791356,-3.45046 7.4536127,-4.944058 2.6276111,-1.47442 3.2993621,-3.11309 2.8871191,-5.40734 -0.869034,-4.841769 -1.421285,-9.714031 -1.905654,-14.581374 -0.481541,-4.852589 -1.0542971,-9.717473 0.191626,-14.558751 0.915704,-3.548336 2.314362,-6.98405 4.705797,-10.195503 1.336432,-1.793102 2.455075,-3.69145 4.085663,-5.345865 2.397092,-2.433425 5.123695,-4.712426 7.790196,-7.013557 1.09955,-0.949666 1.3633,-0.895076 2.69337,-0.05361"
     id="path3948"
     inkscape:connector-curvature="0"
     sodipodi:nodetypes="ccccccccccccccccccccccccccccccccc" /><path
     transform="matrix(0.87845464,0,0,0.87845464,-0.5188218,33.808329)"
     sodipodi:type="arc"
     style="fill:#e6e6e6;fill-opacity:1;stroke:none"
     id="path3950"
     sodipodi:cx="41.853382"
     sodipodi:cy="50.188251"
     sodipodi:rx="7.3969064"
     sodipodi:ry="7.3969064"
     d="m 49.250288,50.188251 a 7.3969064,7.3969064 0 1 1 -14.793812,0 7.3969064,7.3969064 0 1 1 14.793812,0 z" /><path
     transform="matrix(0.87845464,0,0,0.87845464,-15.514513,33.808329)"
     sodipodi:type="arc"
     style="fill:#e6e6e6;fill-opacity:1;stroke:none"
     id="path3952"
     sodipodi:cx="41.853382"
     sodipodi:cy="50.188251"
     sodipodi:rx="7.3969064"
     sodipodi:ry="7.3969064"
     d="m 49.250288,50.188251 a 7.3969064,7.3969064 0 1 1 -14.793812,0 7.3969064,7.3969064 0 1 1 14.793812,0 z" /><path
     d="m 49.250288,50.188251 a 7.3969064,7.3969064 0 1 1 -14.793812,0 7.3969064,7.3969064 0 1 1 14.793812,0 z"
     sodipodi:ry="7.3969064"
     sodipodi:rx="7.3969064"
     sodipodi:cy="50.188251"
     sodipodi:cx="41.853382"
     id="path3954"
     style="fill:#cccccc;fill-opacity:1;stroke:none"
     sodipodi:type="arc"
     transform="matrix(0.87845464,0,0,0.87845464,-0.5188218,48.804023)" /><path
     d="m 49.250288,50.188251 a 7.3969064,7.3969064 0 1 1 -14.793812,0 7.3969064,7.3969064 0 1 1 14.793812,0 z"
     sodipodi:ry="7.3969064"
     sodipodi:rx="7.3969064"
     sodipodi:cy="50.188251"
     sodipodi:cx="41.853382"
     id="path3956"
     style="fill:#cccccc;fill-opacity:1;stroke:none"
     sodipodi:type="arc"
     transform="matrix(0.87845464,0,0,0.87845464,-15.514513,48.804023)" /></svg>