<?xml version="1.0" encoding="UTF-8" standalone="no"?>
<svg
   xmlns:dc="http://purl.org/dc/elements/1.1/"
   xmlns:cc="http://creativecommons.org/ns#"
   xmlns:rdf="http://www.w3.org/1999/02/22-rdf-syntax-ns#"
   xmlns:svg="http://www.w3.org/2000/svg"
   xmlns="http://www.w3.org/2000/svg"
   xmlns:sodipodi="http://sodipodi.sourceforge.net/DTD/sodipodi-0.dtd"
   xmlns:inkscape="http://www.inkscape.org/namespaces/inkscape"
   version="1.1"
   x="0px"
   y="0px"
   viewBox="0 0 125 125"
   enable-background="new 0 0 100 100"
   xml:space="preserve"
   id="svg2"
   inkscape:version="0.48.4 r9939"
   width="100%"
   height="100%"
   sodipodi:docname="ship-card[back].svg"><metadata
     id="metadata16"><rdf:RDF><cc:Work
         rdf:about=""><dc:format>image/svg+xml</dc:format><dc:type
           rdf:resource="http://purl.org/dc/dcmitype/StillImage" /><dc:title></dc:title></cc:Work></rdf:RDF></metadata><defs
     id="defs14" /><sodipodi:namedview
     pagecolor="#ffffff"
     bordercolor="#666666"
     borderopacity="1"
     objecttolerance="10"
     gridtolerance="10"
     guidetolerance="10"
     inkscape:pageopacity="0"
     inkscape:pageshadow="2"
     inkscape:window-width="1625"
     inkscape:window-height="1026"
     id="namedview12"
     showgrid="false"
     inkscape:snap-grids="false"
     inkscape:zoom="5.6568542"
     inkscape:cx="52.464459"
     inkscape:cy="63.024411"
     inkscape:window-x="55"
     inkscape:window-y="24"
     inkscape:window-maximized="1"
     inkscape:current-layer="svg2" /><g
     id="g3986"
     transform="translate(0.06194305,0)"><path
       sodipodi:nodetypes="ccccccccccccccccccccccccccccccccc"
       inkscape:connector-curvature="0"
       id="path4"
       d="m 63.583429,9.0991616 c 2.508815,3.3050174 5.239661,6.4657844 7.472704,9.9433354 4.408104,6.861764 7.643825,14.273658 9.132284,22.328311 1.031669,5.575537 0.910754,11.226028 0.584071,16.860254 -0.246074,4.258197 -0.546594,8.514273 -0.885298,12.766106 -0.403051,5.08127 -0.844286,10.161125 -1.335018,15.235323 -0.114551,1.223295 0.151321,2.143948 1.07551,3.005911 3.424518,3.179859 6.777618,6.44245 10.202844,9.625844 0.800444,0.748119 1.026011,1.525234 0.892368,2.575284 -0.545886,4.26103 -1.032376,8.53479 -1.546442,12.80218 -0.188091,1.57401 -0.397394,1.63058 -1.715441,0.77074 -3.541191,-2.30941 -7.109252,-4.57215 -10.674484,-6.84338 -0.672459,-0.42921 -2.182839,0.31466 -2.515179,1.22118 -0.526795,1.43472 -1.143392,2.84044 -1.536543,4.30981 -0.370524,1.3831 -1.329361,2.00253 -2.538513,2.25426 -5.096826,1.06773 -10.205673,1.01187 -15.334318,0.0297 -2.219608,-0.42497 -2.578819,-2.23658 -3.237842,-3.86434 -0.371938,-0.915 -0.675994,-1.85545 -1.027426,-2.77822 -0.424971,-1.11794 -1.899996,-1.54503 -2.897724,-0.90934 -2.637508,1.68008 -5.297644,3.3234 -7.942223,4.98793 -0.804688,0.50629 -1.585334,1.0451 -2.385778,1.55846 -1.027427,0.65973 -1.274914,0.54801 -1.450276,-0.74034 -0.360625,-2.66579 -0.685187,-5.33512 -1.028841,-8.00233 -0.195161,-1.52169 -0.357796,-3.04905 -0.600334,-4.56438 -0.227688,-1.41987 0.329512,-2.334865 1.390172,-3.285217 2.556899,-2.293854 4.791356,-4.961061 7.453613,-7.108544 2.627609,-2.119906 3.29936,-4.475986 2.887117,-7.774639 -0.869034,-6.961466 -1.421285,-13.966773 -1.905653,-20.965009 -0.48154,-6.977023 -1.054296,-13.971723 0.191626,-20.932482 0.915703,-5.101776 2.314361,-10.041624 4.705796,-14.659031 1.336432,-2.578111 2.455075,-5.307544 4.085663,-7.686251 2.397092,-3.498764 5.123695,-6.775497 7.790195,-10.0840494 1.099551,-1.365424 1.363302,-1.286935 2.69337,-0.07708" /><path
       transform="matrix(0.87845464,0,0,0.87845464,33.231549,-4.1267053)"
       d="m 49.250288,50.188251 c 0,4.085199 -3.311707,7.396907 -7.396906,7.396907 -4.085198,0 -7.396906,-3.311708 -7.396906,-7.396907 0,-4.085198 3.311708,-7.396906 7.396906,-7.396906 4.085199,0 7.396906,3.311708 7.396906,7.396906 z"
       sodipodi:ry="7.3969064"
       sodipodi:rx="7.3969064"
       sodipodi:cy="50.188251"
       sodipodi:cx="41.853382"
       id="path2995"
       style="fill:#ffffff;fill-opacity:1;stroke:none"
       sodipodi:type="arc" /><path
       transform="matrix(0.87845464,0,0,0.87845464,33.231549,40.860375)"
       sodipodi:type="arc"
       style="fill:#999999;fill-opacity:1;stroke:none"
       id="path2997"
       sodipodi:cx="41.853382"
       sodipodi:cy="50.188251"
       sodipodi:rx="7.3969064"
       sodipodi:ry="7.3969064"
       d="m 49.250288,50.188251 c 0,4.085199 -3.311707,7.396907 -7.396906,7.396907 -4.085198,0 -7.396906,-3.311708 -7.396906,-7.396907 0,-4.085198 3.311708,-7.396906 7.396906,-7.396906 4.085199,0 7.396906,3.311708 7.396906,7.396906 z" /><path
       d="m 49.250288,50.188251 c 0,4.085199 -3.311707,7.396907 -7.396906,7.396907 -4.085198,0 -7.396906,-3.311708 -7.396906,-7.396907 0,-4.085198 3.311708,-7.396906 7.396906,-7.396906 4.085199,0 7.396906,3.311708 7.396906,7.396906 z"
       sodipodi:ry="7.3969064"
       sodipodi:rx="7.3969064"
       sodipodi:cy="50.188251"
       sodipodi:cx="41.853382"
       id="path2999"
       style="fill:#ffffff;fill-opacity:1;stroke:none"
       sodipodi:type="arc"
       transform="matrix(0.87845464,0,0,0.87845464,18.235856,-4.1267053)" /><path
       d="m 49.250288,50.188251 c 0,4.085199 -3.311707,7.396907 -7.396906,7.396907 -4.085198,0 -7.396906,-3.311708 -7.396906,-7.396907 0,-4.085198 3.311708,-7.396906 7.396906,-7.396906 4.085199,0 7.396906,3.311708 7.396906,7.396906 z"
       sodipodi:ry="7.3969064"
       sodipodi:rx="7.3969064"
       sodipodi:cy="50.188251"
       sodipodi:cx="41.853382"
       id="path3003"
       style="fill:#e6e6e6;fill-opacity:1;stroke:none"
       sodipodi:type="arc"
       transform="matrix(0.87845464,0,0,0.87845464,33.231549,10.868988)" /><path
       sodipodi:type="arc"
       style="fill:#999999;fill-opacity:1;stroke:none"
       id="path3005"
       sodipodi:cx="41.853382"
       sodipodi:cy="50.188251"
       sodipodi:rx="7.3969064"
       sodipodi:ry="7.3969064"
       d="m 49.250288,50.188251 c 0,4.085199 -3.311707,7.396907 -7.396906,7.396907 -4.085198,0 -7.396906,-3.311708 -7.396906,-7.396907 0,-4.085198 3.311708,-7.396906 7.396906,-7.396906 4.085199,0 7.396906,3.311708 7.396906,7.396906 z"
       transform="matrix(0.87845464,0,0,0.87845464,18.235856,40.860375)" /><path
       d="m 49.250288,50.188251 c 0,4.085199 -3.311707,7.396907 -7.396906,7.396907 -4.085198,0 -7.396906,-3.311708 -7.396906,-7.396907 0,-4.085198 3.311708,-7.396906 7.396906,-7.396906 4.085199,0 7.396906,3.311708 7.396906,7.396906 z"
       sodipodi:ry="7.3969064"
       sodipodi:rx="7.3969064"
       sodipodi:cy="50.188251"
       sodipodi:cx="41.853382"
       id="path3007"
       style="fill:#e6e6e6;fill-opacity:1;stroke:none"
       sodipodi:type="arc"
       transform="matrix(0.87845464,0,0,0.87845464,18.235856,10.868988)" /><path
       transform="matrix(0.87845464,0,0,0.87845464,33.231549,25.864682)"
       sodipodi:type="arc"
       style="fill:#cccccc;fill-opacity:1;stroke:none"
       id="path3009"
       sodipodi:cx="41.853382"
       sodipodi:cy="50.188251"
       sodipodi:rx="7.3969064"
       sodipodi:ry="7.3969064"
       d="m 49.250288,50.188251 c 0,4.085199 -3.311707,7.396907 -7.396906,7.396907 -4.085198,0 -7.396906,-3.311708 -7.396906,-7.396907 0,-4.085198 3.311708,-7.396906 7.396906,-7.396906 4.085199,0 7.396906,3.311708 7.396906,7.396906 z" /><path
       transform="matrix(0.87845464,0,0,0.87845464,18.235856,25.864682)"
       sodipodi:type="arc"
       style="fill:#cccccc;fill-opacity:1;stroke:none"
       id="path3011"
       sodipodi:cx="41.853382"
       sodipodi:cy="50.188251"
       sodipodi:rx="7.3969064"
       sodipodi:ry="7.3969064"
       d="m 49.250288,50.188251 c 0,4.085199 -3.311707,7.396907 -7.396906,7.396907 -4.085198,0 -7.396906,-3.311708 -7.396906,-7.396907 0,-4.085198 3.311708,-7.396906 7.396906,-7.396906 4.085199,0 7.396906,3.311708 7.396906,7.396906 z" /></g><g
     id="g3997"
     transform="translate(4,-4)"><path
       d="m 17.538583,42.413874 c 1.881611,2.478763 3.929746,4.849338 5.604528,7.457502 3.306078,5.146323 5.732869,10.705243 6.849213,16.746233 0.773752,4.181653 0.683066,8.419521 0.438053,12.64519 -0.184555,3.193648 -0.409945,6.385705 -0.663973,9.57458 -0.302288,3.810952 -0.633215,7.620844 -1.001264,11.426491 -1.62192,11.42425 -1.690249,11.44017 -3.210617,17.36832 -0.395097,1.07604 -0.857544,2.13033 -1.152408,3.23236 -0.277893,1.03732 -0.99702,1.50189 -1.903885,1.69069 -3.822619,0.8008 -7.654254,0.7589 -11.500738,0.0223 C 9.332786,122.25881 9.063378,120.90011 8.56911,119.67929 8.290157,118.99304 8.062115,118.2877 7.798541,117.59562 5.82869,109.08911 5.7970212,109.10185 4.3678352,98.216823 3.7160602,92.995723 3.3018722,87.741743 2.9385962,82.493066 2.5774412,77.260299 2.1478742,72.014274 3.0823152,66.793705 4.4934602,60.571167 6.367192,54.943404 9.675909,50.034743 c 1.797819,-2.624073 3.842772,-5.081623 5.842647,-7.563037 0.824663,-1.024068 1.022476,-0.965201 2.020027,-0.05781"
       id="path3958"
       inkscape:connector-curvature="0"
       sodipodi:nodetypes="cccccccccccccccccc" /><g
       transform="translate(-5.0294132,1.5910077)"
       id="g3968"><path
         d="m 49.250288,50.188251 c 0,4.085199 -3.311707,7.396907 -7.396906,7.396907 -4.085198,0 -7.396906,-3.311708 -7.396906,-7.396907 0,-4.085198 3.311708,-7.396906 7.396906,-7.396906 4.085199,0 7.396906,3.311708 7.396906,7.396906 z"
         sodipodi:ry="7.3969064"
         sodipodi:rx="7.3969064"
         sodipodi:cy="50.188251"
         sodipodi:cx="41.853382"
         id="path3960"
         style="fill:#ffffff;fill-opacity:1;stroke:none"
         sodipodi:type="arc"
         transform="matrix(0.87845464,0,0,0.87845464,-15.174939,14.258071)" /><path
         sodipodi:type="arc"
         style="fill:#999999;fill-opacity:1;stroke:none"
         id="path3962"
         sodipodi:cx="41.853382"
         sodipodi:cy="50.188251"
         sodipodi:rx="7.3969064"
         sodipodi:ry="7.3969064"
         d="m 49.250288,50.188251 c 0,4.085199 -3.311707,7.396907 -7.396906,7.396907 -4.085198,0 -7.396906,-3.311708 -7.396906,-7.396907 0,-4.085198 3.311708,-7.396906 7.396906,-7.396906 4.085199,0 7.396906,3.311708 7.396906,7.396906 z"
         transform="matrix(0.87845464,0,0,0.87845464,-15.174939,59.245151)" /><path
         d="m 49.250288,50.188251 c 0,4.085199 -3.311707,7.396907 -7.396906,7.396907 -4.085198,0 -7.396906,-3.311708 -7.396906,-7.396907 0,-4.085198 3.311708,-7.396906 7.396906,-7.396906 4.085199,0 7.396906,3.311708 7.396906,7.396906 z"
         sodipodi:ry="7.3969064"
         sodipodi:rx="7.3969064"
         sodipodi:cy="50.188251"
         sodipodi:cx="41.853382"
         id="path3964"
         style="fill:#e6e6e6;fill-opacity:1;stroke:none"
         sodipodi:type="arc"
         transform="matrix(0.87845464,0,0,0.87845464,-15.174939,29.253764)" /><path
         transform="matrix(0.87845464,0,0,0.87845464,-15.174939,44.249458)"
         sodipodi:type="arc"
         style="fill:#cccccc;fill-opacity:1;stroke:none"
         id="path3966"
         sodipodi:cx="41.853382"
         sodipodi:cy="50.188251"
         sodipodi:rx="7.3969064"
         sodipodi:ry="7.3969064"
         d="m 49.250288,50.188251 c 0,4.085199 -3.311707,7.396907 -7.396906,7.396907 -4.085198,0 -7.396906,-3.311708 -7.396906,-7.396907 0,-4.085198 3.311708,-7.396906 7.396906,-7.396906 4.085199,0 7.396906,3.311708 7.396906,7.396906 z" /></g></g><g
     id="g4005"
     transform="translate(-4,-4)"><path
       sodipodi:nodetypes="cccccccccccccccccc"
       inkscape:connector-curvature="0"
       id="path3974"
       d="m 109.53858,42.413874 c 1.88161,2.478763 3.92975,4.849338 5.60453,7.457502 3.30608,5.146323 5.73287,10.705243 6.84921,16.746233 0.77376,4.181653 0.68307,8.419521 0.43806,12.64519 -0.18456,3.193648 -0.40995,6.385705 -0.66398,9.57458 -0.30228,3.810952 -0.63321,7.620844 -1.00126,11.426491 -1.62192,11.42425 -1.69025,11.44017 -3.21062,17.36832 -0.39509,1.07604 -0.85754,2.13033 -1.1524,3.23236 -0.2779,1.03732 -0.99702,1.50189 -1.90389,1.69069 -3.82262,0.8008 -7.65425,0.7589 -11.50074,0.0223 -1.6647,-0.31873 -1.93411,-1.67743 -2.42838,-2.89825 -0.27895,-0.68625 -0.507,-1.39159 -0.77057,-2.08367 -1.96985,-8.50651 -2.00152,-8.49377 -3.43071,-19.378797 -0.65177,-5.2211 -1.06596,-10.47508 -1.42923,-15.723757 -0.36116,-5.232767 -0.79073,-10.478792 0.14371,-15.699361 1.41115,-6.222538 3.28488,-11.850301 6.5936,-16.758962 1.79782,-2.624073 3.84277,-5.081623 5.84265,-7.563037 0.82466,-1.024068 1.02247,-0.965201 2.02002,-0.05781" /><g
       id="g3976"
       transform="translate(86.970587,1.5910077)"><path
         transform="matrix(0.87845464,0,0,0.87845464,-15.174939,14.258071)"
         sodipodi:type="arc"
         style="fill:#ffffff;fill-opacity:1;stroke:none"
         id="path3978"
         sodipodi:cx="41.853382"
         sodipodi:cy="50.188251"
         sodipodi:rx="7.3969064"
         sodipodi:ry="7.3969064"
         d="m 49.250288,50.188251 c 0,4.085199 -3.311707,7.396907 -7.396906,7.396907 -4.085198,0 -7.396906,-3.311708 -7.396906,-7.396907 0,-4.085198 3.311708,-7.396906 7.396906,-7.396906 4.085199,0 7.396906,3.311708 7.396906,7.396906 z" /><path
         transform="matrix(0.87845464,0,0,0.87845464,-15.174939,59.245151)"
         d="m 49.250288,50.188251 c 0,4.085199 -3.311707,7.396907 -7.396906,7.396907 -4.085198,0 -7.396906,-3.311708 -7.396906,-7.396907 0,-4.085198 3.311708,-7.396906 7.396906,-7.396906 4.085199,0 7.396906,3.311708 7.396906,7.396906 z"
         sodipodi:ry="7.3969064"
         sodipodi:rx="7.3969064"
         sodipodi:cy="50.188251"
         sodipodi:cx="41.853382"
         id="path3980"
         style="fill:#999999;fill-opacity:1;stroke:none"
         sodipodi:type="arc" /><path
         transform="matrix(0.87845464,0,0,0.87845464,-15.174939,29.253764)"
         sodipodi:type="arc"
         style="fill:#e6e6e6;fill-opacity:1;stroke:none"
         id="path3982"
         sodipodi:cx="41.853382"
         sodipodi:cy="50.188251"
         sodipodi:rx="7.3969064"
         sodipodi:ry="7.3969064"
         d="m 49.250288,50.188251 c 0,4.085199 -3.311707,7.396907 -7.396906,7.396907 -4.085198,0 -7.396906,-3.311708 -7.396906,-7.396907 0,-4.085198 3.311708,-7.396906 7.396906,-7.396906 4.085199,0 7.396906,3.311708 7.396906,7.396906 z" /><path
         d="m 49.250288,50.188251 c 0,4.085199 -3.311707,7.396907 -7.396906,7.396907 -4.085198,0 -7.396906,-3.311708 -7.396906,-7.396907 0,-4.085198 3.311708,-7.396906 7.396906,-7.396906 4.085199,0 7.396906,3.311708 7.396906,7.396906 z"
         sodipodi:ry="7.3969064"
         sodipodi:rx="7.3969064"
         sodipodi:cy="50.188251"
         sodipodi:cx="41.853382"
         id="path3984"
         style="fill:#cccccc;fill-opacity:1;stroke:none"
         sodipodi:type="arc"
         transform="matrix(0.87845464,0,0,0.87845464,-15.174939,44.249458)" /></g></g><rect
     style="fill:#000000;fill-opacity:1;stroke:none"
     id="rect4013"
     width="20.85965"
     height="4.2426405"
     x="-19.648199"
     y="72.397514"
     ry="0"
     transform="matrix(0.78364672,-0.62120674,0.62120674,0.78364672,0,0)" /><rect
     transform="matrix(-0.78364672,-0.62120674,-0.62120674,0.78364672,0,0)"
     ry="0"
     y="-5.9585829"
     x="-118.49368"
     height="4.2426405"
     width="20.85965"
     id="rect4015"
     style="fill:#000000;fill-opacity:1;stroke:none" /></svg>