<?xml version="1.0" encoding="UTF-8" standalone="no"?>
<!-- Created with Inkscape (http://www.inkscape.org/) -->

<svg
   xmlns:dc="http://purl.org/dc/elements/1.1/"
   xmlns:cc="http://creativecommons.org/ns#"
   xmlns:rdf="http://www.w3.org/1999/02/22-rdf-syntax-ns#"
   xmlns:svg="http://www.w3.org/2000/svg"
   xmlns="http://www.w3.org/2000/svg"
   xmlns:xlink="http://www.w3.org/1999/xlink"
   xmlns:sodipodi="http://sodipodi.sourceforge.net/DTD/sodipodi-0.dtd"
   xmlns:inkscape="http://www.inkscape.org/namespaces/inkscape"
   width="180"
   height="125"
   id="svg4019"
   version="1.1"
   inkscape:version="0.48.4 r9939"
   sodipodi:docname="shop-add.svg"
   inkscape:export-filename="/home/bjorn/Documents/SpaceJourney/shop-add.png"
   inkscape:export-xdpi="90"
   inkscape:export-ydpi="90">
  <defs
     id="defs4021">
    <path
       inkscape:connector-curvature="0"
       transform="matrix(10,0,0,-10,260,260)"
       id="p"
       d="M 2.8117,-1.046 A 3,3 0 0 1 0.5,2.958 V 4.5119 A 10.5,10.5 0 0 1 2,25.3078 v 0.5583 A 15,15 0 0 0 14.7975,8.5433 15,15 0 0 0 23.4007,-11.201 l -0.4835,0.2792 A 10.5,10.5 0 0 1 4.1574,-1.8229 z m 3.4148,8.871 a 10,10 0 0 1 -12.453,0 9.5,9.5 0 0 0 -2.1756,2.7417 13.5,13.5 0 0 0 16.8042,0 A 10,10 0 0 0 6.2265,7.825 z" />
    <path
       inkscape:connector-curvature="0"
       transform="matrix(10,0,0,-10,260,260)"
       id="p-5"
       d="M 2.8117,-1.046 A 3,3 0 0 1 0.5,2.958 V 4.5119 A 10.5,10.5 0 0 1 2,25.3078 v 0.5583 A 15,15 0 0 0 14.7975,8.5433 15,15 0 0 0 23.4007,-11.201 l -0.4835,0.2792 A 10.5,10.5 0 0 1 4.1574,-1.8229 z m 3.4148,8.871 a 10,10 0 0 1 -12.453,0 9.5,9.5 0 0 0 -2.1756,2.7417 13.5,13.5 0 0 0 16.8042,0 A 10,10 0 0 0 6.2265,7.825 z" />
  </defs>
  <sodipodi:namedview
     id="base"
     pagecolor="#000c18"
     bordercolor="#666666"
     borderopacity="1.0"
     inkscape:pageopacity="1"
     inkscape:pageshadow="2"
     inkscape:zoom="2"
     inkscape:cx="95.420211"
     inkscape:cy="123.65831"
     inkscape:document-units="px"
     inkscape:current-layer="layer1"
     showgrid="false"
     inkscape:window-width="1625"
     inkscape:window-height="1026"
     inkscape:window-x="55"
     inkscape:window-y="24"
     inkscape:window-maximized="1" />
  <metadata
     id="metadata4024">
    <rdf:RDF>
      <cc:Work
         rdf:about="">
        <dc:format>image/svg+xml</dc:format>
        <dc:type
           rdf:resource="http://purl.org/dc/dcmitype/StillImage" />
        <dc:title></dc:title>
      </cc:Work>
    </rdf:RDF>
  </metadata>
  <g
     inkscape:label="Layer 1"
     inkscape:groupmode="layer"
     id="layer1"
     transform="translate(0,-927.36218)">
    <g
       id="g4993"
       transform="matrix(0.45606581,0,0,0.45606581,8.8985348,603.30607)">
      <g
         id="text4027"
         style="font-size:64px;font-style:normal;font-variant:normal;font-weight:bold;font-stretch:normal;text-align:start;line-height:125%;letter-spacing:0px;word-spacing:0px;writing-mode:lr-tb;text-anchor:start;fill:#0e84b7;fill-opacity:1;stroke:none;font-family:Nasa;-inkscape-font-specification:Nasa">
        <path
           id="path4768"
           d="m 29.344052,940.91626 -8.625,0 0,30.125 -8.34375,0 0,-30.125 -8.5937499,0 0,-8.0625 25.5624999,0 0,8.0625"
           inkscape:connector-curvature="0" />
        <path
           id="path4770"
           d="m 60.281552,971.04126 -24.03125,-9.5 0,9.5 -8.3125,0 0,-12.65625 c -2e-6,-3.04165 0.749997,-5.49998 2.25,-7.375 1.749994,-2.18748 4.322908,-3.28123 7.71875,-3.28125 l 10.34375,0 c 0.95831,2e-5 1.697893,-0.32289 2.21875,-0.96875 0.520808,-0.66664 0.781225,-1.44789 0.78125,-2.34375 -2.5e-5,-0.95831 -0.250025,-1.76039 -0.75,-2.40625 -0.562524,-0.72914 -1.312523,-1.09372 -2.25,-1.09375 l -20.3125,0 0,-8.0625 21.71875,0 c 3.249973,4e-5 5.822887,1.19795 7.71875,3.59375 1.7083,2.1667 2.562466,4.82295 2.5625,7.96875 -3.4e-5,3.12502 -0.8542,5.77085 -2.5625,7.9375 -1.895863,2.41668 -4.468777,3.62501 -7.71875,3.625 l -5.25,0 15.875,6.0625 0,9"
           inkscape:connector-curvature="0" />
        <path
           id="path4772"
           d="m 101.34405,971.04126 -9.031248,0 -9.96875,-29.375 c -0.06252,-0.31247 -0.28127,-0.46872 -0.65625,-0.46875 -0.354186,3e-5 -0.614602,0.15628 -0.78125,0.46875 l -9.75,29.375 -9.15625,0 c 0.520833,-1.8125 1.635415,-5.41666 3.34375,-10.8125 1.729162,-5.39582 3.406243,-10.49998 5.03125,-15.3125 1.81249,-5.35414 2.916655,-8.3333 3.3125,-8.9375 0.749987,-1.06246 1.843736,-1.87496 3.28125,-2.4375 1.437484,-0.56246 2.999982,-0.84371 4.6875,-0.84375 1.687479,4e-5 3.23956,0.28129 4.65625,0.84375 1.437474,0.56254 2.531223,1.37504 3.28125,2.4375 0.458305,0.62503 1.583304,3.58336 3.375,8.875 1.104135,3.25002 2.749966,8.35418 4.9375,15.3125 1.333296,4.22917 2.479128,7.85417 3.437498,10.875"
           inkscape:connector-curvature="0" />
        <path
           id="path4774"
           d="m 135.21905,950.79126 c 0.0208,0.20835 0.0416,0.51044 0.0625,0.90625 0.0208,0.37502 0.0312,0.69794 0.0312,0.96875 -3e-5,2.56252 -0.2917,4.88543 -0.875,6.96875 -0.89586,3.22917 -2.45836,5.80209 -4.6875,7.71875 -2.85419,2.45833 -6.6771,3.6875 -11.46875,3.6875 l -15.03125,0 0,-8.28125 15.03125,0 c 2.74998,1e-5 4.89581,-1.27082 6.4375,-3.8125 1.35414,-2.22915 2.03123,-4.9479 2.03125,-8.15625 l 0,-17.9375 8.46875,0 0,17.9375"
           inkscape:connector-curvature="0" />
        <path
           id="path4776"
           d="m 170.9378,971.04126 -21.71875,0 c -3.25001,0 -5.82292,-1.21875 -7.71875,-3.65625 -1.70833,-2.18749 -2.5625,-4.87499 -2.5625,-8.0625 0,-2.87499 0.71875,-5.36457 2.15625,-7.46875 -1.4375,-2.10415 -2.15625,-4.57289 -2.15625,-7.40625 0,-3.12497 0.85417,-5.78122 2.5625,-7.96875 1.89583,-2.41663 4.46874,-3.62496 7.71875,-3.625 l 21.71875,0 0,8.0625 -20.3125,0 c -0.91668,3e-5 -1.64584,0.3542 -2.1875,1.0625 -0.52084,0.68753 -0.78126,1.50003 -0.78125,2.4375 -1e-5,0.91669 0.24999,1.69794 0.75,2.34375 0.52082,0.64586 1.26041,0.96877 2.21875,0.96875 l 20.3125,0 0,8.03125 0,0.21875 -21.46875,0 c -0.56251,0.25001 -1.01043,0.68751 -1.34375,1.3125 -0.31251,0.62501 -0.46876,1.31251 -0.46875,2.0625 -1e-5,0.93751 0.24999,1.75001 0.75,2.4375 0.52082,0.68751 1.26041,1.03126 2.21875,1.03125 l 20.3125,0 0,8.21875"
           inkscape:connector-curvature="0" />
        <path
           id="path4778"
           d="m 206.5628,971.04126 -18.65625,0 c -4.47918,0 -8.02084,-1.94791 -10.625,-5.84375 -2.33333,-3.49999 -3.5,-7.81249 -3.5,-12.9375 0,-5.20831 1.1875,-9.64581 3.5625,-13.3125 2.62499,-4.06246 6.14582,-6.09371 10.5625,-6.09375 l 18.65625,0 0,8.0625 -17.25,0 c -2.08335,3e-5 -3.71876,1.1042 -4.90625,3.3125 -1.06251,1.97919 -1.59376,4.42711 -1.59375,7.34375 -1e-5,3.00002 0.55207,5.56251 1.65625,7.6875 1.20832,2.33334 2.8229,3.50001 4.84375,3.5 l 17.25,0 0,8.28125"
           inkscape:connector-curvature="0" />
        <path
           id="path4780"
           d="m 234.34405,940.91626 -8.625,0 0,30.125 -8.34375,0 0,-30.125 -8.59375,0 0,-8.0625 25.5625,0 0,8.0625"
           inkscape:connector-curvature="0" />
        <path
           id="path4784"
           d="m 311.03155,971.04126 -24.03125,-9.5 0,9.5 -8.3125,0 0,-12.65625 c 0,-3.04165 0.75,-5.49998 2.25,-7.375 1.75,-2.18748 4.32291,-3.28123 7.71875,-3.28125 l 10.34375,0 c 0.95831,2e-5 1.69789,-0.32289 2.21875,-0.96875 0.52081,-0.66664 0.78123,-1.44789 0.78125,-2.34375 -2e-5,-0.95831 -0.25002,-1.76039 -0.75,-2.40625 -0.56252,-0.72914 -1.31252,-1.09372 -2.25,-1.09375 l -20.3125,0 0,-8.0625 21.71875,0 c 3.24998,4e-5 5.82289,1.19795 7.71875,3.59375 1.7083,2.1667 2.56247,4.82295 2.5625,7.96875 -3e-5,3.12502 -0.8542,5.77085 -2.5625,7.9375 -1.89586,2.41668 -4.46877,3.62501 -7.71875,3.625 l -5.25,0 15.875,6.0625 0,9"
           inkscape:connector-curvature="0" />
        <path
           id="path4786"
           d="m 351.8753,933.13501 -15.5,24 0,13.90625 -8.46875,0 0,-13.90625 -15.34375,-24 9.8125,0 9.15625,14.03125 c 0.0625,0.31252 0.28123,0.46877 0.65625,0.46875 0.37498,2e-5 0.64582,-0.15623 0.8125,-0.46875 l 8.96875,-14.03125 9.90625,0 m -23.96875,37.90625 0,0"
           inkscape:connector-curvature="0" />
      </g>
      <g
         transform="matrix(0.13749935,0,0,0.13749935,219.82688,917.1617)"
         id="biohazard"
         style="fill:#b70e2f;fill-opacity:1;stroke-width:6.66666651;stroke-miterlimit:4;stroke-dasharray:none">
        <use
           style="fill:#b70e2f;fill-opacity:1"
           height="1"
           width="1"
           y="0"
           x="0"
           id="use3341"
           xlink:href="#p-5" />
        <use
           style="fill:#b70e2f;fill-opacity:1"
           height="1"
           width="1"
           y="0"
           x="0"
           id="use3343"
           transform="matrix(-0.5,0.8660254,-0.8660254,-0.5,615.1666,164.8334)"
           xlink:href="#p-5" />
        <use
           style="fill:#b70e2f;fill-opacity:1"
           height="1"
           width="1"
           y="0"
           x="0"
           id="use3345"
           transform="matrix(-0.5,-0.8660254,0.8660254,-0.5,164.8334,615.1666)"
           xlink:href="#p-5" />
      </g>
    </g>
    <g
       id="g4983"
       transform="matrix(0.98867516,0.2649147,-0.2649147,0.98867516,60.648756,882.0336)"
       style="fill:#b7960e;fill-opacity:1">
      <g
         id="g4989"
         transform="translate(1,30)"
         style="fill:#b7960e;fill-opacity:1">
        <path
           inkscape:connector-curvature="0"
           d="m 98.863,2.993 c -0.563,4.111 -0.867,8.277 -1.747,12.315 -1.735,7.969 -4.688,15.498 -9.331,22.246 -3.213,4.672 -7.294,8.582 -11.509,12.335 -3.185,2.837 -6.407,5.634 -9.653,8.401 -3.878,3.308 -7.782,6.588 -11.717,9.829 -0.946,0.784 -1.409,1.623 -1.365,2.886 0.173,4.67 0.237,9.348 0.408,14.021 0.037,1.095 -0.353,1.804 -1.19,2.452 -3.399,2.627 -6.765,5.305 -10.146,7.959 -1.246,0.98 -1.434,0.872 -1.758,-0.668 -0.871,-4.137 -1.794,-8.26 -2.709,-12.387 -0.172,-0.779 -1.766,-1.321 -2.642,-0.915 -1.387,0.642 -2.817,1.2 -4.134,1.961 -1.24,0.716 -2.356,0.476 -3.389,-0.201 C 23.622,80.378 20.049,76.726 17.117,72.405 15.848,70.535 16.875,69 17.56,67.383 c 0.384,-0.91 0.834,-1.79 1.238,-2.691 C 19.288,63.601 18.547,62.256 17.392,62 14.339,61.323 11.296,60.604 8.249,59.911 7.322,59.7 6.389,59.529 5.46,59.326 4.267,59.066 4.171,58.812 4.958,57.777 c 1.63,-2.14 3.288,-4.257 4.931,-6.386 0.938,-1.214 1.903,-2.409 2.803,-3.652 0.843,-1.165 1.884,-1.418 3.306,-1.34 3.43,0.186 6.896,-0.12 10.297,0.244 3.357,0.359 5.498,-0.832 7.539,-3.456 4.308,-5.537 8.871,-10.881 13.477,-16.172 4.593,-5.274 9.134,-10.625 14.937,-14.666 4.255,-2.96 8.737,-5.464 13.693,-7.038 2.768,-0.878 5.489,-2.017 8.324,-2.546 4.169,-0.779 8.414,-1.168 12.639,-1.622 1.743,-0.188 1.874,0.054 1.959,1.85 m -21.966,27.91 c 0.032,-4.145 -3.563,-7.81 -7.684,-7.834 -4.228,-0.025 -7.889,3.551 -7.825,7.734 0.072,4.715 3.55,7.797 7.572,7.828 4.769,0.036 7.697,-3.475 7.937,-7.728"
           id="path4969"
           style="fill:#b7960e;fill-opacity:1" />
        <path
           inkscape:connector-curvature="0"
           d="m 1.489,94.608 c 0.372,-6.044 1.562,-12.272 5.445,-17.641 1.051,-1.452 2.395,-2.7 3.688,-3.957 0.308,-0.3 0.951,-0.248 1.439,-0.358 0.108,0.62 0.485,1.356 0.276,1.84 -0.843,1.974 -2.047,3.801 -2.78,5.809 -1.319,3.618 -1.629,7.427 -1.484,11.262 0.013,0.272 0.551,0.749 0.85,0.752 3.753,0.058 7.504,-0.1 11.036,-1.551 1.976,-0.812 3.837,-1.914 5.813,-2.724 0.514,-0.208 1.273,0.193 1.919,0.317 -0.136,0.459 -0.149,1.022 -0.43,1.363 -2.78,3.382 -6.31,5.634 -10.434,7.057 -4.547,1.571 -9.2,2.217 -13.988,2.158 C 1.801,98.921 1.395,98.601 1.476,97.555 1.542,96.718 1.489,95.87 1.489,94.608"
           id="path4971"
           style="fill:#b7960e;fill-opacity:1" />
      </g>
    </g>
  </g>
</svg>
