<?xml version="1.0" encoding="UTF-8" standalone="no"?>
<svg
   xmlns:dc="http://purl.org/dc/elements/1.1/"
   xmlns:cc="http://creativecommons.org/ns#"
   xmlns:rdf="http://www.w3.org/1999/02/22-rdf-syntax-ns#"
   xmlns:svg="http://www.w3.org/2000/svg"
   xmlns="http://www.w3.org/2000/svg"
   xmlns:xlink="http://www.w3.org/1999/xlink"
   xmlns:sodipodi="http://sodipodi.sourceforge.net/DTD/sodipodi-0.dtd"
   xmlns:inkscape="http://www.inkscape.org/namespaces/inkscape"
   version="1.1"
   x="0px"
   y="0px"
   viewBox="0 0 180 125"
   enable-background="new 0 0 100 100"
   xml:space="preserve"
   id="svg2"
   inkscape:version="0.48.4 r9939"
   width="100%"
   height="100%"
   sodipodi:docname="shop-add.svg"><metadata
     id="metadata16"><rdf:RDF><cc:Work
         rdf:about=""><dc:format>image/svg+xml</dc:format><dc:type
           rdf:resource="http://purl.org/dc/dcmitype/StillImage" /><dc:title></dc:title></cc:Work></rdf:RDF></metadata><defs
     id="defs14"><path
       inkscape:connector-curvature="0"
       transform="matrix(10,0,0,-10,260,260)"
       id="p"
       d="M 2.8117,-1.046 A 3,3 0 0 1 0.5,2.958 V 4.5119 A 10.5,10.5 0 0 1 2,25.3078 v 0.5583 A 15,15 0 0 0 14.7975,8.5433 15,15 0 0 0 23.4007,-11.201 l -0.4835,0.2792 A 10.5,10.5 0 0 1 4.1574,-1.8229 z m 3.4148,8.871 a 10,10 0 0 1 -12.453,0 9.5,9.5 0 0 0 -2.1756,2.7417 13.5,13.5 0 0 0 16.8042,0 A 10,10 0 0 0 6.2265,7.825 z" /></defs><sodipodi:namedview
     pagecolor="#ffffff"
     bordercolor="#666666"
     borderopacity="1"
     objecttolerance="10"
     gridtolerance="10"
     guidetolerance="10"
     inkscape:pageopacity="0"
     inkscape:pageshadow="2"
     inkscape:window-width="1625"
     inkscape:window-height="1026"
     id="namedview12"
     showgrid="false"
     inkscape:zoom="4"
     inkscape:cx="98.048938"
     inkscape:cy="31.991026"
     inkscape:window-x="55"
     inkscape:window-y="24"
     inkscape:window-maximized="1"
     inkscape:current-layer="svg2"
     inkscape:snap-page="true" /><rect
     style="opacity:0.98000003999999996;fill:#000912;fill-opacity:1;stroke:none;stroke-width:40;stroke-linecap:butt;stroke-linejoin:round;stroke-miterlimit:0;stroke-opacity:0.50196078000000000;stroke-dasharray:none;stroke-dashoffset:0"
     id="rect3782"
     width="180"
     height="125"
     x="0"
     y="0" /><path
     d="m 138.69851,15.478745 c -0.563,4.111 -0.867,8.277 -1.747,12.315 -1.735,7.969 -4.688,15.498 -9.331,22.246 -3.213,4.672 -7.294,8.582 -11.509,12.335 -3.185,2.837 -6.407,5.634 -9.653,8.401 -3.878,3.308 -7.781999,6.588 -11.716999,9.829 -0.946,0.784 -1.409,1.623 -1.365,2.886 0.173,4.670003 0.237,9.348003 0.408,14.021003 0.037,1.095 -0.353,1.804 -1.19,2.452 -3.399,2.627002 -6.765,5.305002 -10.146,7.959002 -1.246,0.98 -1.434,0.872 -1.758,-0.668 -0.871,-4.137 -1.794,-8.260002 -2.709,-12.387002 -0.172,-0.779 -1.766,-1.321 -2.642,-0.915 -1.387,0.642 -2.817,1.2 -4.134,1.961 -1.24,0.716 -2.356,0.476 -3.389,-0.201 -4.359,-2.849 -7.932,-6.501 -10.864,-10.822003 -1.269,-1.87 -0.242,-3.405 0.443,-5.022 0.384,-0.91 0.834,-1.79 1.238,-2.691 0.49,-1.091 -0.251,-2.436 -1.406,-2.692 -3.053,-0.677 -6.096,-1.396 -9.143,-2.089 -0.927,-0.211 -1.86,-0.382 -2.789,-0.585 -1.193,-0.26 -1.289,-0.514 -0.502,-1.549 1.63,-2.14 3.288,-4.257 4.931,-6.386 0.938,-1.214 1.903,-2.409 2.803,-3.652 0.843,-1.165 1.884,-1.418 3.306,-1.34 3.43,0.186 6.896,-0.12 10.297,0.244 3.357,0.359 5.498,-0.832 7.539,-3.456 4.308,-5.537 8.871,-10.881 13.477,-16.172 4.593,-5.274 9.134,-10.625 14.936999,-14.666 4.255,-2.96 8.737,-5.464 13.693,-7.038 2.768,-0.878 5.489,-2.017 8.324,-2.546 4.169,-0.779 8.414,-1.168 12.639,-1.622 1.743,-0.188 1.874,0.054 1.959,1.85 m -21.966,27.91 c 0.032,-4.145 -3.563,-7.81 -7.684,-7.834 -4.228,-0.025 -7.889,3.551 -7.825,7.734 0.072,4.715 3.55,7.797 7.572,7.828 4.769,0.036 7.697,-3.475 7.937,-7.728"
     id="path4"
     inkscape:connector-curvature="0"
     style="fill:#ffffff;fill-opacity:1" /><path
     d="m 41.324511,107.09375 c 0.372,-6.044 1.562,-12.272002 5.445,-17.641002 1.051,-1.452 2.395,-2.700003 3.688,-3.957003 0.308,-0.3 0.951,-0.248 1.439,-0.358 0.108,0.62 0.485,1.356 0.276,1.84 -0.843,1.974003 -2.047,3.801003 -2.78,5.809003 -1.319,3.618 -1.629,7.427002 -1.484,11.262002 0.013,0.272 0.551,0.749 0.85,0.752 3.753,0.058 7.504,-0.1 11.036,-1.551 1.976,-0.812 3.837,-1.914 5.813,-2.724 0.514,-0.208 1.273,0.193 1.919,0.317 -0.136,0.459 -0.149,1.022 -0.43,1.363 -2.78,3.382 -6.31,5.634 -10.434,7.057 -4.547,1.571 -9.2,2.217 -13.988,2.158 -1.038,-0.014 -1.444,-0.334 -1.363,-1.38 0.066,-0.837 0.013,-1.685 0.013,-2.947"
     id="path6"
     inkscape:connector-curvature="0"
     style="fill:#ffffff;fill-opacity:1" /><g
     transform="matrix(0.01256401,-0.04688954,0.04688954,0.01256401,116.64234,104.68498)"
     id="layer1"
     inkscape:label="Layer 1"
     style="fill:#ffffff;fill-opacity:1;stroke:#ffffff;stroke-opacity:1"><path
       sodipodi:nodetypes="cc"
       inkscape:connector-curvature="0"
       id="path6831"
       d="M 50,1002.3622 500,552.36218"
       style="fill:#ffffff;fill-opacity:1;stroke:#ffffff;stroke-width:40;stroke-linecap:round;stroke-linejoin:miter;stroke-miterlimit:0;stroke-opacity:1;stroke-dasharray:none" /><path
       sodipodi:nodetypes="cccc"
       inkscape:connector-curvature="0"
       id="path7357"
       d="m 200,502.36218 c 225,0 350,125 350,350 0,-100 -125,-225 -125,-225 0,0 -125,-125 -225,-125 z"
       style="fill:#ffffff;fill-opacity:1;stroke:#ffffff;stroke-width:1px;stroke-linecap:butt;stroke-linejoin:miter;stroke-opacity:1" /><path
       sodipodi:nodetypes="cc"
       inkscape:connector-curvature="0"
       id="path7367"
       d="m 403.5,648.86218 75,-75"
       style="fill:#ffffff;fill-opacity:1;stroke:#ffffff;stroke-width:100;stroke-linecap:butt;stroke-linejoin:miter;stroke-miterlimit:4;stroke-opacity:1;stroke-dasharray:none" /></g><g
     transform="translate(-149.37992,-227.2197)"
     inkscape:transform-center-y="9.4689379"
     inkscape:transform-center-x="162.02405"
     id="g3396"><g
       style="stroke-width:6.66666651;stroke-miterlimit:4;stroke-dasharray:none"
       transform="matrix(0.9,0,0,0.9,30,26.25)"
       id="g5143"><g
         transform="translate(40.377378,-40.377356)"
         id="g5174"><g
           id="g3989"
           transform="matrix(0.07384054,0,0,0.07384054,77.267873,313.02854)"><g
             id="g4007"
             transform="translate(398.50212,-474.21753)"><g
               style="fill:#ffffff;fill-opacity:1"
               transform="matrix(0.75,0,0,0.75,105.00006,67.622662)"
               id="biohazard"><use
                 style="fill:#ffffff;fill-opacity:1"
                 height="1"
                 width="1"
                 y="0"
                 x="0"
                 id="use3341"
                 xlink:href="#p" /><use
                 style="fill:#ffffff;fill-opacity:1"
                 height="1"
                 width="1"
                 y="0"
                 x="0"
                 id="use3343"
                 transform="matrix(-0.5,0.8660254,-0.8660254,-0.5,615.1666,164.8334)"
                 xlink:href="#p" /><use
                 style="fill:#ffffff;fill-opacity:1"
                 height="1"
                 width="1"
                 y="0"
                 x="0"
                 id="use3345"
                 transform="matrix(-0.5,-0.8660254,0.8660254,-0.5,164.8334,615.1666)"
                 xlink:href="#p" /></g><g
               style="stroke:#ffffff;stroke-opacity:1"
               id="g4000"><path
                 sodipodi:type="arc"
                 style="fill:none;stroke:#ffffff;stroke-width:6.66666651;stroke-miterlimit:4;stroke-opacity:1;stroke-dasharray:none"
                 id="path3165"
                 sodipodi:cx="299.10617"
                 sodipodi:cy="262.66339"
                 sodipodi:rx="241.12341"
                 sodipodi:ry="241.12341"
                 d="m 540.22958,262.66339 c 0,133.16878 -107.95463,241.12341 -241.12341,241.12341 -133.16878,0 -241.123412,-107.95463 -241.123412,-241.12341 0,-133.16878 107.954632,-241.123412 241.123412,-241.123412 133.16878,0 241.12341,107.954632 241.12341,241.123412 z"
                 transform="matrix(1.1,0,0,1.1,-29.016787,-26.42973)" /><path
                 style="fill:none;stroke:#ffffff;stroke-width:8.98146248;stroke-linecap:butt;stroke-linejoin:miter;stroke-miterlimit:4;stroke-opacity:1;stroke-dasharray:none"
                 d="m 78.038166,262.5 -66.503395,0"
                 id="path5109"
                 inkscape:connector-curvature="0" /><path
                 inkscape:connector-curvature="0"
                 id="path5111"
                 d="m 588.46522,262.5 -66.50339,0"
                 style="fill:none;stroke:#ffffff;stroke-width:8.98146248;stroke-linecap:butt;stroke-linejoin:miter;stroke-miterlimit:4;stroke-opacity:1;stroke-dasharray:none" /><path
                 inkscape:connector-curvature="0"
                 id="path5125"
                 d="m 300,40.538166 0,-66.503395"
                 style="fill:none;stroke:#ffffff;stroke-width:8.98146248;stroke-linecap:butt;stroke-linejoin:miter;stroke-miterlimit:4;stroke-opacity:1;stroke-dasharray:none" /><path
                 style="fill:none;stroke:#ffffff;stroke-width:8.98146248;stroke-linecap:butt;stroke-linejoin:miter;stroke-miterlimit:4;stroke-opacity:1;stroke-dasharray:none"
                 d="m 300,550.96522 0,-66.50339"
                 id="path5127"
                 inkscape:connector-curvature="0" /></g></g></g></g></g></g></svg>