<?xml version="1.0" encoding="UTF-8" standalone="no"?>
<!-- Generator: Adobe Illustrator 16.0.4, SVG Export Plug-In . SVG Version: 6.00 Build 0)  -->

<svg
   xmlns:dc="http://purl.org/dc/elements/1.1/"
   xmlns:cc="http://creativecommons.org/ns#"
   xmlns:rdf="http://www.w3.org/1999/02/22-rdf-syntax-ns#"
   xmlns:svg="http://www.w3.org/2000/svg"
   xmlns="http://www.w3.org/2000/svg"
   xmlns:xlink="http://www.w3.org/1999/xlink"
   xmlns:sodipodi="http://sodipodi.sourceforge.net/DTD/sodipodi-0.dtd"
   xmlns:inkscape="http://www.inkscape.org/namespaces/inkscape"
   version="1.1"
   id="Delete"
   sodipodi:docname="Station.svg"
   inkscape:version="0.91 r13725"
   x="0px"
   y="0px"
   width="3.25in"
   height="5.25in"
   viewBox="0 0 292.50001 472.50002"
   enable-background="new 0 0 234 378"
   xml:space="preserve"><metadata
     id="metadata221"><rdf:RDF><cc:Work
         rdf:about=""><dc:format>image/svg+xml</dc:format><dc:type
           rdf:resource="http://purl.org/dc/dcmitype/StillImage" /><dc:title></dc:title></cc:Work></rdf:RDF></metadata><defs
     id="defs219" /><sodipodi:namedview
     inkscape:current-layer="layer4"
     inkscape:window-maximized="1"
     inkscape:window-y="24"
     inkscape:window-x="0"
     inkscape:document-units="in"
     inkscape:window-height="1003"
     inkscape:window-width="1920"
     inkscape:pageshadow="2"
     inkscape:pageopacity="0"
     units="in"
     inkscape:cy="238.24585"
     inkscape:cx="74.073632"
     inkscape:zoom="1.7658963"
     showgrid="false"
     guidetolerance="10"
     gridtolerance="10"
     objecttolerance="10"
     borderopacity="1"
     pagecolor="#ffffff"
     bordercolor="#666666"
     id="namedview386" /><g
     id="layer1"
     inkscape:groupmode="layer"
     inkscape:label="template"
     transform="translate(0,94.500017)"
     style="display:none"><line
       id="line3"
       x1="26.112513"
       y1="-15.39149"
       x2="290.07202"
       y2="-15.39149"
       style="fill:none;stroke:#ff0000;stroke-width:1.60484874" /><g
       id="g5"
       transform="matrix(1.5943895,0,0,1.5943897,-8.4895651,-83.895394)"><path
         id="path7"
         inkscape:connector-curvature="0"
         d="m 28.783,36.468 c 0,0.306 -0.141,0.606 -0.418,0.894 l -0.042,0.047 -2.429,2.561 c -0.517,0.539 -0.956,0.961 -1.32,1.259 -0.362,0.291 -0.621,0.439 -0.767,0.439 -0.158,0 -0.354,-0.072 -0.589,-0.22 -0.229,-0.149 -0.383,-0.302 -0.452,-0.457 -0.054,-0.13 -0.112,-0.411 -0.16,-0.837 -0.053,-0.419 -0.08,-0.883 -0.08,-1.377 0,-0.271 0.112,-0.522 0.341,-0.75 0.226,-0.23 0.473,-0.346 0.746,-0.346 0.259,0 0.414,0.238 0.462,0.714 0.008,0.054 0.013,0.093 0.014,0.121 0.039,0.364 0.092,0.618 0.145,0.762 0.057,0.145 0.13,0.218 0.225,0.218 0.038,0 0.114,-0.046 0.217,-0.13 0.11,-0.084 0.237,-0.202 0.386,-0.35 l 2.498,-2.472 c 0.209,-0.211 0.395,-0.367 0.564,-0.476 0.164,-0.106 0.304,-0.162 0.421,-0.162 0.084,0 0.145,0.032 0.186,0.098 0.034,0.066 0.053,0.176 0.053,0.33 l 0,0.134 z"
         style="fill:#e8242c" /></g><rect
       id="rect9"
       x="39.321716"
       y="-25.725691"
       width="204.71962"
       height="24.994926"
       style="fill:none" /><text
       transform="scale(0.99959996,1.0004002)"
       font-size="8"
       id="text9"
       style="font-size:10.2000103px;font-family:Arial-Black;fill:#221f1f"
       x="39.336685"
       y="-18.411552">Slug Line</text>
<text
       transform="scale(0.99959996,1.0004002)"
       font-size="7"
       id="text11"
       style="font-size:8.92500973px;font-family:Arial-BoldMT;fill:#ff0000"
       x="39.336685"
       y="-7.7016687">The actual slug cut line.</text>
<g
       id="g17"
       transform="matrix(1.5943895,0,0,1.5943897,-8.4895651,-83.895394)"><line
         id="line19"
         x1="179.674"
         y1="87.105003"
         x2="177.76601"
         y2="87.105003"
         style="fill:none;stroke:#2ba4dd;stroke-dasharray:5" /><line
         id="line21"
         x1="174.03799"
         y1="87.105003"
         x2="26.987"
         y2="87.105003"
         style="fill:none;stroke:#2ba4dd;stroke-dasharray:5" /><line
         id="line23"
         x1="25.120001"
         y1="87.105003"
         x2="23.216999"
         y2="87.105003"
         style="fill:none;stroke:#2ba4dd;stroke-dasharray:5" /></g><rect
       id="rect25"
       x="39.321716"
       y="45.118786"
       width="215.88034"
       height="71.667175"
       style="fill:none" /><text
       transform="scale(0.99959996,1.0004002)"
       font-size="8"
       id="text18"
       style="font-size:10.2000103px;font-family:Arial-Black;fill:#221f1f"
       x="39.336685"
       y="52.403927">Safe Zone</text>
<text
       transform="scale(0.99959996,1.0004002)"
       font-size="7"
       id="text20"
       style="font-size:8.92500973px;font-family:Arial-BoldMT;fill:#2ca2db"
       x="39.336685"
       y="63.878937">DO NOT place ANY important text, images, or cut</text>
<text
       transform="scale(0.99959996,1.0004002)"
       font-size="7"
       id="text22"
       style="font-size:8.92500973px;font-family:Arial-BoldMT;fill:#2ca2db"
       x="39.336685"
       y="75.353943">lines beyond this dotted line. Anything past the</text>
<text
       transform="scale(0.99959996,1.0004002)"
       font-size="7"
       id="text24"
       style="font-size:8.92500973px;font-family:Arial-BoldMT;fill:#2ca2db"
       x="39.336685"
       y="86.828957">dotted line has the potential for being trimmed.</text>
<text
       transform="scale(0.99959996,1.0004002)"
       font-size="7"
       id="text26"
       style="font-size:8.92500973px;font-family:Arial-BoldMT;fill:#2ca2db"
       x="39.336685"
       y="98.303978">This line is provided to prevent trimming of your</text>
<text
       transform="scale(0.99959996,1.0004002)"
       font-size="7"
       id="text28"
       style="font-size:8.92500973px;font-family:Arial-BoldMT;fill:#2ca2db"
       x="39.336685"
       y="109.77898">designs.</text>
<line
       id="line41"
       x1="28.527054"
       y1="131.07297"
       x2="255.20207"
       y2="131.07297"
       style="fill:none;stroke:#ff0000;stroke-width:1.59438956;stroke-dasharray:31.88779085, 0.11479605" /><rect
       id="rect43"
       x="39.321716"
       y="121.92372"
       width="215.88034"
       height="86.734795"
       style="fill:none" /><text
       font-size="8"
       id="text32"
       style="font-size:10.20409298px;font-family:Arial-Black;fill:#231f20"
       x="39.320946"
       y="129.22719">Nicks</text>
<text
       font-size="7"
       id="text34"
       style="font-size:8.92858124px;font-family:Arial-BoldMT;fill:#ff0000"
       x="39.320946"
       y="139.94197">To prevent cut pieces from falling out of slug, all</text>
<text
       font-size="7"
       id="text36"
       style="font-size:8.92858124px;font-family:Arial-BoldMT;fill:#ff0000"
       x="39.320946"
       y="150.65552">cut lines must have at least 3 “nicks”. A nick is</text>
<text
       font-size="7"
       id="text38"
       style="font-size:8.92858124px;font-family:Arial-BoldMT;fill:#ff0000"
       x="39.320946"
       y="161.37032">a break in the cut line that keeps the piece</text>
<text
       font-size="7"
       id="text40"
       style="font-size:8.92858124px;font-family:Arial-BoldMT;fill:#ff0000"
       x="39.320946"
       y="172.0864">attached to the slug. The recommended nick size</text>
<text
       font-size="7"
       id="text42"
       style="font-size:8.92858124px;font-family:Arial-BoldMT;fill:#ff0000"
       x="39.320946"
       y="182.79866">is .01” or .25mm. Any pieces without nicks make</text>
<g
       id="g61"
       transform="matrix(1.5943895,0,0,1.5943897,-8.4895651,-83.895394)"><path
         id="path63"
         inkscape:connector-curvature="0"
         d="m 28.783,129.249 c 0,0.306 -0.141,0.606 -0.418,0.894 l -0.042,0.047 -2.429,2.561 c -0.517,0.539 -0.956,0.961 -1.32,1.259 -0.362,0.291 -0.621,0.439 -0.767,0.439 -0.158,0 -0.354,-0.072 -0.589,-0.22 -0.229,-0.149 -0.383,-0.302 -0.452,-0.457 -0.054,-0.129 -0.112,-0.41 -0.16,-0.837 -0.053,-0.419 -0.08,-0.883 -0.08,-1.377 0,-0.271 0.112,-0.522 0.341,-0.75 0.226,-0.23 0.473,-0.346 0.746,-0.346 0.259,0 0.414,0.237 0.462,0.714 0.008,0.054 0.013,0.093 0.014,0.121 0.039,0.364 0.092,0.618 0.145,0.763 0.057,0.145 0.13,0.218 0.225,0.218 0.038,0 0.114,-0.046 0.217,-0.13 0.11,-0.084 0.237,-0.202 0.386,-0.35 l 2.498,-2.472 c 0.209,-0.211 0.395,-0.367 0.564,-0.476 0.164,-0.106 0.304,-0.162 0.421,-0.162 0.084,0 0.145,0.032 0.186,0.098 0.034,0.066 0.053,0.176 0.053,0.33 l 0,0.133 z"
         style="fill:#e8242c" /></g><g
       id="g65"
       transform="matrix(1.5943895,0,0,1.5943897,-8.4895651,-83.895394)"><path
         id="path67"
         inkscape:connector-curvature="0"
         d="m 28.783,81.477 c 0,0.306 -0.141,0.606 -0.418,0.893 l -0.042,0.047 -2.429,2.561 c -0.517,0.539 -0.956,0.961 -1.32,1.259 -0.362,0.291 -0.621,0.439 -0.767,0.439 -0.158,0 -0.354,-0.072 -0.589,-0.22 -0.229,-0.149 -0.383,-0.302 -0.452,-0.457 -0.054,-0.13 -0.112,-0.411 -0.16,-0.837 -0.053,-0.419 -0.08,-0.883 -0.08,-1.377 0,-0.27 0.112,-0.521 0.341,-0.75 0.226,-0.23 0.473,-0.346 0.746,-0.346 0.259,0 0.414,0.238 0.462,0.714 0.008,0.054 0.013,0.094 0.014,0.122 0.039,0.364 0.092,0.618 0.145,0.762 0.057,0.146 0.13,0.218 0.225,0.218 0.038,0 0.114,-0.045 0.217,-0.129 0.11,-0.084 0.237,-0.202 0.386,-0.35 l 2.498,-2.472 c 0.209,-0.211 0.395,-0.367 0.564,-0.476 0.164,-0.107 0.304,-0.162 0.421,-0.162 0.084,0 0.145,0.032 0.186,0.098 0.034,0.066 0.053,0.176 0.053,0.33 l 0,0.133 z"
         style="fill:#e8242c" /></g><rect
       id="rect69"
       x="48.506668"
       y="245.35497"
       width="214.09335"
       height="123.98228"
       style="fill:none" /><text
       font-size="7"
       id="text53"
       style="font-size:8.92858124px;font-family:Arial-BoldMT;fill:#231f20"
       x="35.751045"
       y="264.50116">• Line thickness does not affect the cut line. Lines</text>
<text
       font-size="7"
       id="text55"
       style="font-size:8.92858124px;font-family:Arial-BoldMT;fill:#231f20"
       x="48.506165"
       y="277.25632">will be cut only down the center of any vector/line.</text>
<text
       font-size="7"
       id="text57"
       style="font-size:8.92858124px;font-family:Arial-BoldMT;fill:#231f20"
       x="35.751045"
       y="290.01141">• Having lines cross could result in pieces becoming</text>
<text
       font-size="7"
       id="text61"
       style="font-size:8.92858124px;font-family:Arial-BoldMT;fill:#231f20"
       x="35.751045"
       y="315.52164">• Check for duplicate vectors/lines directly on top of</text>
<text
       font-size="7"
       id="text63"
       style="font-size:8.92858124px;font-family:Arial-BoldMT;fill:#231f20"
       x="48.506165"
       y="328.27676">each other. Duplicate lines can result in a line</text>
<text
       font-size="7"
       id="text65"
       style="font-size:8.92858124px;font-family:Arial-BoldMT;fill:#231f20"
       x="48.506165"
       y="341.03189">being cut twice which can affect edge quality and</text>
<line
       id="line93"
       x1="29.467104"
       y1="10.266701"
       x2="244.04134"
       y2="10.266701"
       style="fill:none;stroke:#ff0000;stroke-width:1.59438956" /><g
       id="g95"
       transform="matrix(1.5943895,0,0,1.5943897,-8.4895651,-83.895394)"><path
         id="path97"
         inkscape:connector-curvature="0"
         d="m 28.783,52.721 c 0,0.307 -0.141,0.607 -0.418,0.894 l -0.042,0.047 -2.429,2.561 c -0.517,0.539 -0.956,0.961 -1.32,1.259 -0.362,0.291 -0.621,0.439 -0.767,0.439 -0.158,0 -0.354,-0.072 -0.589,-0.22 -0.229,-0.149 -0.383,-0.302 -0.452,-0.457 -0.054,-0.13 -0.112,-0.411 -0.16,-0.837 -0.053,-0.419 -0.08,-0.883 -0.08,-1.377 0,-0.27 0.112,-0.522 0.341,-0.75 0.226,-0.23 0.473,-0.346 0.746,-0.346 0.259,0 0.414,0.238 0.462,0.714 0.008,0.054 0.013,0.093 0.014,0.121 0.039,0.364 0.092,0.618 0.145,0.762 0.057,0.146 0.13,0.218 0.225,0.218 0.038,0 0.114,-0.046 0.217,-0.13 0.11,-0.084 0.237,-0.202 0.386,-0.35 l 2.498,-2.472 c 0.209,-0.211 0.395,-0.367 0.564,-0.476 0.164,-0.106 0.304,-0.161 0.421,-0.161 0.084,0 0.145,0.032 0.186,0.097 0.034,0.066 0.053,0.176 0.053,0.33 l 0,0.134 z"
         style="fill:#e8242c" /></g><rect
       id="rect99"
       x="39.32299"
       y="0.18887883"
       width="204.71962"
       height="37.514072"
       style="fill:none" /><text
       transform="scale(0.99959996,1.0004002)"
       font-size="8"
       id="text74"
       style="font-size:10.2000103px;font-family:Arial-Black;fill:#221f1f"
       x="39.337959"
       y="7.4925208">Cut Line</text>
<text
       transform="scale(0.99959996,1.0004002)"
       font-size="7"
       id="text76"
       style="font-size:8.92500973px;font-family:Arial-BoldMT;fill:#ed2224"
       x="39.337959"
       y="18.202408">Define your own!</text>
<g
       id="safe_zone"
       transform="matrix(1.5625,0,0,1.5625,0,-94.500012)"><g
         id="g110"><polyline
           id="polyline112"
           stroke-miterlimit="10"
           points="180,293.147      180,295.2 177.947,295.2    "
           style="fill:none;stroke:#00adee;stroke-width:2;stroke-miterlimit:10" /><line
           id="line114"
           stroke-miterlimit="10"
           x1="173.83299"
           y1="295.20001"
           x2="11.311"
           y2="295.20001"
           style="fill:none;stroke:#00adee;stroke-width:2;stroke-miterlimit:10;stroke-dasharray:5.1431, 5.1431" /><polyline
           id="polyline116"
           stroke-miterlimit="10"
           points="9.253,295.2      7.2,295.2 7.2,293.147    "
           style="fill:none;stroke:#00adee;stroke-width:2;stroke-miterlimit:10" /><line
           id="line118"
           stroke-miterlimit="10"
           x1="7.1999998"
           y1="289.03299"
           x2="7.1999998"
           y2="11.311"
           style="fill:none;stroke:#00adee;stroke-width:2;stroke-miterlimit:10;stroke-dasharray:5.143, 5.143" /><polyline
           id="polyline120"
           stroke-miterlimit="10"
           points="7.2,9.253 7.2,7.2      9.253,7.2    "
           style="fill:none;stroke:#00adee;stroke-width:2;stroke-miterlimit:10" /><line
           id="line122"
           stroke-miterlimit="10"
           x1="13.367"
           y1="7.1999998"
           x2="175.88901"
           y2="7.1999998"
           style="fill:none;stroke:#00adee;stroke-width:2;stroke-miterlimit:10;stroke-dasharray:5.1431, 5.1431" /><polyline
           id="polyline124"
           stroke-miterlimit="10"
           points="177.947,7.2 180,7.2      180,9.253    "
           style="fill:none;stroke:#00adee;stroke-width:2;stroke-miterlimit:10" /><line
           id="line126"
           stroke-miterlimit="10"
           x1="180"
           y1="13.367"
           x2="180"
           y2="291.09"
           style="fill:none;stroke:#00adee;stroke-width:2;stroke-miterlimit:10;stroke-dasharray:5.143, 5.143" /></g></g><g
       id="g128"
       transform="matrix(1.5943895,0,0,1.5943897,-8.4895651,-83.895394)"><rect
         id="rect130"
         x="70.581001"
         y="11.311"
         width="104.61"
         height="23.754"
         style="fill:#e7e6e6" /><text
         transform="matrix(0.8,0,0,0.8,99.5602,19.0828)"
         font-size="7.793"
         id="text90"
         style="font-size:7.79300022px;font-family:Arial-BoldMT;fill:#231f20">3.25” x 5.25”</text>
<text
         transform="matrix(0.8,0,0,0.8,99.5602,25.2399)"
         font-size="7.793"
         id="text92"
         style="font-size:7.79300022px;font-family:Arial-BoldMT;fill:#231f20">Custom Small Punchout</text>
<text
         transform="matrix(0.8,0,0,0.8,99.5602,31.3961)"
         font-size="5.4551"
         id="text94"
         style="font-size:5.45510006px;font-family:Arial-BoldMT;fill:#231f20">www.thegamecrafter.com</text>
<g
         id="g140"><path
           id="path142"
           inkscape:connector-curvature="0"
           d="m 95.15,23.168 c 0,5.914 -4.788,10.708 -10.699,10.708 -5.91,0 -10.7,-4.795 -10.7,-10.708 0,-5.914 4.79,-10.708 10.7,-10.708 5.911,0 10.699,4.794 10.699,10.708" /><path
           id="path144"
           inkscape:connector-curvature="0"
           d="m 94.188,23.227 c 0,5.377 -4.356,9.734 -9.728,9.734 -5.373,0 -9.727,-4.359 -9.727,-9.734 0,-5.376 4.354,-9.735 9.727,-9.735 5.371,0 9.728,4.358 9.728,9.735"
           style="fill:#b7d333" /><path
           id="path146"
           inkscape:connector-curvature="0"
           d="m 82.377,21.104 c -0.136,1.194 -0.236,2.152 -0.302,2.875 l -0.445,0.019 c 0.007,-0.023 0.011,-0.051 0.011,-0.082 0,-0.054 -0.018,-0.125 -0.061,-0.214 -0.039,-0.088 -0.062,-0.145 -0.068,-0.169 -0.116,0.016 -0.224,0.095 -0.331,0.239 -0.104,0.143 -0.198,0.214 -0.283,0.212 -0.05,0 -0.103,-0.014 -0.163,-0.038 -0.08,0.053 -0.182,0.075 -0.307,0.067 -0.116,-0.021 -0.227,-0.037 -0.336,-0.051 -0.004,-0.15 -0.152,-0.283 -0.446,-0.397 0.001,-0.061 -0.029,-0.15 -0.09,-0.269 -0.061,-0.118 -0.092,-0.202 -0.092,-0.25 0.002,-0.055 0.024,-0.1 0.066,-0.135 -0.005,-0.017 -0.055,-0.13 -0.148,-0.339 -0.063,-0.15 -0.095,-0.282 -0.092,-0.39 0.002,-0.084 0.021,-0.163 0.057,-0.234 -0.05,-0.514 -0.075,-0.954 -0.068,-1.322 0.011,-0.569 0.089,-1.09 0.245,-1.564 -0.012,-0.072 -0.017,-0.145 -0.014,-0.217 0.005,-0.381 0.136,-0.643 0.392,-0.791 l 0.002,-0.118 c 0.251,-0.321 0.585,-0.553 0.998,-0.698 0.246,0.059 0.492,0.114 0.738,0.167 0.277,0.095 0.468,0.259 0.572,0.489 0.083,0.05 0.125,0.15 0.121,0.301 -0.002,0.169 0.017,0.278 0.058,0.327 l -0.046,0.054 c 0.047,0.357 0.07,0.574 0.07,0.654 -0.005,0.23 -0.064,0.391 -0.182,0.486 -0.041,-0.002 -0.152,-0.04 -0.331,-0.114 -0.044,0.043 -0.088,0.062 -0.138,0.06 -0.023,0 -0.066,-0.013 -0.13,-0.038 -0.064,-0.025 -0.116,-0.038 -0.158,-0.038 -0.03,-0.002 -0.06,0.005 -0.091,0.016 -0.003,-0.478 0.012,-0.833 0.046,-1.068 -0.049,-0.03 -0.095,-0.101 -0.146,-0.211 -0.05,-0.109 -0.114,-0.17 -0.191,-0.183 -0.05,0.059 -0.071,0.098 -0.065,0.117 L 80.866,18.2 c -0.148,0.16 -0.247,0.439 -0.295,0.837 -0.049,0.458 -0.113,0.762 -0.188,0.911 0.065,0.069 0.096,0.163 0.095,0.282 0,0.043 -0.008,0.114 -0.021,0.208 -0.015,0.098 -0.021,0.168 -0.023,0.218 -10e-4,0.055 0.004,0.104 0.016,0.146 l -0.109,0.105 c 0.045,0.207 0.07,0.466 0.077,0.781 -0.004,0.265 -0.007,0.531 -0.004,0.797 -0.008,0 -0.058,0.002 -0.154,0.005 -0.061,0 -0.104,0.019 -0.129,0.062 0.037,-0.004 0.07,-0.008 0.1,-0.006 0.133,0.002 0.237,0.095 0.313,0.282 0.075,0.184 0.14,0.277 0.195,0.279 0.059,0 0.142,-0.055 0.248,-0.168 0.179,-0.189 0.269,-0.45 0.276,-0.782 0.002,-0.163 -0.016,-0.338 -0.056,-0.527 -0.042,0.024 -0.064,0.084 -0.065,0.179 -0.098,0 -0.159,0.019 -0.182,0.061 -0.043,-0.014 -0.059,-0.046 -0.053,-0.1 0.008,-0.079 0.012,-0.121 0.012,-0.126 0.073,-0.024 0.108,-0.055 0.11,-0.098 0,-0.018 -0.012,-0.053 -0.039,-0.1 -0.027,-0.05 -0.039,-0.088 -0.039,-0.118 0.002,-0.026 0.007,-0.047 0.019,-0.073 l 0.043,-0.351 c 0.132,0.037 0.419,0.055 0.858,0.05 -0.013,0.03 0.006,0.07 0.053,0.118 0.041,-0.042 0.088,-0.062 0.135,-0.06 0.038,0 0.09,0.016 0.163,0.047 0.074,0.029 0.126,0.045 0.155,0.045" /><path
           id="path148"
           inkscape:connector-curvature="0"
           d="m 85.753,24.223 c -0.084,-0.037 -0.174,-0.058 -0.27,-0.059 -0.084,-0.001 -0.2,0.014 -0.345,0.049 -0.163,0.034 -0.275,0.053 -0.334,0.057 -0.065,-0.128 -0.111,-0.304 -0.138,-0.528 -0.049,-0.327 -0.079,-0.511 -0.089,-0.553 0.018,-0.035 0.027,-0.066 0.027,-0.091 0.003,-0.066 -0.05,-0.127 -0.154,-0.179 -0.105,-0.053 -0.158,-0.095 -0.157,-0.125 0,-0.035 0.061,-0.088 0.184,-0.159 -0.03,-0.037 -0.051,-0.111 -0.064,-0.222 -0.015,-0.112 -0.043,-0.186 -0.083,-0.224 -0.074,0.066 -0.192,0.107 -0.358,0.126 -0.168,0.018 -0.278,0.045 -0.333,0.081 0.004,0.471 -0.073,0.786 -0.233,0.947 -0.085,-0.018 -0.148,0.013 -0.192,0.098 -0.062,0.1 -0.114,0.161 -0.156,0.178 l 0.052,0.065 c -0.05,0.041 -0.128,0.057 -0.236,0.05 -0.169,-0.01 -0.259,-0.014 -0.271,-0.014 l -0.051,-0.163 0.589,-4.89 c 0.005,-0.307 0.02,-0.517 0.047,-0.623 -0.009,-0.273 0.056,-0.441 0.19,-0.504 0.083,0.055 0.188,0.084 0.314,0.086 0.103,0.003 0.264,-0.018 0.48,-0.063 0.22,-0.045 0.371,-0.066 0.455,-0.066 0.295,0.005 0.424,0.218 0.387,0.64 -0.029,0.338 0.021,0.784 0.157,1.336 0.141,0.593 0.208,1.038 0.204,1.335 -0.001,0.09 0.028,0.277 0.019,0.367 -0.127,0.07 -0.291,0.112 -0.491,0.128 -0.174,0.008 -0.353,0.018 -0.534,0.027 -0.047,-0.46 -0.127,-1.013 -0.174,-1.467 -0.057,-0.543 -0.129,-0.991 -0.214,-1.343 l -0.279,2.586 c -0.021,0.222 0.079,0.336 0.302,0.34 0.073,10e-4 0.142,-0.016 0.21,-0.051 0.054,-0.016 0.13,0.024 0.223,0.123 -0.002,0.187 0.034,0.299 0.112,0.337 0.098,-0.064 0.227,-0.127 0.384,-0.183 0.14,-0.053 0.275,-0.102 0.411,-0.148 0.075,0.104 0.125,0.259 0.145,0.464 0.026,0.291 0.044,0.46 0.055,0.509 0.011,0.116 0.057,0.363 0.141,0.746 0.061,0.302 0.091,0.548 0.088,0.735 0.001,0.082 -0.007,0.166 -0.02,0.245" /><path
           id="path150"
           inkscape:connector-curvature="0"
           d="m 89.92,19.911 c -0.006,0.018 -0.008,0.124 -0.005,0.317 -0.003,0.158 -0.024,0.275 -0.061,0.353 -0.045,0.119 -0.068,0.29 -0.072,0.514 -0.002,0.05 0.001,0.125 0.005,0.228 -0.001,0.102 -0.002,0.178 -0.004,0.226 -0.007,0.382 -0.071,0.657 -0.195,0.83 0.011,0.098 0.017,0.195 0.014,0.29 -0.005,0.302 -0.109,0.708 -0.31,1.217 -0.055,0.018 -0.1,0.027 -0.137,0.027 -0.073,-0.002 -0.124,-0.042 -0.157,-0.125 -0.031,-0.082 -0.061,-0.159 -0.089,-0.234 0.019,-0.463 0.009,-1.141 -0.03,-2.028 l 0.054,-0.053 c -0.039,-0.158 -0.056,-0.334 -0.053,-0.527 0.002,-0.139 0.019,-0.34 0.05,-0.606 0.03,-0.265 0.05,-0.464 0.05,-0.598 0.003,-0.083 0,-0.165 -0.004,-0.244 -0.208,0.498 -0.355,1.341 -0.442,2.528 l -0.077,0.181 c -0.024,0.061 -0.077,0.092 -0.153,0.096 -0.024,-0.042 -0.048,-0.063 -0.073,-0.063 -0.017,0 -0.05,0.021 -0.095,0.066 -0.046,0.045 -0.084,0.063 -0.114,0.057 l -0.12,0.106 c 0.053,0.069 0.167,0.077 0.344,0.024 0.139,-0.04 0.211,0.012 0.215,0.157 0.002,0.121 -0.03,0.283 -0.099,0.487 -0.07,0.204 -0.105,0.358 -0.108,0.461 0,0.071 0.007,0.145 0.023,0.217 l -0.625,0.099 C 87.593,23.79 87.551,23.587 87.522,23.3 87.495,23.012 87.45,22.808 87.393,22.686 c 0.037,-0.042 0.054,-0.086 0.056,-0.135 0,-0.041 -0.017,-0.105 -0.05,-0.191 -0.037,-0.084 -0.056,-0.147 -0.061,-0.191 -0.005,-0.066 -0.026,-0.227 -0.064,-0.481 -0.027,-0.205 -0.039,-0.366 -0.039,-0.481 0.003,-0.061 0.007,-0.114 0.015,-0.162 0,-0.043 -0.023,-0.105 -0.07,-0.188 -0.048,-0.083 -0.07,-0.141 -0.07,-0.177 0,-0.03 0.013,-0.055 0.037,-0.079 -0.041,-0.05 -0.057,-0.134 -0.05,-0.255 0.009,-0.122 -0.008,-0.206 -0.05,-0.255 -0.089,0.234 -0.137,0.55 -0.143,0.949 -0.004,0.555 -0.01,0.875 -0.018,0.959 l 0.063,0.057 -0.063,0.053 c 0.044,0.218 0.063,0.495 0.058,0.835 -0.017,0.609 -0.024,0.893 -0.023,0.851 -0.086,0.077 -0.204,0.113 -0.355,0.11 -0.186,-0.002 -0.314,0.014 -0.381,0.047 -0.077,-0.134 -0.112,-0.305 -0.108,-0.518 0.001,-0.162 0.029,-0.361 0.082,-0.597 -0.082,-0.151 -0.12,-0.364 -0.117,-0.634 0.002,-0.067 0.009,-0.194 0.025,-0.381 0.01,-0.151 0.01,-0.262 0.005,-0.336 0.06,-0.027 0.092,-0.061 0.092,-0.098 0,-0.023 -0.019,-0.065 -0.057,-0.122 -0.038,-0.058 -0.057,-0.102 -0.057,-0.133 0.002,-0.035 0.026,-0.071 0.075,-0.107 l -0.194,-2.928 c 0.116,-0.076 0.302,-0.114 0.562,-0.11 0.283,0.012 0.477,-0.004 0.579,-0.043 0.02,-0.014 0.04,-0.019 0.064,-0.019 0.024,0.001 0.052,0.016 0.085,0.043 0.033,0.027 0.055,0.041 0.067,0.041 0.024,10e-4 0.046,-0.016 0.064,-0.053 l 0.169,0.166 c 0.057,0.213 0.111,0.624 0.161,1.234 0.052,0.527 0.133,0.923 0.243,1.191 0.147,-0.534 0.27,-0.982 0.366,-1.343 l 0.196,-1.434 1.403,-0.03 c 0.005,0.079 0.022,0.498 0.06,0.74 0.032,0.21 0.048,0.384 0.047,0.517 -0.003,0.152 -0.027,0.287 -0.07,0.406 0.047,0.067 0.07,0.151 0.067,0.254 0.002,0.103 -0.024,0.187 -0.074,0.253" /><path
           id="path152"
           inkscape:connector-curvature="0"
           d="M 92.798,23.085 92.8,23.074 c -0.038,0.079 -0.061,0.169 -0.07,0.271 -0.006,0.066 -0.008,0.159 -0.004,0.281 0.002,0.138 0.005,0.236 0.004,0.289 -0.047,0 -0.241,-0.002 -0.579,-0.01 -0.205,-0.002 -0.389,0.015 -0.553,0.055 l -0.17,-0.184 c -0.048,0.047 -0.066,0.086 -0.055,0.118 -0.03,-0.008 -0.17,-0.011 -0.417,-0.008 -0.193,-0.004 -0.338,-0.024 -0.433,-0.061 -0.099,0.101 -0.214,0.098 -0.344,-0.007 -0.05,-0.035 -0.053,-0.099 -0.016,-0.184 0.038,-0.088 0.027,-0.153 -0.034,-0.197 0.009,-0.193 0.036,-0.491 0.079,-0.894 0.043,-0.363 0.064,-0.646 0.069,-0.85 0.005,-0.277 -0.014,-0.543 -0.059,-0.798 0.066,-0.065 0.143,-0.098 0.227,-0.095 0.098,0.002 0.212,0.049 0.342,0.141 0.184,0.13 0.281,0.195 0.285,0.195 l 0.055,0.065 c 0.005,-0.018 0.037,-0.114 0.094,-0.288 0.031,-0.115 0.079,-0.188 0.141,-0.224 l 0.053,0.057 c 0.023,-0.013 0.102,-0.068 0.237,-0.168 0.104,-0.071 0.19,-0.239 0.249,-0.237 0.067,0 0.128,0.037 0.188,0.111 0.102,0.057 0.164,0.274 0.197,0.386 0.031,0.112 0.062,0.222 0.089,0.332 -0.271,0.007 -0.495,0 -0.669,-0.019 -0.044,0.066 -0.105,0.073 -0.181,0.028 -0.078,-0.046 -0.135,-0.039 -0.172,0.02 -0.004,0.109 -0.008,0.305 -0.012,0.587 -0.011,0.254 -0.014,0.453 -0.011,0.598 0.002,0.224 0.018,0.43 0.046,0.617 0.047,0.002 0.277,0.005 0.686,0.013 0.288,0 0.533,0.024 0.736,0.071 m 0.02,-4.339 c -0.054,0.005 -0.114,0.009 -0.182,0.005 -0.138,-0.002 -0.321,-0.023 -0.55,-0.063 -0.283,-0.041 -0.454,-0.065 -0.515,-0.07 -0.086,0.123 -0.132,0.301 -0.136,0.532 -0.008,0.495 -0.008,0.709 -0.002,0.643 0.083,0.049 0.124,0.14 0.121,0.273 -0.008,0.181 -0.011,0.275 -0.004,0.281 -0.044,0.018 -0.065,0.078 -0.067,0.181 -0.066,-0.025 -0.135,-0.075 -0.205,-0.149 -0.095,-0.092 -0.146,0.221 -0.139,0.142 l -0.057,0.188 -0.053,-0.055 c -0.05,0.004 -0.131,-0.021 -0.248,-0.077 -0.117,-0.057 -0.198,-0.108 -0.246,-0.159 0.002,-0.096 0.018,-0.15 0.049,-0.163 l -0.116,-0.129 -0.056,0.081 c -0.067,-0.629 -0.05,-1.805 0.034,-2.468 0.228,0.039 0.481,0.066 0.758,0.076 0.187,0.008 0.45,0.014 0.786,0.014 0.386,0 0.664,10e-4 0.833,0.004 0.073,0.068 0.107,0.157 0.106,0.265 -0.002,0.067 -0.021,0.173 -0.055,0.321 -0.038,0.146 -0.055,0.254 -0.056,0.327" /><path
           id="path154"
           inkscape:connector-curvature="0"
           d="m 82.65,28.559 0,-0.005 c 0,0.004 -0.016,0.137 -0.047,0.4 -0.017,0.161 -0.054,0.287 -0.118,0.381 l -0.038,-0.034 c -0.075,0.156 -0.173,0.248 -0.299,0.282 -0.06,0.063 -0.148,0.098 -0.262,0.105 -0.067,0.004 -0.224,-0.016 -0.469,-0.059 -0.119,-0.075 -0.183,-0.115 -0.195,-0.123 -0.074,-0.055 -0.11,-0.113 -0.106,-0.17 -0.073,-0.073 -0.175,-0.204 -0.211,-0.369 -0.046,-0.182 -0.075,-0.191 -0.117,-0.255 -0.069,0.05 -0.093,-0.057 -0.133,-0.12 l 0.037,-0.029 c -0.023,-0.016 -0.036,-0.034 -0.036,-0.053 -0.001,-0.016 0.006,-0.037 0.017,-0.065 0.014,-0.027 0.02,-0.049 0.019,-0.063 -0.003,-0.022 -0.016,-0.043 -0.041,-0.059 0.028,-0.142 0.051,-0.357 0.075,-0.641 0.049,-0.027 0.071,-0.077 0.069,-0.151 -0.003,-0.074 0.008,-0.123 0.031,-0.148 0.114,-0.23 0.302,-0.387 0.561,-0.467 0.014,0.002 0.084,0 0.208,-0.004 0.086,-10e-4 0.15,0.005 0.196,0.022 0.077,-0.014 0.155,0.005 0.233,0.057 0.067,0.049 0.134,0.101 0.2,0.151 0.127,0.137 0.195,0.289 0.204,0.462 0.004,0.057 0,0.118 -0.011,0.182 -0.093,-0.004 -0.159,0.059 -0.198,0.183 l -0.361,0.034 c -0.039,-0.055 -0.061,-0.13 -0.065,-0.22 -0.004,-0.032 -0.001,-0.079 0,-0.138 0.002,-0.061 0.002,-0.106 0,-0.137 -0.006,-0.095 -0.03,-0.17 -0.068,-0.225 l -0.109,0.062 c -0.043,-0.017 -0.066,-0.043 -0.067,-0.078 -0.002,-0.012 0.002,-0.028 0.004,-0.049 0.005,-0.024 0.006,-0.037 0.006,-0.046 -0.002,-0.038 -0.036,-0.059 -0.101,-0.067 -0.044,0.407 -0.057,0.826 -0.038,1.255 0.011,0.015 0.045,0.024 0.102,0.029 0.047,0.007 0.07,0.019 0.072,0.043 0.001,0.008 -0.002,0.019 -0.008,0.034 l -0.035,0.029 c 0.018,0.029 0.03,0.072 0.033,0.126 0.002,0.029 10e-4,0.072 -0.003,0.132 -0.002,0.059 -0.004,0.102 -0.002,0.132 0.004,0.086 0.025,0.15 0.064,0.195 -0.004,0.063 0.022,0.105 0.077,0.13 0.035,-0.015 0.066,-0.022 0.096,-0.024 0.109,-0.005 0.185,0.054 0.229,0.182 0,0.002 -0.002,0.023 -0.002,0.065 0.002,0.022 0.014,0.037 0.034,0.043 0.049,-0.027 0.074,-0.079 0.072,-0.153 -0.001,-0.086 0.009,-0.142 0.034,-0.166 -0.007,-0.041 -0.03,-0.097 -0.073,-0.173 -0.041,-0.074 -0.063,-0.134 -0.067,-0.177 -0.002,-0.045 0.012,-0.089 0.043,-0.132 -0.027,-0.008 -0.037,-0.023 -0.036,-0.049 0.002,-0.039 0.003,-0.061 0.003,-0.065 0.194,-0.047 0.395,-0.048 0.597,-0.002" /><path
           id="path156"
           inkscape:connector-curvature="0"
           d="m 84.286,28.895 -0.005,0.001 c -0.022,0.04 -0.028,0.1 -0.021,0.177 0.01,0.108 0.016,0.165 0.016,0.167 -0.017,0.007 -0.039,-10e-4 -0.066,-0.025 -0.043,0.016 -0.061,0.044 -0.06,0.08 0,0.005 0.003,0.015 0.008,0.028 0,0.016 0,0.027 0,0.032 0.003,0.029 -0.007,0.053 -0.024,0.066 -0.05,-0.026 -0.111,-0.043 -0.189,-0.05 -0.079,-0.008 -0.153,-0.016 -0.223,-0.021 -10e-4,-0.363 -0.05,-0.719 -0.145,-1.066 0,0.002 -0.003,-0.033 -0.007,-0.108 0,-0.053 -0.012,-0.091 -0.037,-0.114 L 83.5,28.091 c 0,-0.005 0.011,-0.016 0.033,-0.031 0.022,-0.016 0.033,-0.032 0.032,-0.048 0,-0.008 -0.003,-0.016 -0.005,-0.024 l -0.038,-0.026 c -0.061,0.021 -0.09,0.07 -0.085,0.15 0.002,0.052 -0.018,0.089 -0.063,0.112 0.017,0.012 0.027,0.028 0.027,0.046 0,0.011 -10e-4,0.027 -0.005,0.045 -0.004,0.018 -0.006,0.034 -0.006,0.045 0.002,0.022 0.015,0.042 0.039,0.057 0.001,0.016 0.01,0.159 0.024,0.431 0.012,0.173 0.005,0.32 -0.014,0.441 l 0.004,0.068 c -0.021,-10e-4 -0.048,-10e-4 -0.079,0 -0.033,0.003 -0.08,0.007 -0.144,0.014 -0.062,0.007 -0.108,0.012 -0.138,0.014 -0.123,0.007 -0.208,-0.014 -0.256,-0.061 L 82.773,27.832 C 82.752,27.759 82.734,27.658 82.726,27.527 L 82.708,27.24 c -0.01,-0.141 -0.027,-0.249 -0.052,-0.325 0.011,-0.051 0.054,-0.079 0.134,-0.083 0.05,-0.002 0.116,0.002 0.2,0.02 0.04,-0.018 0.092,-0.03 0.162,-0.034 0.021,-0.001 0.052,-0.001 0.095,-0.001 0.047,-0.002 0.079,-0.004 0.098,-0.005 0.129,-0.008 0.216,-0.047 0.257,-0.118 0.061,-10e-4 0.123,0.018 0.195,0.056 0.07,0.039 0.132,0.061 0.184,0.062 0.141,0.083 0.217,0.22 0.23,0.412 0.001,0.043 -0.016,0.211 -0.052,0.507 l -0.241,0.21 c 0.041,0.075 0.09,0.239 0.149,0.491 0.048,0.209 0.119,0.364 0.219,0.463 m -0.445,-1.698 0.005,0.005 c 0.005,0.017 0.002,-0.048 -0.007,-0.198 -0.004,-0.071 -0.03,-0.124 -0.077,-0.155 -0.03,0.04 0.002,0.058 -0.011,0.148 -0.014,0.089 -0.066,0.066 -0.098,0.105 -0.083,-0.001 -0.102,0.049 -0.118,-0.03 -0.038,-0.129 -0.07,-0.117 -0.07,-0.12 l -0.036,0.021 c -0.012,0.011 -0.027,0.024 -0.043,0.039 -0.014,0.014 -0.032,0.02 -0.048,0.014 0.002,0.016 -0.008,0.042 -0.023,0.076 -0.016,0.034 -0.023,0.059 -0.023,0.071 0.003,0.023 0.02,0.043 0.057,0.053 -0.007,0.054 -0.008,0.11 -0.004,0.168 0,0.032 0.009,0.105 0.022,0.218 0.015,0.09 0.021,0.169 0.018,0.232 0.029,0.002 0.057,0.002 0.084,0 0.116,-0.008 0.191,-0.053 0.225,-0.139 0.012,-0.025 0.025,-0.113 0.041,-0.267 0.013,-0.113 0.048,-0.193 0.106,-0.241" /><path
           id="path158"
           inkscape:connector-curvature="0"
           d="m 86.166,29.474 c -0.048,-0.014 -0.098,-0.018 -0.151,-0.016 -0.047,0.002 -0.108,0.014 -0.186,0.035 -0.087,0.021 -0.149,0.034 -0.182,0.037 -0.039,-0.054 -0.071,-0.13 -0.092,-0.227 -0.038,-0.142 -0.061,-0.221 -0.069,-0.24 0.008,-0.016 0.014,-0.03 0.014,-0.04 -0.003,-0.03 -0.033,-0.054 -0.094,-0.073 -0.057,-0.019 -0.088,-0.037 -0.088,-0.05 -0.002,-0.016 0.03,-0.041 0.095,-0.077 -0.017,-0.016 -0.031,-0.048 -0.043,-0.096 -0.011,-0.049 -0.027,-0.081 -0.053,-0.096 -0.038,0.032 -0.102,0.055 -0.192,0.07 -0.09,0.014 -0.15,0.03 -0.178,0.049 0.019,0.208 0,0.572 -0.082,0.649 -0.048,-0.005 -0.081,0.012 -0.102,0.05 -0.03,0.047 -0.058,0.076 -0.081,0.084 l 0.032,0.027 c -0.025,0.021 -0.069,0.032 -0.128,0.032 -0.092,0.002 -0.143,0.005 -0.15,0.005 l -0.032,-0.071 0.138,-2.397 c -0.006,-0.137 -0.005,-0.229 0.004,-0.277 -0.014,-0.12 0.016,-0.198 0.087,-0.23 0.048,0.021 0.105,0.03 0.175,0.025 0.057,-0.002 0.144,-0.018 0.263,-0.046 0.117,-0.028 0.198,-0.043 0.245,-0.046 0.161,-0.01 0.24,0.079 0.234,0.266 -0.004,0.15 0.039,0.346 0.133,0.582 0.098,0.255 0.151,0.449 0.159,0.579 0.002,0.039 0.055,0.125 0.053,0.165 -0.067,0.035 -0.155,0.061 -0.263,0.074 -0.096,0.011 -0.192,0.023 -0.292,0.034 -0.041,-0.201 -0.135,-0.445 -0.176,-0.642 -0.051,-0.239 -0.107,-0.432 -0.165,-0.585 l -0.063,1.15 c -0.004,0.098 0.057,0.145 0.179,0.137 0.041,-0.002 0.077,-0.012 0.114,-0.03 0.029,-0.009 0.071,0.005 0.125,0.045 0.005,0.083 0.03,0.13 0.075,0.143 0.05,-0.032 0.118,-0.063 0.202,-0.094 0.075,-0.03 0.149,-0.057 0.219,-0.082 0.046,0.042 0.077,0.108 0.095,0.199 0.023,0.126 0.041,0.2 0.049,0.221 0.009,0.05 0.045,0.157 0.103,0.322 0.045,0.132 0.069,0.237 0.073,0.322 0.001,0.041 0,0.078 -0.004,0.113" /><path
           id="path160"
           inkscape:connector-curvature="0"
           d="m 87.534,26.754 0.005,-0.002 c -0.039,0.059 -0.089,0.07 -0.151,0.033 -0.014,-0.002 -0.073,0.002 -0.179,0.011 -0.088,0.005 -0.154,0 -0.194,-0.014 -0.01,0 -0.03,0.011 -0.059,0.03 -0.029,0.019 -0.049,0.029 -0.063,0.03 -0.018,0.001 -0.03,-0.015 -0.033,-0.05 0,-0.006 -0.002,-0.028 -0.004,-0.067 -0.002,-0.028 -0.014,-0.045 -0.038,-0.055 l -0.061,0.049 c -0.02,0.014 -0.029,0.03 -0.027,0.046 10e-4,0.013 0.012,0.032 0.032,0.055 0.021,0.024 0.033,0.043 0.037,0.053 0.002,0.008 0.009,0.127 0.023,0.359 0.005,0.148 0.031,0.264 0.081,0.353 0.012,-0.015 0.042,-0.022 0.089,-0.024 0.048,-0.001 0.08,-0.012 0.096,-0.032 0.03,0.028 0.083,0.029 0.156,0.005 0.073,-0.025 0.127,-0.016 0.158,0.023 l -0.009,0.353 c -0.03,-0.002 -0.074,-0.018 -0.134,-0.043 -0.016,0.051 -0.049,0.084 -0.097,0.098 -0.019,0.006 -0.076,0.012 -0.168,0.018 0.001,-0.017 -0.013,-0.033 -0.044,-0.05 -0.089,0.044 -0.122,0.145 -0.101,0.307 0.002,-0.016 0.005,0.011 0.01,0.084 0.003,0.045 -0.008,0.077 -0.029,0.098 -0.056,0.008 -0.128,-0.005 -0.214,-0.038 -0.086,-0.034 -0.149,-0.049 -0.185,-0.048 -0.017,0.002 -0.032,0.004 -0.044,0.007 l -0.093,0.029 -0.148,-1.613 -0.017,-0.307 c 0.123,-0.042 0.275,-0.068 0.457,-0.079 0.143,-0.008 0.328,-0.008 0.557,0.002 0.015,-0.029 0.043,0.011 0.076,0.008 0.017,-10e-4 0.04,0 0.075,0.005 0.033,0.006 0.057,0.008 0.075,0.007 0.021,-0.001 0.038,-0.005 0.054,-0.012 l 0.023,-0.026 c 0.067,0.02 0.102,0.055 0.106,0.107 0,0.021 -0.005,0.057 -0.019,0.108 -0.014,0.053 -0.019,0.091 -0.018,0.118 0.003,0.025 0.008,0.046 0.019,0.064 m -0.58,2.693 c -0.035,0.018 -0.089,0.029 -0.161,0.034 -0.096,0.005 -0.154,0.011 -0.175,0.014 -0.011,-0.011 -0.023,-0.001 -0.045,-0.087 -0.013,-0.054 -0.048,-0.082 -0.104,-0.077 -0.013,0 -0.028,0.002 -0.05,0.006 l -0.089,0.004 -0.049,-0.816 c 0.05,-0.024 0.11,-0.039 0.183,-0.043 0.069,-0.004 0.13,0.002 0.186,0.021 -0.002,0.03 0.041,0.043 0.125,0.037 l 0.094,-0.005 c 0.059,0.23 0.093,0.644 0.085,0.912" /><path
           id="path162"
           inkscape:connector-curvature="0"
           d="m 89.518,26.823 0.004,0.004 c -0.046,-0.002 -0.196,0.006 -0.311,0.022 -0.1,0.011 -0.174,0.014 -0.223,0.005 -0.05,0.031 -0.065,0.077 -0.053,0.13 l 0.032,0.018 c -0.026,0.023 -0.035,0.041 -0.028,0.054 l 0.028,0.027 c -0.006,0.473 -0.008,0.734 -0.005,0.785 0.008,0.127 0.022,0.236 0.045,0.331 -0.021,0.059 -0.027,0.128 -0.021,0.205 10e-4,0.051 0.014,0.13 0.034,0.241 0.023,0.108 0.051,0.469 0.055,0.525 0.002,0.043 0,0.083 -0.004,0.121 -0.047,0.018 -0.095,0.029 -0.148,0.032 -0.089,0.005 -0.184,-0.013 -0.286,-0.054 -0.014,0.012 -0.027,0.023 -0.042,0.036 -0.017,0.013 -0.022,0.027 -0.012,0.043 -0.034,0.009 -0.079,-0.004 -0.138,-0.041 -0.031,-0.478 -0.117,-1.454 -0.245,-2.441 -0.044,0.041 -0.125,0.008 -0.213,0.018 -0.102,0.011 -0.202,-0.005 -0.241,0.014 -0.05,-0.053 -0.039,-0.069 -0.044,-0.157 -0.005,-0.085 -0.033,-0.295 -0.011,-0.383 0.005,-0.018 0.189,-0.008 0.297,-0.016 0.15,-0.009 0.182,0.027 0.191,0.025 0.014,-0.019 0.086,-0.009 0.14,-0.012 0.033,0.016 0.07,-0.016 0.071,0.008 0.002,0.017 0,0.118 -0.011,0.145 -0.012,0.03 -0.017,0.05 -0.017,0.064 0.003,0.031 0.025,-0.015 0.08,0.004 0.059,-0.002 0.12,-0.004 0.184,-0.006 0.07,0.005 0.15,-0.018 0.145,0.039 0.011,-0.016 0.018,0.014 0.119,-0.026 0.074,-0.034 0.118,-0.122 0.104,-0.182 -0.008,-0.034 0.036,-0.055 0.009,-0.039 0.037,-0.018 0.004,-0.006 0.043,-0.021 0.123,0.011 0.192,-0.001 0.216,-0.002 0.05,-0.002 0.173,0.029 0.208,0.011 0.025,0.048 0.04,0.192 0.04,0.273 0.005,0.124 0.008,0.192 0.008,0.2" /><path
           id="path164"
           inkscape:connector-curvature="0"
           d="m 91.124,28.49 0,-0.005 c -0.017,0.037 -0.025,0.078 -0.027,0.122 -0.002,0.03 0.002,0.071 0.008,0.125 0.007,0.061 0.011,0.102 0.012,0.127 -0.025,10e-4 -0.132,0.008 -0.318,0.018 -0.112,0.006 -0.213,0.021 -0.301,0.045 L 90.4,28.849 c -0.025,0.023 -0.034,0.043 -0.027,0.053 -0.016,0 -0.092,0.004 -0.229,0.014 -0.105,0.006 -0.185,0.002 -0.239,-0.011 -0.05,0.049 -0.113,0.052 -0.188,0.012 -0.027,-0.016 -0.031,-0.043 -0.014,-0.082 0.018,-0.039 0.009,-0.068 -0.025,-0.084 -0.002,-0.086 0.002,-0.218 0.012,-0.398 0.011,-0.161 0.014,-0.287 0.008,-0.377 -0.006,-0.124 -0.028,-0.24 -0.061,-0.35 0.035,-0.032 0.075,-0.048 0.121,-0.05 0.054,-0.004 0.117,0.013 0.193,0.049 0.105,0.049 0.159,0.075 0.163,0.075 l 0.031,0.026 c 0.002,-0.008 0.018,-0.052 0.043,-0.13 0.013,-0.051 0.035,-0.088 0.067,-0.104 l 0.031,0.022 c 0.014,-0.006 0.055,-0.034 0.125,-0.084 0.054,-0.034 0.09,-0.163 0.125,-0.166 0.035,-0.002 0.07,0.012 0.107,0.041 0.057,0.022 0.104,0.166 0.123,0.214 0.021,0.049 0.042,0.096 0.061,0.143 -0.15,0.015 -0.27,0.02 -0.367,0.018 -0.021,0.031 -0.055,0.036 -0.099,0.019 -0.044,-0.017 -0.075,-0.012 -0.093,0.016 0.004,0.049 0.009,0.134 0.016,0.26 0.002,0.112 0.008,0.2 0.016,0.264 0.008,0.098 0.023,0.188 0.046,0.27 0.025,-0.001 0.152,-0.009 0.377,-0.022 0.156,-0.009 0.289,-0.009 0.401,0.003 m -0.153,-1.877 c -0.028,0.004 -0.061,0.006 -0.098,0.009 -0.077,0.004 -0.177,0.001 -0.304,-0.006 -0.156,-0.008 -0.252,-0.011 -0.284,-0.012 -0.043,0.06 -0.05,0.107 -0.043,0.207 0.013,0.218 0.02,0.313 0.022,0.284 0.047,0.018 0.072,0.057 0.077,0.116 0.002,0.079 0.004,0.12 0.007,0.122 -0.021,0.009 -0.032,0.037 -0.03,0.083 -0.037,-0.008 -0.075,-0.029 -0.117,-0.057 -0.055,-0.037 -0.073,0.093 -0.071,0.057 l -0.025,0.082 -0.031,-0.021 c -0.027,0.002 -0.071,-0.004 -0.137,-0.025 -0.066,-0.02 -0.114,-0.039 -0.141,-0.059 -0.002,-0.042 0.004,-0.066 0.019,-0.074 l -0.067,-0.053 -0.027,0.038 c -0.059,-0.273 -0.099,-0.757 -0.077,-1.052 0.127,0.008 0.275,-0.014 0.428,-0.021 0.102,-0.002 0.246,-0.011 0.43,-0.023 0.211,-0.016 0.363,-0.025 0.455,-0.03 0.042,0.026 0.064,0.065 0.066,0.112 0.002,0.029 -0.004,0.076 -0.018,0.143 -0.016,0.065 -0.035,0.146 -0.034,0.18" /><path
           id="path166"
           inkscape:connector-curvature="0"
           d="m 92.777,28.205 -0.006,0.002 c -0.021,0.041 -0.028,0.1 -0.02,0.177 0.011,0.109 0.015,0.165 0.015,0.166 -0.018,0.008 -0.038,0 -0.066,-0.023 -0.043,0.016 -0.064,0.042 -0.061,0.079 0,0.006 0.002,0.016 0.007,0.029 0,0.016 0.002,0.027 0.002,0.032 0.002,0.03 -0.006,0.05 -0.025,0.066 -0.049,-0.027 -0.112,-0.045 -0.19,-0.051 -0.079,-0.006 -0.153,-0.014 -0.222,-0.022 0,-0.363 -0.05,-0.717 -0.146,-1.064 0,0.002 -0.002,-0.034 -0.006,-0.108 0,-0.053 -0.012,-0.092 -0.037,-0.114 l -0.034,0.03 c 0,-0.005 0.011,-0.016 0.034,-0.032 0.022,-0.016 0.033,-0.032 0.031,-0.048 0,-0.008 -0.002,-0.016 -0.005,-0.024 l -0.036,-0.027 c -0.062,0.02 -0.09,0.068 -0.086,0.149 0.002,0.054 -0.019,0.091 -0.065,0.112 0.018,0.014 0.027,0.029 0.029,0.048 0,0.011 -0.002,0.023 -0.005,0.043 -0.004,0.02 -0.005,0.033 -0.005,0.045 0.001,0.024 0.014,0.043 0.038,0.059 0.002,0.016 0.01,0.159 0.025,0.43 0.011,0.173 0.005,0.321 -0.013,0.442 l 0.002,0.067 c -0.024,-0.002 -0.05,-0.002 -0.079,0.001 -0.034,0.002 -0.081,0.005 -0.144,0.014 -0.061,0.008 -0.109,0.014 -0.138,0.014 -0.122,0.007 -0.208,-0.013 -0.257,-0.062 L 91.261,27.144 C 91.238,27.07 91.222,26.969 91.214,26.839 l -0.017,-0.287 c -0.011,-0.142 -0.03,-0.25 -0.053,-0.326 0.01,-0.05 0.055,-0.079 0.134,-0.083 0.05,-0.004 0.116,0.004 0.2,0.019 0.038,-0.018 0.092,-0.029 0.162,-0.034 0.02,0 0.05,0 0.095,0 0.046,-0.002 0.079,-0.005 0.099,-0.007 0.128,-0.006 0.214,-0.046 0.256,-0.118 0.059,-0.002 0.125,0.017 0.195,0.057 0.07,0.04 0.132,0.059 0.186,0.061 0.142,0.084 0.217,0.222 0.228,0.413 0.002,0.043 -0.016,0.212 -0.051,0.507 l -0.241,0.211 c 0.041,0.077 0.091,0.239 0.147,0.493 0.05,0.208 0.124,0.364 0.223,0.46 m -0.449,-1.695 0.005,0.004 c 0.005,0.018 0.002,-0.047 -0.006,-0.196 -0.005,-0.071 -0.03,-0.124 -0.08,-0.155 -0.026,0.038 -0.031,-0.052 -0.045,0.038 -0.014,0.091 -0.036,0.154 -0.066,0.194 -0.083,0 -0.103,-0.05 -0.151,-0.118 -0.032,-0.045 -0.047,-0.006 -0.047,-0.008 l -0.021,0.017 c -0.013,0.012 -0.027,0.025 -0.045,0.039 -0.014,0.015 -0.031,0.019 -0.047,0.015 0.002,0.016 -0.009,0.041 -0.024,0.076 -0.016,0.034 -0.023,0.058 -0.021,0.07 0,0.025 0.019,0.043 0.057,0.054 -0.007,0.053 -0.008,0.11 -0.005,0.169 0.002,0.032 0.009,0.106 0.021,0.219 0.016,0.089 0.022,0.167 0.019,0.232 0.029,0 0.057,0 0.084,-0.001 0.115,-0.006 0.19,-0.053 0.225,-0.138 0.012,-0.023 0.025,-0.113 0.041,-0.266 0.014,-0.119 0.049,-0.2 0.106,-0.245" /><path
           id="path168"
           inkscape:connector-curvature="0"
           d="m 76.328,21.327 0,0.004 c -0.015,0.137 -0.02,0.234 -0.015,0.287 -0.021,0.008 -0.049,0.01 -0.083,0.004 -0.046,-0.006 -0.069,-0.012 -0.077,-0.01 -0.018,0.001 -0.034,0.008 -0.046,0.019 -0.027,-0.017 -0.046,-0.025 -0.056,-0.023 -0.024,0.016 -0.037,0.039 -0.036,0.066 0.001,0.012 0.005,0.034 0.015,0.064 0.009,0.029 0.014,0.051 0.015,0.066 0.001,0.018 -0.004,0.05 -0.013,0.091 -0.01,0.042 -0.014,0.075 -0.013,0.102 0.003,0.03 0.011,0.081 0.021,0.148 0.012,0.066 0.019,0.117 0.02,0.151 -0.014,0.066 -0.018,0.132 -0.016,0.2 0.005,0.082 0.027,0.19 0.066,0.33 0.009,0.002 0.017,0.002 0.023,0.002 0.017,0 0.037,-0.013 0.06,-0.035 0.022,-0.023 0.042,-0.035 0.059,-0.035 0.012,0 0.025,0.002 0.039,0.008 0.045,0.141 0.067,0.232 0.069,0.273 0.002,0.019 0.002,0.04 0,0.061 -0.065,0.016 -0.111,-0.006 -0.137,-0.066 0.003,-0.016 -0.007,-0.034 -0.03,-0.053 l -0.072,0.077 c 0.071,0.01 0.099,0.066 0.083,0.164 -0.005,0.018 -0.02,0.029 -0.044,0.03 -0.043,-10e-4 -0.061,-10e-4 -0.059,-10e-4 l -0.06,-0.105 -0.023,0.03 c -0.021,-0.05 -0.043,-0.075 -0.07,-0.073 -0.014,0 -0.04,0.013 -0.077,0.037 -0.036,0.023 -0.066,0.036 -0.09,0.037 -0.018,0 -0.039,-0.005 -0.058,-0.016 -0.001,-0.029 -0.004,-0.058 -0.011,-0.09 -0.005,-0.031 -0.019,-0.05 -0.049,-0.06 0,-0.074 0.002,-0.271 0.008,-0.591 0.003,-0.242 0,-0.437 -0.008,-0.586 -0.004,-0.062 -0.008,-0.125 -0.014,-0.184 -0.013,-0.02 -0.024,-0.028 -0.036,-0.028 -0.011,0 -0.025,0.012 -0.044,0.032 -0.021,0.021 -0.037,0.029 -0.051,0.027 -0.002,-0.023 -0.014,-0.062 -0.034,-0.116 -0.019,-0.054 -0.032,-0.091 -0.034,-0.116 -0.002,-0.041 0.014,-0.079 0.046,-0.109 l 0.084,0.022 c 0.034,-0.047 0.048,-0.129 0.043,-0.243 -0.002,-0.021 -0.004,-0.055 -0.01,-0.102 -0.004,-0.047 -0.006,-0.082 -0.009,-0.102 -0.009,-0.186 0.049,-0.282 0.171,-0.287 0.045,-0.002 0.102,0.005 0.167,0.023 l 0.082,0.021 c 0.006,0.032 0.01,0.063 0.012,0.098 0.003,0.046 0,0.113 -0.005,0.2 -0.008,0.09 -0.011,0.155 -0.008,0.195 0.002,0.066 0.016,0.124 0.034,0.177 0.019,-0.002 0.05,-0.011 0.09,-0.032 0.041,-0.021 0.073,-0.032 0.09,-0.032 0.042,0.001 0.07,0.016 0.091,0.049 m -0.251,0.259 -0.004,-0.083 -0.026,-0.025 0.03,0.108 z" /><path
           id="path170"
           inkscape:connector-curvature="0"
           d="m 77.32,21.066 0.006,0 c -0.01,0.065 -0.018,0.132 -0.03,0.198 -0.014,0.075 -0.036,0.134 -0.064,0.177 -0.005,-10e-4 -0.035,-0.016 -0.089,-0.042 -0.037,-0.019 -0.072,-0.027 -0.099,-0.023 -0.022,0.141 -0.034,0.334 -0.036,0.578 -0.002,0.311 -0.005,0.501 -0.009,0.566 -0.036,-0.004 -0.064,0.008 -0.081,0.034 -0.018,0.027 -0.036,0.053 -0.05,0.081 -0.009,0.014 -0.011,0.028 -0.01,0.039 0,0.02 0.018,0.039 0.05,0.057 0.031,0.017 0.047,0.037 0.05,0.057 -0.016,0.053 -0.045,0.079 -0.09,0.082 -0.022,0.002 -0.059,-0.005 -0.114,-0.019 -0.053,-0.014 -0.09,-0.021 -0.114,-0.02 l -0.05,-1.034 c 0.019,-0.028 0.027,-0.046 0.026,-0.055 l -0.031,-0.021 c 0.004,-0.044 0.005,-0.259 0.008,-0.65 10e-4,-0.263 0.01,-0.477 0.028,-0.638 -10e-4,0 0.073,-0.004 0.224,-0.015 0.094,-0.005 0.155,0.021 0.182,0.077 0,0.054 -0.005,0.143 -0.016,0.271 -0.009,0.114 -0.013,0.203 -0.011,0.264 0.004,0.079 0.017,0.147 0.037,0.209 0.082,-0.109 0.177,-0.167 0.283,-0.173 m 0.361,0.222 c 0.008,0.095 0.013,0.19 0.017,0.281 0.021,0.401 0.015,0.829 -0.018,1.284 -0.034,0.032 -0.088,0.039 -0.159,0.021 -0.073,-0.017 -0.125,-0.01 -0.157,0.02 -0.043,-0.055 -0.066,-0.15 -0.073,-0.289 -0.011,-0.202 -0.016,-0.308 -0.016,-0.316 -0.009,-0.505 0.041,-0.917 0.15,-1.229 0.123,0.034 0.209,0.11 0.256,0.228" /><path
           id="path172"
           inkscape:connector-curvature="0"
           d="m 78.95,21.813 c -0.016,0.032 -0.022,0.066 -0.021,0.103 0.002,0.036 0.002,0.07 0.005,0.105 -0.003,0.029 -0.012,0.058 -0.023,0.087 C 78.888,22.103 78.87,22.1 78.855,22.1 c -0.017,0 -0.034,0.008 -0.051,0.018 -0.017,0.013 -0.03,0.018 -0.041,0.018 -0.014,0.001 -0.034,-0.004 -0.059,-0.014 l -0.167,-0.245 c 0.006,0.072 0.023,0.135 0.05,0.189 0.012,0.028 0.027,0.057 0.039,0.086 -0.098,0.016 -0.153,0.018 -0.165,0.008 l -0.024,0.029 -0.057,-0.076 c -0.048,0.055 -0.057,0.137 -0.032,0.245 0.03,0.116 0.032,0.2 0.005,0.253 0.037,0.054 0.081,0.079 0.13,0.076 0.022,0 0.041,-0.008 0.057,-0.023 0.023,-0.061 0.047,-0.118 0.071,-0.178 0.037,-0.073 0.076,-0.109 0.118,-0.113 0.034,0 0.073,0.017 0.119,0.053 0.052,0.018 0.081,0.045 0.083,0.076 0.001,0.018 -0.012,0.05 -0.038,0.092 -0.027,0.045 -0.039,0.079 -0.037,0.102 0.002,0.011 0.002,0.018 0.006,0.026 -0.036,0.025 -0.066,0.063 -0.094,0.116 -0.027,0.053 -0.065,0.088 -0.109,0.107 -0.04,0.038 -0.077,0.057 -0.11,0.061 -0.027,0.001 -0.066,-0.02 -0.12,-0.062 -0.05,-0.043 -0.101,-0.061 -0.147,-0.059 -0.018,-0.041 -0.066,-0.089 -0.142,-0.141 -0.075,-0.053 -0.121,-0.108 -0.138,-0.168 0,0.005 -0.002,-0.014 -0.003,-0.057 -10e-4,-0.025 -0.013,-0.038 -0.032,-0.046 l 0.028,-0.026 c -0.038,0 -0.055,-0.021 -0.058,-0.062 0,-0.005 0,-0.014 -0.002,-0.029 0.002,-0.012 0.002,-0.022 0.002,-0.029 -10e-4,-0.03 -0.012,-0.049 -0.027,-0.06 l -0.008,-0.128 c -0.002,-0.065 -0.016,-0.11 -0.04,-0.138 0.025,-0.154 0.048,-0.306 0.071,-0.46 0.04,-0.178 0.098,-0.27 0.176,-0.273 0.012,0 0.023,10e-4 0.035,0.005 0.07,-0.069 0.153,-0.105 0.251,-0.111 0.109,-0.005 0.229,0.028 0.361,0.099 0.105,0.169 0.168,0.352 0.194,0.552 m -0.499,-0.399 -0.025,0.03 c -0.017,0.002 -0.036,-0.005 -0.059,-0.027 l 0.005,0.083 c -0.037,0.04 -0.051,0.102 -0.046,0.186 0.008,0.146 0.01,0.214 0.01,0.21 l 0.111,-0.001 c 0.052,-0.03 0.074,-0.079 0.07,-0.145 0,-0.034 -0.013,-0.088 -0.034,-0.167 C 78.46,21.507 78.45,21.45 78.451,21.414" /><polygon
           id="polygon174"
           points="79.889,25.55 79.797,25.461 79.905,25.521 80.27,24.563 80.15,24.523 79.783,25.482 " /><polygon
           id="polygon176"
           points="79.961,25.45 79.957,25.327 79.912,25.345 79.797,25.461 79.889,25.55 80.006,25.427 " /><polygon
           id="polygon178"
           points="80.956,25.359 80.84,25.318 80.893,25.279 79.957,25.327 79.961,25.45 80.897,25.403 " /><polygon
           id="polygon180"
           points="81.257,24.32 81.263,24.438 81.2,24.359 80.84,25.318 80.956,25.359 81.32,24.4 " /><polygon
           id="polygon182"
           points="80.278,24.385 80.371,24.468 80.326,24.492 81.263,24.438 81.257,24.32 80.324,24.363 " /><polygon
           id="polygon184"
           points="80.15,24.523 80.27,24.563 80.255,24.584 80.371,24.468 80.278,24.385 80.162,24.502 " /><polygon
           id="polygon186"
           points="80.93,25.284 80.866,25.399 81.072,25.514 81.163,25.471 81.041,25.432 81.046,25.434 81.13,25.398 " /><polygon
           id="polygon188"
           points="81.494,24.438 81.438,24.548 81.405,24.473 81.04,25.432 81.163,25.471 81.527,24.513 " /><polygon
           id="polygon190"
           points="81.2,24.359 81.32,24.4 81.23,24.439 81.438,24.547 81.494,24.438 81.293,24.326 " /><polygon
           id="polygon192"
           points="79.843,25.501 80.213,24.544 80.205,24.541 80.322,24.426 81.19,24.384 81.2,24.359 81.263,24.38 81.32,24.4 81.317,24.41 81.47,24.495 81.527,24.513 81.504,24.576 81.928,25.586 81.569,26.546 81.105,25.453 81.045,25.479 81.04,25.432 81.046,25.42 80.898,25.34 80.866,25.399 80.847,25.341 79.957,25.385 " /><polygon
           id="polygon194"
           points="81.165,25.428 81.045,25.477 81.511,26.573 81.628,26.567 81.505,26.526 81.513,26.528 81.63,26.522 " /><polygon
           id="polygon196"
           points="81.989,25.562 81.874,25.614 81.87,25.566 81.505,26.526 81.628,26.567 81.991,25.609 " /><polygon
           id="polygon198"
           points="81.405,24.473 81.527,24.513 81.409,24.518 81.874,25.614 81.989,25.562 81.522,24.468 " /><polygon
           id="polygon200"
           points="80.548,25.693 80.484,25.67 80.424,25.644 80.37,25.613 80.324,25.579 80.271,25.541 80.23,25.495 80.195,25.446 80.143,25.331 80.122,25.217 80.122,25.1 80.162,24.984 80.213,24.871 80.292,24.763 80.395,24.67 80.524,24.589 80.586,24.559 80.659,24.533 80.73,24.517 80.798,24.502 80.871,24.495 80.939,24.484 81.008,24.495 81.077,24.498 81.14,24.518 81.204,24.539 81.261,24.56 81.32,24.592 81.369,24.621 81.418,24.663 81.454,24.714 81.496,24.761 81.55,24.873 81.567,24.989 81.562,25.104 81.53,25.221 81.471,25.337 81.392,25.44 81.289,25.535 81.167,25.615 81.098,25.644 81.032,25.673 80.956,25.686 80.886,25.702 80.819,25.711 80.746,25.719 80.679,25.709 80.609,25.705 "
           style="fill:#ffffff" /><polygon
           id="polygon202"
           points="80.655,25.896 80.595,25.882 80.532,25.86 80.475,25.835 80.417,25.802 80.367,25.773 80.324,25.733 80.279,25.693 80.241,25.635 80.185,25.526 80.167,25.41 80.175,25.289 80.205,25.179 80.257,25.061 80.337,24.957 80.44,24.863 80.567,24.784 80.638,24.75 80.703,24.727 80.775,24.705 80.85,24.692 80.917,24.689 80.983,24.679 81.051,24.689 81.12,24.692 81.185,24.708 81.25,24.729 81.305,24.755 81.367,24.782 81.414,24.816 81.465,24.853 81.5,24.902 81.541,24.955 81.543,24.95 81.595,25.063 81.613,25.184 81.607,25.299 81.575,25.411 81.522,25.528 81.438,25.635 81.343,25.726 81.213,25.803 81.144,25.839 81.077,25.868 81.006,25.882 80.931,25.897 80.864,25.906 80.798,25.911 80.728,25.906 " /><polygon
           id="polygon204"
           points="80.63,26.009 80.566,25.988 80.511,25.962 80.45,25.93 80.402,25.901 80.353,25.857 80.317,25.814 80.273,25.762 80.221,25.654 80.202,25.538 80.209,25.424 80.241,25.305 80.292,25.188 80.373,25.079 80.479,24.994 80.603,24.914 80.673,24.878 80.74,24.849 80.809,24.833 80.885,24.821 80.952,24.811 81.018,24.806 81.093,24.812 81.155,24.821 81.22,24.835 81.284,24.857 81.346,24.884 81.4,24.914 81.448,24.943 81.5,24.981 81.534,25.03 81.575,25.082 81.63,25.191 81.646,25.313 81.641,25.427 81.611,25.538 81.551,25.654 81.471,25.762 81.377,25.852 81.248,25.933 81.184,25.968 81.111,25.996 81.04,26.011 80.966,26.025 80.898,26.033 80.832,26.038 80.763,26.033 80.689,26.022 "
           style="fill:#ffffff" /><polygon
           id="polygon206"
           points="80.74,26.219 80.675,26.204 80.611,26.183 80.554,26.157 80.495,26.125 80.448,26.089 80.403,26.055 80.359,26.009 80.32,25.956 80.273,25.844 80.248,25.727 80.254,25.613 80.286,25.495 80.344,25.385 80.424,25.277 80.526,25.182 80.65,25.102 80.717,25.073 80.785,25.044 80.86,25.03 80.93,25.014 80.996,25.005 81.069,25.002 81.137,25.008 81.201,25.01 81.266,25.023 81.33,25.046 81.392,25.073 81.447,25.102 81.497,25.14 81.544,25.174 81.586,25.221 81.618,25.279 81.621,25.271 81.673,25.386 81.695,25.501 81.695,25.617 81.654,25.733 81.605,25.846 81.517,25.95 81.421,26.049 81.292,26.127 81.23,26.157 81.157,26.184 81.086,26.2 81.018,26.214 80.944,26.222 80.878,26.233 80.809,26.222 " /><polygon
           id="polygon208"
           points="80.744,26.323 80.68,26.302 80.624,26.278 80.567,26.251 80.517,26.214 80.471,26.175 80.43,26.127 80.395,26.078 80.341,25.97 80.318,25.846 80.324,25.733 80.359,25.623 80.413,25.505 80.493,25.398 80.595,25.309 80.717,25.227 80.786,25.192 80.853,25.163 80.927,25.155 81,25.134 81.066,25.124 81.138,25.124 81.206,25.127 81.27,25.134 81.334,25.15 81.404,25.174 81.459,25.198 81.517,25.224 81.567,25.261 81.613,25.3 81.654,25.346 81.688,25.398 81.744,25.505 81.762,25.621 81.761,25.743 81.73,25.854 81.671,25.97 81.584,26.078 81.489,26.167 81.367,26.249 81.297,26.283 81.223,26.31 81.155,26.325 81.085,26.341 81.012,26.349 80.946,26.351 80.878,26.349 80.809,26.338 "
           style="fill:#ffffff" /><polygon
           id="polygon210"
           points="80.795,26.52 80.724,26.496 80.669,26.473 80.614,26.441 80.562,26.404 80.517,26.37 80.474,26.323 80.438,26.272 80.386,26.159 80.362,26.041 80.367,25.927 80.407,25.811 80.457,25.7 80.538,25.592 80.64,25.498 80.77,25.419 80.831,25.387 80.904,25.361 80.973,25.345 81.043,25.33 81.117,25.321 81.184,25.313 81.251,25.321 81.314,25.324 81.385,25.341 81.45,25.363 81.506,25.387 81.559,25.419 81.613,25.454 81.657,25.489 81.701,25.536 81.741,25.589 81.786,25.701 81.813,25.819 81.807,25.933 81.774,26.049 81.718,26.159 81.638,26.267 81.534,26.362 81.411,26.444 81.344,26.473 81.27,26.499 81.201,26.515 81.131,26.53 81.064,26.54 80.99,26.546 80.923,26.538 80.853,26.534 " /><polygon
           id="polygon212"
           points="75.487,24.091 75.363,24.115 75.37,24.079 75.002,25.044 75.118,25.082 75.486,24.118 " /><polygon
           id="polygon214"
           points="75.478,24.03 75.354,24.067 75.357,24.061 75.363,24.115 75.487,24.091 75.475,24.036 " /><polygon
           id="polygon216"
           points="75.354,24.067 75.478,24.03 75.462,23.975 75.341,24.011 " /><rect
           id="rect218"
           x="75.371002"
           y="23.903999"
           transform="matrix(0.2766,0.961,-0.961,0.2766,77.5714,-55.119)"
           width="0.054000001"
           height="0.126" /><polygon
           id="polygon220"
           points="75.432,23.875 75.313,23.904 75.313,23.904 75.327,23.961 75.447,23.924 75.434,23.867 " /><polygon
           id="polygon222"
           points="75.422,23.845 75.298,23.836 75.298,23.854 75.313,23.904 75.432,23.875 75.417,23.824 " /><polygon
           id="polygon224"
           points="75.298,23.836 75.422,23.845 75.424,23.802 75.303,23.779 75.418,23.817 75.42,23.812 75.298,23.791 " /><polygon
           id="polygon226"
           points="75.514,26.559 75.385,26.581 75.395,26.646 75.526,26.62 "
           style="fill:#4c4849" /><polygon
           id="polygon228"
           points="75.912,25.79 75.795,25.817 75.798,25.785 75.432,26.744 75.55,26.783 75.913,25.823 " /><polygon
           id="polygon230"
           points="75.785,25.748 75.795,25.817 75.912,25.79 75.902,25.723 75.779,25.747 " /><polygon
           id="polygon232"
           points="75.779,25.746 75.902,25.723 75.884,25.659 75.768,25.685 " /><polygon
           id="polygon234"
           points="75.88,25.601 75.752,25.615 75.755,25.623 75.768,25.685 75.884,25.66 75.875,25.592 " /><polygon
           id="polygon236"
           points="75.746,25.517 75.867,25.557 75.744,25.543 75.752,25.615 75.88,25.601 75.87,25.532 " /><path
           id="path238"
           inkscape:connector-curvature="0"
           d="m 75.004,24.853 -0.058,0.017 0.058,-0.017 z"
           style="fill:#4c4849" /><polygon
           id="polygon240"
           points="75.065,25.054 75.067,25.048 75.098,25.05 75.118,25.082 75.066,25.063 "
           style="fill:#4c4849" /><polygon
           id="polygon242"
           points="75.363,23.794 75.359,23.799 75.359,23.838 75.37,23.886 75.39,23.944 75.406,23.994 75.418,24.049 75.428,24.098 75.486,24.118 75.118,25.082 75.098,25.05 75.067,25.048 75.065,25.054 75.066,25.063 75.118,25.082 75.066,25.079 75.067,25.122 75.03,25.077 75,25.074 74.99,25.021 75.015,25.016 75.038,24.954 74.977,24.97 74.957,24.927 74.946,24.87 75.004,24.853 74.946,24.87 74.948,24.865 74.932,24.814 74.993,24.802 74.995,24.757 " /><polygon
           id="polygon244"
           points="75.066,25.122 75.063,25 77.75,24.911 77.818,24.916 77.83,24.918 77.895,24.934 77.902,24.937 77.97,24.961 78.038,24.988 78.043,24.991 78.107,25.032 78.118,25.034 78.17,25.077 78.185,25.089 78.22,25.134 78.224,25.141 78.25,25.182 78.25,25.195 78.134,25.23 78.115,25.2 78.113,25.206 78.083,25.163 78.083,25.163 78.041,25.132 78.05,25.141 77.986,25.106 77.986,25.105 77.918,25.077 77.861,25.057 77.795,25.043 77.806,25.048 77.746,25.04 77.746,25.034 " /><polygon
           id="polygon246"
           points="78.14,25.243 78.13,25.232 78.134,25.23 " /><polygon
           id="polygon248"
           points="79.686,27.45 79.566,27.486 79.566,27.447 79.198,28.413 79.32,28.454 79.686,27.488 " /><polygon
           id="polygon250"
           points="78.617,24.218 78.505,24.282 78.497,24.267 79.566,27.486 79.686,27.45 78.618,24.231 " /><polygon
           id="polygon252"
           points="78.505,24.282 78.617,24.217 78.59,24.175 78.585,24.175 78.478,24.248 78.484,24.25 78.481,24.241 " /><polygon
           id="polygon254"
           points="78.535,24.113 78.459,24.21 78.449,24.199 78.478,24.247 78.585,24.174 78.545,24.123 " /><polygon
           id="polygon256"
           points="78.475,24.066 78.416,24.182 78.406,24.173 78.459,24.21 78.535,24.113 78.484,24.075 " /><polygon
           id="polygon258"
           points="78.402,24.03 78.359,24.144 78.352,24.141 78.416,24.182 78.475,24.066 78.409,24.032 " /><polygon
           id="polygon260"
           points="78.359,24.144 78.402,24.03 78.335,24 78.328,23.999 78.287,24.12 78.297,24.117 78.283,24.118 " /><polygon
           id="polygon262"
           points="78.224,24.099 78.227,24.094 78.219,24.097 78.287,24.12 78.33,23.999 78.26,23.975 " /><polygon
           id="polygon264"
           points="78.183,23.957 78.173,24.082 78.163,24.079 78.224,24.099 78.26,23.975 78.187,23.959 " /><polygon
           id="polygon266"
           points="78.107,23.95 78.111,24.074 78.109,24.079 78.173,24.082 78.183,23.957 78.115,23.946 " /><polygon
           id="polygon268"
           points="78.111,24.074 78.107,23.95 75.428,24.04 75.37,24.079 75.486,24.118 75.491,24.119 75.426,24.161 " /><polygon
           id="polygon270"
           points="76.163,27.044 76.167,27.052 76.157,27.048 "
           style="fill:#4c4849" /><path
           id="path272"
           inkscape:connector-curvature="0"
           d="m 77.617,27.486 -0.012,0.129 0.012,-0.129 z"
           style="fill:#4c4849" /><path
           id="path274"
           inkscape:connector-curvature="0"
           d="m 75.395,26.646 0.011,0.063 0.023,0.065 0.029,0.048 0.164,0.087 0.164,0.087 0.158,0.084 0.159,0.079 0.007,0.002 0.162,0.074 0.161,0.074 0.177,0.07 0.177,0.066 0.006,0.002 0.189,0.051 0.189,0.05 0.005,0.002 0.209,0.03 0.215,0.034 0.005,0 0.234,0.015 0.008,-0.004 0.25,0.006 0.266,-0.008 0.281,-0.014 0.058,-0.039 0.364,-0.958 -0.06,-0.084 0.004,0.123 -0.02,-0.025 0.014,-0.035 -0.041,0.002 -0.018,-0.023 -0.008,0.023 -0.209,0.014 -0.272,0 -0.25,-0.007 -0.228,-0.01 -0.221,-0.03 -0.206,-0.035 -0.189,-0.05 -0.19,-0.05 -0.177,-0.067 -0.172,-0.063 -0.162,-0.074 -0.159,-0.079 -0.166,-0.081 -0.158,-0.086 -0.158,-0.086 -0.109,-0.058 0.002,-0.009 -0.056,-0.02 -0.017,-0.07 -0.012,-0.062 -0.005,-0.022 0.044,-0.094 -0.061,-0.02 -0.002,-0.002 -0.058,-0.018 -0.362,0.959 -0.005,0.031 0.009,0.067 0.007,0.075 0,0 z m 0.043,-0.15 0.003,0.01 -0.006,-0.002 0.003,-0.008 z" /><polygon
           id="polygon276"
           points="79.009,26.651 79.005,26.528 78.722,26.543 78.726,26.666 " /><rect
           id="rect278"
           x="79.086998"
           y="24.698"
           width="0.26499999"
           height="0.124" /><polygon
           id="polygon280"
           points="78.46,26.673 78.456,26.55 78.207,26.544 78.214,26.541 78.204,26.671 78.205,26.665 78.212,26.667 " /><polygon
           id="polygon282"
           points="77.986,26.528 77.966,26.65 77.971,26.651 78.204,26.671 78.214,26.541 77.983,26.527 " /><polygon
           id="polygon284"
           points="77.966,26.65 77.986,26.528 77.773,26.496 77.75,26.622 " /><polygon
           id="polygon286"
           points="77.565,26.465 77.538,26.584 77.544,26.586 77.75,26.622 77.773,26.496 77.559,26.463 " /><polygon
           id="polygon288"
           points="77.35,26.534 77.538,26.584 77.565,26.465 77.377,26.414 77.348,26.54 " /><polygon
           id="polygon290"
           points="77.193,26.366 77.152,26.488 77.157,26.489 77.348,26.54 77.377,26.414 77.186,26.365 " /><polygon
           id="polygon292"
           points="77.152,26.488 77.193,26.366 77.016,26.3 77.02,26.302 76.968,26.42 76.975,26.422 76.975,26.422 " /><polygon
           id="polygon294"
           points="76.968,26.42 77.02,26.302 76.851,26.233 76.799,26.351 " /><polygon
           id="polygon296"
           points="76.799,26.351 76.851,26.233 76.687,26.165 76.638,26.278 " /><polygon
           id="polygon298"
           points="76.638,26.278 76.687,26.165 76.521,26.084 76.527,26.085 76.47,26.202 76.471,26.196 76.475,26.204 " /><polygon
           id="polygon300"
           points="76.311,26.117 76.47,26.202 76.527,26.085 76.367,26.006 76.311,26.122 " /><polygon
           id="polygon302"
           points="76.153,26.033 76.311,26.122 76.367,26.006 76.209,25.922 76.148,26.03 " /><polygon
           id="polygon304"
           points="76.148,26.03 76.209,25.922 76.051,25.838 75.989,25.946 " /><polygon
           id="polygon306"
           points="75.798,25.785 75.913,25.823 75.824,25.859 75.989,25.946 76.051,25.838 75.886,25.75 " /><polygon
           id="polygon308"
           points="93.548,24.313 93.495,24.262 93.435,24.211 93.374,24.165 93.314,24.131 93.255,24.094 93.188,24.065 93.128,24.03 93.07,24.013 93.018,23.994 92.957,23.986 92.901,23.981 92.846,23.988 92.792,23.997 92.734,24.015 92.684,24.05 92.635,24.086 92.267,25.05 93.465,25.45 93.743,24.811 93.751,24.747 93.753,24.684 93.743,24.616 93.719,24.55 93.683,24.493 93.65,24.431 93.601,24.369 " /><polygon
           id="polygon310"
           points="93.528,25.477 93.411,25.419 93.486,25.386 92.289,24.987 92.248,25.108 93.446,25.509 " /><polygon
           id="polygon312"
           points="75.303,23.779 75.418,23.818 75.065,24.766 75.057,24.805 75.055,24.79 74.932,24.814 74.93,24.8 74.932,24.757 74.938,24.739 " /><polygon
           id="polygon314"
           points="80.783,27.038 80.805,27.026 80.783,27.039 "
           style="fill:#4c4849" /><path
           id="path316"
           inkscape:connector-curvature="0"
           d="m 74.977,24.97 0.014,0.057 0,-0.006 0.094,-0.021 -0.023,0.063 2.685,-0.088 0.064,10e-4 0.068,0.024 0.07,0.023 0.07,0.024 0.064,0.039 0.05,0.037 0.038,0.043 0.022,0.046 -0.063,0.018 1.069,3.218 0.061,0.002 0.003,0.039 0.096,0 0.09,-0.002 0.082,0.002 0.077,-0.013 0.076,-0.02 0.079,-0.038 0.07,-0.059 0.084,-0.082 0.003,-0.006 0.05,-0.066 0.055,-0.073 0.064,-0.075 0.044,-0.075 0.054,-0.089 0.059,-0.079 0.047,-0.086 0.062,-0.088 0.05,-0.073 0.071,-0.079 0.057,-0.077 0.069,-0.067 0.059,-0.063 0.063,-0.057 0.061,-0.05 0.072,-0.041 0.016,-0.008 -0.047,-0.044 0.047,0.044 0.071,-0.079 0.066,-0.061 0.057,-0.059 0.062,-0.05 0.059,-0.044 0.065,-0.036 0.056,-0.034 0.061,-0.03 0.069,-0.016 0.069,-0.029 0.069,-0.016 0.081,-0.012 0.089,-0.014 0.098,-0.007 0.106,-0.009 0.104,-0.004 0.006,0.002 11.588,-0.866 0.069,-0.009 0.061,-0.012 0.055,-0.013 0.057,-0.02 0.054,-0.026 0.056,-0.034 0.048,-0.043 0.052,-0.045 0.012,-0.017 0.203,-0.471 -0.105,-0.067 0.045,0.045 -0.008,0.005 -0.051,-0.036 -0.049,0.118 -0.034,0.02 -0.045,0.018 -0.052,0.021 -0.048,0.009 -0.061,0.012 -0.062,0.011 -11.592,0.864 -0.074,0.008 -0.072,0.002 -0.073,0.002 -0.075,0.013 -0.076,0 -0.069,0.01 -0.075,0.008 -0.065,0.01 -0.076,0.012 -0.068,0.011 -0.07,0.014 -0.077,0.02 -0.07,0.016 -0.072,0.027 -0.072,0.026 -0.07,0.035 -0.137,0.083 -0.139,0.127 -0.148,0.151 -0.14,0.171 -0.137,0.181 -0.118,0.16 -0.116,0.154 -0.096,0.116 -0.057,0.014 -0.047,0.01 -0.061,0.006 -0.056,0 -0.057,0 -0.051,-0.003 -0.062,-0.002 -0.055,-0.005 -1.064,-3.214 -0.024,-0.045 -0.037,-0.045 -0.051,-0.037 -0.07,-0.043 -0.067,-0.029 -0.071,-0.024 -0.065,-0.016 -0.064,-0.001 -2.683,0.082 -0.322,0.85 -0.003,-0.012 -0.125,0.036 z m 19.279,0.089 0.005,-0.008 0.044,0.043 -0.049,-0.035 z" /><polygon
           id="polygon318"
           points="94.13,25.079 94.087,25.105 94.045,25.121 94.002,25.134 93.951,25.149 93.898,25.157 93.837,25.163 93.85,25.295 93.92,25.281 93.983,25.269 94.038,25.255 94.096,25.234 94.152,25.21 94.206,25.177 94.25,25.14 94.305,25.094 94.214,25.005 94.171,25.049 " /><polygon
           id="polygon320"
           points="93.85,25.295 93.837,25.163 82.25,26.027 82.266,26.157 " /><polygon
           id="polygon322"
           points="81.226,26.188 81.148,26.214 81.078,26.249 81.13,26.362 81.197,26.334 81.263,26.31 81.343,26.286 81.408,26.262 81.479,26.241 81.546,26.23 81.614,26.221 81.688,26.208 81.75,26.196 81.822,26.194 81.895,26.185 81.969,26.179 82.041,26.171 82.107,26.167 82.186,26.162 82.266,26.157 82.25,26.027 82.176,26.035 82.104,26.043 82.027,26.043 81.953,26.05 81.883,26.054 81.813,26.07 81.741,26.07 81.662,26.078 81.592,26.092 81.522,26.106 81.448,26.121 81.371,26.141 81.305,26.163 " /><polygon
           id="polygon324"
           points="80.298,27.062 80.232,27.143 80.175,27.221 80.118,27.292 80.073,27.354 80.029,27.404 80.053,27.392 80.092,27.508 80.117,27.49 80.169,27.431 80.215,27.37 80.27,27.297 80.33,27.221 80.395,27.139 80.454,27.056 80.521,26.97 80.59,26.883 80.659,26.791 80.73,26.713 80.801,26.637 80.871,26.559 80.93,26.495 81.006,26.444 81.069,26.394 81.13,26.362 81.078,26.249 80.998,26.294 80.93,26.341 80.85,26.404 80.778,26.475 80.707,26.549 80.638,26.622 80.561,26.719 80.493,26.805 80.426,26.893 80.357,26.979 " /><polygon
           id="polygon326"
           points="77.87,24.026 77.871,24.02 78.111,24.017 78.13,24.017 76.077,23.33 75.973,23.392 "
           style="fill:#ffffff" /><polygon
           id="polygon328"
           points="75.96,23.388 75.973,23.392 77.87,24.026 77.871,24.02 75.428,24.098 75.418,24.049 75.406,23.994 75.39,23.944 75.37,23.886 75.359,23.838 75.359,23.799 75.375,23.753 75.418,23.721 75.518,23.651 75.631,23.587 75.741,23.521 75.855,23.457 "
           style="fill:#ffffff" /><polygon
           id="polygon330"
           points="76.661,26.221 76.502,26.143 76.336,26.062 76.178,25.976 76.019,25.89 75.856,25.803 75.84,25.735 75.828,25.673 75.814,25.603 75.804,25.535 76.385,25.505 78.05,25.411 78.702,25.674 78.932,26.357 79.002,26.591 78.727,26.609 78.456,26.609 78.207,26.602 77.979,26.591 77.757,26.561 77.551,26.526 77.362,26.475 77.172,26.426 76.995,26.357 76.823,26.295 "
           style="fill:#ffffff" /><polygon
           id="polygon332"
           points="80.818,25.852 80.886,25.74 80.671,25.611 80.693,25.644 80.581,25.696 80.587,25.711 80.603,25.723 80.581,25.696 80.603,25.723 "
           style="fill:#ffffff" /><polygon
           id="polygon334"
           points="78.944,26.61 79.065,26.573 78.761,25.654 78.728,25.619 78.761,25.654 78.751,25.626 78.728,25.619 78.677,25.735 78.64,25.69 "
           style="fill:#ffffff" /><polygon
           id="polygon336"
           points="78.677,25.735 78.728,25.619 78.079,25.35 78.053,25.348 78.079,25.35 78.066,25.345 78.053,25.348 78.057,25.471 78.026,25.467 "
           style="fill:#ffffff" /><polygon
           id="polygon338"
           points="78.057,25.471 78.053,25.348 75.805,25.479 75.744,25.543 75.805,25.479 75.732,25.479 75.744,25.543 75.87,25.532 75.808,25.601 "
           style="fill:#ffffff" /><polygon
           id="polygon340"
           points="75.824,25.859 75.795,25.817 75.804,25.844 75.824,25.859 75.886,25.75 75.912,25.79 75.911,25.759 75.902,25.723 75.9,25.69 75.89,25.662 75.888,25.628 75.88,25.593 75.871,25.564 75.87,25.532 75.744,25.543 75.744,25.579 75.75,25.621 75.759,25.65 75.762,25.682 75.771,25.711 75.779,25.747 75.791,25.782 75.795,25.817 "
           style="fill:#ffffff" /><polygon
           id="polygon342"
           points="76.975,26.422 77.152,26.488 77.348,26.54 77.538,26.584 77.75,26.622 77.971,26.651 78.204,26.671 78.46,26.673 78.726,26.665 79.014,26.653 79.065,26.573 79.014,26.653 79.095,26.646 79.065,26.573 78.944,26.61 78.947,26.605 78.998,26.526 78.722,26.543 78.456,26.55 78.214,26.541 77.983,26.527 77.773,26.496 77.565,26.465 77.377,26.414 77.193,26.366 77.016,26.3 76.851,26.233 76.687,26.165 76.527,26.085 76.367,26.006 76.209,25.922 76.051,25.838 75.886,25.75 75.824,25.859 75.989,25.946 76.148,26.03 76.311,26.122 76.47,26.202 76.638,26.278 76.799,26.351 "
           style="fill:#ffffff" /><polygon
           id="polygon344"
           points="82.089,26.167 82.176,26.159 82.266,26.157 82.25,26.027 82.167,26.033 82.071,26.046 81.986,26.049 81.893,26.057 81.805,26.072 81.711,26.085 81.617,26.1 81.526,26.121 81.434,26.143 81.355,26.167 81.27,26.196 81.186,26.227 81.118,26.262 81.035,26.299 80.967,26.346 80.906,26.396 80.983,26.494 81.041,26.449 81.101,26.41 81.165,26.374 81.238,26.346 81.309,26.306 81.385,26.287 81.477,26.266 81.557,26.241 81.643,26.23 81.72,26.212 81.813,26.204 81.902,26.188 81.995,26.175 "
           style="fill:#ffffff" /><polygon
           id="polygon346"
           points="82.25,26.027 82.266,26.157 93.85,25.295 93.837,25.163 "
           style="fill:#ffffff" /><polygon
           id="polygon348"
           points="94.256,24.523 94.206,24.443 94.156,24.382 94.055,24.456 94.102,24.523 94.153,24.586 94.175,24.65 94.214,24.716 94.231,24.773 94.237,24.833 94.24,24.884 94.235,24.934 94.222,24.976 94.202,25.014 94.178,25.05 94.133,25.087 94.086,25.111 94.013,25.137 93.936,25.157 93.837,25.163 93.85,25.295 93.956,25.286 94.05,25.259 94.131,25.228 94.202,25.187 94.269,25.145 94.314,25.084 94.338,25.027 94.362,24.957 94.361,24.886 94.366,24.817 94.35,24.747 94.325,24.668 94.295,24.601 "
           style="fill:#ffffff" /><polygon
           id="polygon350"
           points="92.905,23.681 92.779,23.67 92.668,23.672 92.673,23.796 92.777,23.792 92.883,23.802 92.99,23.826 93.096,23.841 93.194,23.873 93.292,23.906 93.386,23.95 93.475,23.994 93.567,24.044 93.653,24.097 93.743,24.153 93.809,24.207 93.878,24.269 93.947,24.336 94.002,24.4 94.055,24.456 94.156,24.382 94.096,24.31 94.028,24.241 93.962,24.175 93.886,24.111 93.804,24.052 93.72,23.991 93.636,23.936 93.539,23.879 93.44,23.834 93.337,23.792 93.232,23.757 93.121,23.719 93.014,23.698 "
           style="fill:#ffffff" /><polygon
           id="polygon352"
           points="92.673,23.796 92.668,23.672 82.421,24.028 82.42,24.15 "
           style="fill:#ffffff" /><polygon
           id="polygon354"
           points="81.134,23.861 81.027,23.832 80.939,23.81 80.84,23.775 80.801,23.898 80.802,23.891 80.898,23.93 81.001,23.951 81.1,23.983 81.201,24.005 81.309,24.028 81.409,24.056 81.52,24.073 81.618,24.086 81.72,24.109 81.827,24.118 81.93,24.134 82.032,24.136 82.131,24.15 82.235,24.144 82.33,24.15 82.42,24.15 82.421,24.028 82.326,24.028 82.232,24.021 82.143,24.018 82.041,24.01 81.943,24.002 81.841,23.994 81.744,23.981 81.638,23.965 81.538,23.944 81.44,23.93 81.338,23.902 81.234,23.888 "
           style="fill:#ffffff" /><polygon
           id="polygon356"
           points="77.327,22.815 77.338,22.94 77.346,22.943 77.52,22.918 77.684,22.903 77.843,22.889 77.987,22.882 78.126,22.874 78.248,22.891 78.376,22.895 78.482,22.905 78.592,22.921 78.693,22.943 78.79,22.964 78.878,22.991 78.97,23.021 79.043,23.054 79.134,23.09 79.205,23.127 79.289,23.166 79.371,23.209 79.451,23.254 79.534,23.301 79.614,23.347 79.698,23.401 79.782,23.441 79.873,23.499 79.973,23.543 80.07,23.602 80.177,23.643 80.282,23.699 80.399,23.751 80.526,23.794 80.661,23.851 80.801,23.898 80.84,23.775 80.702,23.73 80.565,23.678 80.45,23.634 80.332,23.587 80.222,23.53 80.127,23.485 80.03,23.427 79.936,23.384 79.844,23.333 79.757,23.285 79.676,23.24 79.59,23.185 79.511,23.137 79.427,23.098 79.344,23.057 79.269,23.013 79.186,22.971 79.095,22.934 79.011,22.901 78.918,22.87 78.818,22.837 78.717,22.817 78.613,22.801 78.498,22.775 78.382,22.761 78.26,22.76 78.118,22.759 77.985,22.759 77.828,22.764 77.67,22.774 77.502,22.795 "
           style="fill:#ffffff" /><polygon
           id="polygon358"
           points="75.709,23.465 75.598,23.53 75.491,23.599 75.386,23.666 75.446,23.775 75.45,23.779 75.551,23.708 75.664,23.643 75.776,23.578 75.888,23.506 75.993,23.443 76.112,23.38 76.221,23.321 76.336,23.27 76.457,23.213 76.579,23.156 76.698,23.105 76.82,23.064 76.953,23.031 77.075,22.996 77.209,22.962 77.338,22.94 77.327,22.817 77.183,22.846 77.047,22.869 76.913,22.907 76.783,22.943 76.657,22.997 76.526,23.043 76.406,23.093 76.283,23.15 76.162,23.21 76.044,23.274 75.934,23.334 75.822,23.398 "
           style="fill:#ffffff" /><polygon
           id="polygon360"
           points="75.426,24.161 75.366,24.11 75.367,24.161 75.426,24.161 75.428,24.04 75.493,24.094 75.475,24.036 75.462,23.975 75.447,23.926 75.434,23.867 75.426,23.834 75.42,23.812 75.43,23.783 75.446,23.775 75.386,23.666 75.33,23.717 75.301,23.786 75.293,23.846 75.313,23.904 75.327,23.961 75.341,24.013 75.357,24.061 75.366,24.11 "
           style="fill:#ffffff" /><polygon
           id="polygon362"
           points="80.162,24.501 80.163,24.496 80.163,24.502 "
           style="fill:#ffffff" /><polygon
           id="polygon364"
           points="80.146,24.566 80.134,24.525 80.162,24.502 "
           style="fill:#ffffff" /><polygon
           id="polygon366"
           points="81.861,25.261 83.975,25.966 83.746,25.982 83.744,25.986 81.909,25.374 "
           style="fill:#ffffff" /><path
           id="path368"
           inkscape:connector-curvature="0"
           d="m 75.426,24.161 2.685,-0.087 0.057,0.005 0.051,0.017 0.068,0.024 0.065,0.021 0.057,0.04 0.043,0.026 0.025,0.039 0.019,0.021 1.069,3.219 0.016,0.05 0.05,-0.002 0.054,-0.008 0.062,0.008 0.075,0.006 0.071,-0.002 0.07,0.002 0.063,-0.017 0.07,-0.021 0.059,-0.038 0.069,-0.073 0.057,-0.076 0.053,-0.066 0.054,-0.066 0.046,-0.062 0.045,-0.057 0.039,-0.058 0.046,-0.061 0.039,-0.058 0.045,-0.056 0.045,-0.056 0.049,-0.049 0.05,-0.054 0.056,-0.057 0.059,-0.059 0.073,-0.065 -0.039,-0.05 0.058,-0.048 0.066,-0.043 0.075,-0.033 0.069,-0.034 0.076,-0.034 0.084,-0.024 0.087,-0.029 0.084,-0.022 0.082,-0.012 0.088,-0.016 0.094,-0.014 0.088,-0.016 0.093,-0.008 0.093,-0.007 0.086,-0.009 0.086,-0.005 1.488,-0.107 -1.835,-0.613 -0.048,-0.113 2.114,0.705 9.873,-0.738 0.183,-0.03 0.136,-0.063 0.096,-0.089 0.033,-0.106 0,-0.116 0.002,-0.005 -0.033,-0.134 -0.065,-0.13 L 94.099,24.406 94.044,24.343 93.983,24.277 93.914,24.21 93.844,24.153 93.768,24.09 93.684,24.035 93.593,23.978 93.502,23.923 93.41,23.89 93.315,23.845 93.21,23.811 93.099,23.775 92.997,23.76 l -0.11,-0.023 -0.112,-0.012 -0.111,0.002 -1.489,0.055 -8.757,0.3 -0.096,0 -0.09,10e-4 L 82.13,24.082 82.032,24.068 81.932,24.06 81.83,24.052 81.732,24.038 81.628,24.022 81.524,24.008 81.421,23.987 81.318,23.965 81.216,23.944 81.111,23.915 81.009,23.887 80.915,23.864 80.817,23.83 80.679,23.784 80.541,23.733 80.422,23.686 80.303,23.641 80.198,23.586 80.098,23.54 79.993,23.486 79.898,23.441 79.809,23.386 79.727,23.339 79.641,23.291 79.559,23.245 79.472,23.197 79.39,23.15 79.313,23.113 79.231,23.066 79.148,23.025 79.065,22.991 78.983,22.963 78.891,22.933 78.792,22.9 78.699,22.874 78.595,22.86 78.484,22.842 78.372,22.83 l -0.125,-0.01 -0.133,-0.005 -0.136,0.005 -0.145,0.002 -0.159,0.018 -0.166,0.016 -0.181,0.023 -0.136,0.018 -0.133,0.031 -0.133,0.034 -0.124,0.043 -0.129,0.045 -0.127,0.05 -0.114,0.054 -0.121,0.057 -0.116,0.058 -0.118,0.063 1.873,0.626 -2.521,0.083 -0.002,0.12 0,0 z m 17.172,0.054 0.01,-0.075 0.027,-0.055 0.046,-0.043 0.068,-0.034 0.082,-0.012 0.044,0.002 0.05,0.002 0.048,0.011 0.049,0.009 0.059,0.019 0.053,0.018 0.054,0.025 0.059,0.034 0.05,0.022 0.052,0.037 0.046,0.034 0.05,0.043 0.052,0.037 0.036,0.045 0.045,0.04 0.038,0.044 0.067,0.088 0.036,0.088 0.016,0.043 0.011,0.03 -0.006,0.076 -0.014,0.058 -0.043,0.051 -0.062,0.03 -0.083,0.018 -0.047,0.002 -0.047,-0.009 -0.057,-0.007 -0.058,-0.014 -0.053,-0.016 -0.057,-0.02 -0.061,-0.025 -0.055,-0.032 -0.054,-0.023 -0.061,-0.034 -0.053,-0.035 -0.049,-0.043 -0.046,-0.034 -0.049,-0.048 -0.043,-0.048 -0.036,-0.045 -0.06,-0.089 -0.034,-0.089 -0.011,-0.03 -0.009,-0.046 z m -10.672,1.364 0,0 -0.043,-0.034 0.043,0.034 z m -1.644,-1.022 0.068,-0.067 0.881,-0.051 0.186,0.098 0.443,1.041 -0.068,0.088 -0.948,0.067 0.043,0.008 -0.032,0.053 -0.005,0 -0.21,-0.122 -0.002,-0.002 0.055,-0.025 -0.411,-1.088 z"
           style="fill:#ffffff" /><polygon
           id="polygon370"
           points="91.984,24.8 92.002,24.884 91.948,24.853 91.938,24.805 92.015,24.785 92.03,24.835 " /><polygon
           id="polygon372"
           points="92.107,24.822 92.094,24.837 92.075,24.857 92.051,24.868 92.028,24.88 92.002,24.884 91.984,24.8 91.995,24.805 92.013,24.79 92.034,24.785 92.036,24.779 92.032,24.79 92.103,24.829 " /><polygon
           id="polygon374"
           points="92.069,24.547 92.106,24.611 92.127,24.682 92.127,24.757 92.103,24.829 92.032,24.79 92.048,24.745 92.044,24.698 92.03,24.641 91.995,24.592 91.957,24.535 91.915,24.489 91.867,24.439 91.83,24.396 91.836,24.398 91.888,24.338 91.894,24.339 91.93,24.384 91.979,24.433 92.026,24.486 " /><polygon
           id="polygon376"
           points="91.273,24.134 91.373,24.134 91.462,24.15 91.55,24.16 91.637,24.183 91.719,24.223 91.806,24.273 91.888,24.338 91.836,24.398 91.757,24.344 91.682,24.302 91.611,24.266 91.533,24.244 91.448,24.228 91.362,24.22 91.273,24.217 91.182,24.218 91.183,24.213 91.17,24.136 91.179,24.134 91.171,24.131 " /><polygon
           id="polygon378"
           points="83.728,24.566 83.651,24.529 83.684,24.505 91.17,24.136 91.183,24.213 83.696,24.586 " /><polygon
           id="polygon380"
           points="83.468,24.576 83.509,24.55 83.56,24.53 83.618,24.51 83.684,24.507 83.696,24.586 83.634,24.6 83.578,24.613 83.55,24.617 83.524,24.639 83.512,24.661 83.489,24.686 83.479,24.721 83.479,24.772 83.398,24.745 83.473,24.789 83.393,24.763 83.398,24.708 83.414,24.661 83.438,24.611 " /><polygon
           id="polygon382"
           points="91.91,24.486 91.979,24.568 92.028,24.649 92.054,24.708 92.054,24.747 92.036,24.779 91.988,24.808 91.982,24.811 91.979,24.799 91.953,24.757 91.932,24.727 91.905,24.69 91.883,24.657 91.854,24.629 91.828,24.595 91.798,24.566 91.773,24.531 91.695,24.473 91.616,24.42 91.536,24.388 91.454,24.366 91.367,24.357 91.278,24.339 91.188,24.336 91.091,24.335 83.602,24.711 83.664,24.595 83.688,24.592 83.696,24.586 91.183,24.213 91.309,24.221 91.413,24.218 91.512,24.231 91.602,24.25 91.685,24.289 91.761,24.334 91.83,24.396 " /><path
           id="path384"
           inkscape:connector-curvature="0"
           d="m 83.393,24.763 0.008,0.073 0.016,0.05 0.021,0.071 0.05,0.082 0.06,0.066 0.08,0.071 0.094,0.063 0.106,0.049 0.112,0.03 0.135,0 7.694,-0.389 0.146,-0.016 0.104,-0.024 0.075,-0.053 0.042,-0.068 -0.002,-0.071 -0.028,-0.086 -0.056,-0.084 -0.078,-0.095 -0.079,-0.092 -0.084,-0.073 -0.091,-0.057 -0.089,-0.043 -0.096,-0.018 -0.115,-0.021 -0.117,0 -0.13,0.008 -7.486,0.371 0,10e-4 -0.081,0.004 -0.08,0.03 -0.055,0.046 -0.038,0.053 -0.023,0.055 -0.015,0.067 0,0 z m 0.086,0.009 0.01,-0.049 0.004,-0.006 0.005,-10e-4 0.037,0 0.066,-0.005 0.062,-0.117 0.024,-0.002 0.008,-0.006 7.487,-0.373 0.125,0.009 0.104,-0.004 0.099,0.014 0.09,0.018 0.083,0.04 0.076,0.045 0.07,0.062 0.079,0.09 0.07,0.082 0.05,0.08 0.026,0.059 0,0.039 -0.018,0.032 -0.048,0.03 -0.006,0.002 -0.084,0.019 -0.127,0.015 -7.696,0.398 -0.006,-0.003 -0.108,-0.004 -0.107,-0.03 -0.094,-0.043 -0.082,-0.048 -0.066,-0.066 -0.049,-0.067 -0.043,-0.066 -0.033,-0.055 -0.005,-0.043 -0.003,-0.046 0,0 z" /></g></g></g><g
     inkscape:groupmode="layer"
     id="layer2"
     inkscape:label="cut" /><g
     inkscape:groupmode="layer"
     id="layer3"
     inkscape:label="back" /><g
     inkscape:groupmode="layer"
     id="layer4"
     inkscape:label="face"><g
       id="g4375"
       transform="translate(35.8008,4.7245957)"
       style="opacity:0.95999995"><text
         y="353.78699"
         x="48.506165"
         style="font-size:8.92858124px;font-family:Arial-BoldMT;display:inline;fill:#231f20"
         id="text67"
         font-size="7"
         transform="translate(0,94.500011)">size.</text>
<path
         d="m 155.38726,389.87161 -22.38749,38.77626 -44.774966,0 -22.387486,-38.77626 22.387486,-38.77626 44.774966,0 z"
         inkscape:randomized="0"
         inkscape:rounded="-3.46945e-18"
         inkscape:flatsided="true"
         sodipodi:arg2="0.52359878"
         sodipodi:arg1="0"
         sodipodi:r2="41.36668"
         sodipodi:r1="44.774971"
         sodipodi:cy="389.87161"
         sodipodi:cx="110.61229"
         sodipodi:sides="6"
         id="path4323"
         style="opacity:1;fill:#c8c8c8;fill-opacity:1;fill-rule:nonzero;stroke:#000000;stroke-width:0.45006269;stroke-linecap:butt;stroke-linejoin:round;stroke-miterlimit:4;stroke-dasharray:none;stroke-dashoffset:0;stroke-opacity:1"
         sodipodi:type="star" /><g
         transform="translate(-35.637711,-25.62712)"
         inkscape:tile-y0="318.52423"
         inkscape:tile-x0="112.66877"
         inkscape:tile-h="87.246583"
         inkscape:tile-w="67.16246"
         inkscape:tile-cy="362.14752"
         inkscape:tile-cx="146.25"
         id="g4360"><path
           d="m 179.83123,347.60645 -16.79061,29.08219 -33.58124,0 -16.79061,-29.08219 16.79061,-29.0822 33.58124,0 z"
           inkscape:randomized="0"
           inkscape:rounded="-3.46945e-18"
           inkscape:flatsided="true"
           sodipodi:arg2="0.52359878"
           sodipodi:arg1="0"
           sodipodi:r2="31.025009"
           sodipodi:r1="33.58123"
           sodipodi:cy="347.60645"
           sodipodi:cx="146.25"
           sodipodi:sides="6"
           id="path4356"
           style="opacity:1;fill:#b4b4b4;fill-opacity:1;fill-rule:nonzero;stroke:none;stroke-width:0.33754703;stroke-linecap:butt;stroke-linejoin:round;stroke-miterlimit:4;stroke-dasharray:none;stroke-dashoffset:0;stroke-opacity:1"
           sodipodi:type="star" /><path
           sodipodi:type="star"
           style="opacity:1;fill:#b4b4b4;fill-opacity:1;fill-rule:nonzero;stroke:none;stroke-width:0.16877352;stroke-linecap:butt;stroke-linejoin:round;stroke-miterlimit:4;stroke-dasharray:none;stroke-dashoffset:0;stroke-opacity:1"
           id="path4358"
           sodipodi:sides="6"
           sodipodi:cx="146.25"
           sodipodi:cy="391.22974"
           sodipodi:r1="16.790615"
           sodipodi:r2="15.512505"
           sodipodi:arg1="0"
           sodipodi:arg2="0.52359878"
           inkscape:flatsided="true"
           inkscape:rounded="-3.46945e-18"
           inkscape:randomized="0"
           d="m 163.04062,391.22974 -8.39531,14.5411 -16.79062,0 -8.39531,-14.5411 8.39531,-14.5411 16.79062,0 z" /></g><use
         height="100%"
         width="100%"
         id="use4364"
         xlink:href="#g4360"
         inkscape:tiled-clone-of="#g4360"
         y="0"
         x="0" /><use
         height="100%"
         width="100%"
         id="use4366"
         transform="matrix(-0.5,0.8660254,-0.8660254,-0.5,502.69302,490.67398)"
         xlink:href="#g4360"
         inkscape:tiled-clone-of="#g4360"
         y="0"
         x="0" /><use
         height="100%"
         width="100%"
         id="use4368"
         transform="matrix(-0.5,-0.8660254,0.8660254,-0.5,-171.18233,681.25904)"
         xlink:href="#g4360"
         inkscape:tiled-clone-of="#g4360"
         y="0"
         x="0" /></g><use
       x="0"
       y="0"
       xlink:href="#g4375"
       id="use4389"
       transform="translate(-4.5e-6,-142.29616)"
       width="100%"
       height="100%" /><use
       x="0"
       y="0"
       xlink:href="#g4375"
       id="use4391"
       transform="translate(0.56628016,-284.5923)"
       width="100%"
       height="100%" /></g></svg>