<svg xmlns="http://www.w3.org/2000/svg" xmlns:xlink="http://www.w3.org/1999/xlink" version="1.1" x="0px" y="0px" viewBox="0 0 100 125" enable-background="new 0 0 100 100" xml:space="preserve"><path d="M83,66.1c0-6.9-2-12.3-6-16c-0.1-0.1-0.2-0.1-0.3-0.2l-0.2-2.9L76.3,50c-0.1,0-0.2,0.1-0.2,0.1c-1.7,1.6-3.1,3.5-4.1,5.8  l-10.4-3.7c0.6-3.2,1-6.6,1-9.5c0-8.2-4.5-16.8-12.8-25.7l-0.5-6.9L48.7,17c-8.4,8.9-12.9,17.5-12.9,25.8c0,2.9,0.4,6.2,1,9.4L26,56  c-1-2.2-2.3-4.2-4.1-5.8c-0.1-0.1-0.2-0.1-0.2-0.1l-0.2-2.9L21.3,50c-0.1,0-0.2,0.1-0.3,0.2c-4,3.7-6,9-6,16c0,1.2,1,2.4,2.5,3.1  l1.3,11.6c0,0,0,0.1,0,0.1c0.2,0.7,0.7,0.8,0.9,0.8c0,0,0,0,0,0c0.2,0,0.7-0.1,0.9-0.8l0.8-3.1l0.8,3.1c0.2,0.7,0.7,0.8,0.9,0.8  c0,0,0,0,0,0c0.2,0,0.7-0.1,0.9-0.8c0,0,0-0.1,0-0.1l1.3-11.6c1.5-0.7,2.5-1.9,2.5-3.1c0-3.2-0.5-6.1-1.3-8.6L37.2,54  c0.9,3.7,2.1,7,3.5,9H39v1.8c0,0.3,0.2,0.2,0.5,0.2h3.9l2.5,21.6c0,0,0,0.2,0,0.2c0.2,0.8,0.7,0.9,0.9,0.9c0.2,0,0.7-0.1,0.9-0.9  l1.2-4.5l1.2,4.5c0.2,0.8,0.7,0.9,0.9,0.9c0,0,0,0,0,0c0.2,0,0.7-0.1,0.9-0.9c0,0,0-0.2,0-0.3L54.6,65h3.9c0.3,0,0.5,0.1,0.5-0.2V63  h-1.3c1.4-2,2.6-5.3,3.4-8.9l10.1,3.5C70.4,60.2,70,63,70,66.2c0,1.3,1.1,2.5,2.8,3.2l1.3,11.5c0,0,0,0.1,0,0.1  c0.2,0.7,0.7,0.8,0.9,0.8c0.2,0,0.7-0.1,0.9-0.8l0.8-3.1l0.8,3.1c0.2,0.7,0.7,0.8,0.9,0.8c0.2,0,0.7-0.1,0.9-0.8c0,0,0-0.1,0-0.1  l1.3-11.7C82.1,68.4,83,67.3,83,66.1z M23,77.7l-0.8-2.9c-0.1-0.3-0.4-0.6-0.7-0.6s-0.6,0.2-0.7,0.6L20,77.7l-0.9-7.9  c0.8,0.2,1.6,0.3,2.4,0.3c0,0,0,0,0,0c0.8,0,1.6-0.1,2.4-0.3L23,77.7z M51,83.6l-1.2-4.4c-0.1-0.3-0.4-0.5-0.7-0.5s-0.6,0.2-0.7,0.6  l-1.2,4.4L45,65h8.1L51,83.6z M49.1,31.8l0.9,8.2l3-1.9l-3.9,14.2l-0.6-8.8l-3,1.6L49.1,31.8z M78.2,77.7l-0.8-2.9  c-0.1-0.3-0.4-0.6-0.7-0.6s-0.6,0.2-0.7,0.6l-0.8,2.9l-0.9-7.8c0.7,0.2,1.4,0.2,2.2,0.2h0c0.9,0,1.8-0.1,2.7-0.4L78.2,77.7z"/><text x="0" y="115" fill="#000000" font-size="5px" font-weight="bold" font-family="'Helvetica Neue', Helvetica, Arial-Unicode, Arial, Sans-serif">Created by Christelle Mozzati</text><text x="0" y="120" fill="#000000" font-size="5px" font-weight="bold" font-family="'Helvetica Neue', Helvetica, Arial-Unicode, Arial, Sans-serif">from the Noun Project</text></svg>