<svg xmlns="http://www.w3.org/2000/svg" xmlns:xlink="http://www.w3.org/1999/xlink" version="1.1" x="0px" y="0px" viewBox="0 0 100 125" enable-background="new 0 0 100 100" xml:space="preserve"><g><rect x="30.822" y="44.879" fill="none" stroke="#000000" stroke-miterlimit="10" width="38.111" height="18.572"/><rect x="46.879" y="23.212" fill="none" stroke="#000000" stroke-miterlimit="10" width="5.417" height="1.548"/><rect x="47.653" y="21.045" fill="none" stroke="#000000" stroke-miterlimit="10" width="3.869" height="2.013"/><rect x="46.492" y="19.498" fill="none" stroke="#000000" stroke-miterlimit="10" width="6.19" height="1.547"/><rect x="48.04" y="17.95" fill="none" stroke="#000000" stroke-miterlimit="10" width="3.095" height="1.548"/><path fill="none" stroke="#000000" stroke-miterlimit="10" d="M53.457,25.895V24.76h-7.738v1.129   c1.547-0.24,2.575-0.367,3.855-0.367C50.863,25.522,51.909,25.651,53.457,25.895z"/><path fill="none" stroke="#000000" stroke-miterlimit="10" d="M63.517,31.074v2.198h-3.869v-5.087   c-2.321-1.078-3.84-1.862-5.978-2.291c-1.218-0.244-2.484-0.372-3.774-0.372c-1.28,0-2.717,0.126-3.926,0.367   c-1.95,0.388-4.12,1.072-5.668,2.005v5.377h-3.869v-2.685c-3.096,3.482-5.61,8.875-5.61,14.292h38.13   C68.952,39.463,66.612,34.526,63.517,31.074z"/><polygon fill="none" stroke="#000000" stroke-miterlimit="10" points="59.647,21.664 59.647,28.185 59.647,33.272 63.517,33.272    63.517,31.074 63.517,21.664  "/><polygon fill="none" stroke="#000000" stroke-miterlimit="10" points="36.433,21.664 36.433,30.587 36.433,33.272 40.302,33.272    40.302,27.895 40.302,21.664  "/><path fill="none" stroke="#000000" stroke-miterlimit="10" d="M68.952,63.452h-38.13c0,6.191,3.005,11.607,7.648,14.703h22.833   C65.948,75.059,68.952,69.643,68.952,63.452z"/><rect x="38.471" y="78.155" fill="none" stroke="#000000" stroke-miterlimit="10" width="22.833" height="3.095"/><path d="M51.135,17.95v1.548h1.548v1.547h-1.16v2.167h0.773v1.548h1.161v1.098c0.07,0.013,0.143,0.023,0.213,0.037   c2.138,0.428,3.656,1.213,5.978,2.291v-6.521h3.869v9.41c3.096,3.452,5.436,8.389,5.436,13.805h-0.019v18.572h0.019   c0,6.191-3.004,11.607-7.648,14.703v3.095H38.471v-3.095c-4.644-3.096-7.648-8.512-7.648-14.703V44.879   c0-5.417,2.515-10.81,5.61-14.292v-8.923h3.869v6.23c1.548-0.934,3.466-1.618,5.417-2.005V24.76h1.16v-1.548h0.774v-2.167h-1.161   v-1.547h1.548V17.95H51.135 M53.135,15.95h-2H48.04h-2v1.548h-1.548v2v1.547v1.715h-0.773v1.551   c-0.484,0.135-0.957,0.285-1.417,0.45v-3.097v-2h-2h-3.869h-2v2v8.184c-3.475,4.196-5.61,9.885-5.61,15.032v18.572   c0,6.304,2.84,12.105,7.648,15.735v2.063v2h2h22.833h2v-2v-2.063c4.809-3.629,7.648-9.43,7.648-15.735v-2h-0.019V46.879l0.019-2   c0-5.16-1.973-10.419-5.436-14.551v-8.664v-2h-2h-3.869h-2v2v3.406c-0.717-0.304-1.427-0.571-2.19-0.794V22.76h-0.774v-1.715   v-1.547v-2h-1.548V15.95L53.135,15.95z"/></g><text x="0" y="115" fill="#000000" font-size="5px" font-weight="bold" font-family="'Helvetica Neue', Helvetica, Arial-Unicode, Arial, Sans-serif">Created by Carlos Salgado</text><text x="0" y="120" fill="#000000" font-size="5px" font-weight="bold" font-family="'Helvetica Neue', Helvetica, Arial-Unicode, Arial, Sans-serif">from the Noun Project</text></svg>