<?xml version="1.0" encoding="UTF-8" standalone="no"?>
<svg
   xmlns:dc="http://purl.org/dc/elements/1.1/"
   xmlns:cc="http://creativecommons.org/ns#"
   xmlns:rdf="http://www.w3.org/1999/02/22-rdf-syntax-ns#"
   xmlns:svg="http://www.w3.org/2000/svg"
   xmlns="http://www.w3.org/2000/svg"
   xmlns:sodipodi="http://sodipodi.sourceforge.net/DTD/sodipodi-0.dtd"
   xmlns:inkscape="http://www.inkscape.org/namespaces/inkscape"
   version="1.1"
   x="0px"
   y="0px"
   viewBox="0 0 100 125"
   enable-background="new 0 0 100 100"
   xml:space="preserve"
   id="svg2"
   inkscape:version="0.48.4 r9939"
   width="100%"
   height="100%"
   sodipodi:docname="noun_76027_cc.svg"><metadata
     id="metadata34"><rdf:RDF><cc:Work
         rdf:about=""><dc:format>image/svg+xml</dc:format><dc:type
           rdf:resource="http://purl.org/dc/dcmitype/StillImage" /><dc:title></dc:title></cc:Work></rdf:RDF></metadata><defs
     id="defs32" /><sodipodi:namedview
     pagecolor="#ffffff"
     bordercolor="#666666"
     borderopacity="1"
     objecttolerance="10"
     gridtolerance="10"
     guidetolerance="10"
     inkscape:pageopacity="0"
     inkscape:pageshadow="2"
     inkscape:window-width="640"
     inkscape:window-height="480"
     id="namedview30"
     showgrid="false"
     inkscape:zoom="1.888"
     inkscape:cx="50"
     inkscape:cy="62.5"
     inkscape:window-x="55"
     inkscape:window-y="24"
     inkscape:window-maximized="0"
     inkscape:current-layer="svg2" /><g
     id="g4"><g
       id="g6"><path
         d="M67.252,79.345c-1.121,0-2.324-0.201-3.59-0.601c-1.865-0.59-40.144-14.467-45.227-16.948    c-4.6-2.247-5.771-9.065-5.991-10.731l-0.869-0.324l-2.408-9.541c-0.078-0.306,0.108-0.617,0.415-0.694    c0.306-0.077,0.617,0.108,0.693,0.415l2.262,8.959l0.968,0.364l0.034,0.354c0.008,0.079,0.83,7.941,5.397,10.172    c5.058,2.47,43.21,16.298,45.069,16.885c1.564,0.494,3.004,0.655,4.278,0.479c1.92-0.264,3.45-1.305,4.55-3.09    c1.519-2.469,4.671-7.335,7.204-11.244c2.044-3.155,3.81-5.881,4.056-6.323c0.235-0.486,1.072-4.882,1.696-9.717    c0.041-0.312,0.327-0.533,0.64-0.492c0.312,0.039,0.534,0.326,0.493,0.639c-0.541,4.199-1.438,9.421-1.83,10.125    c-0.265,0.478-1.955,3.087-4.096,6.39c-2.529,3.905-5.679,8.764-7.189,11.221c-1.287,2.091-3.092,3.311-5.366,3.625    C68.056,79.317,67.659,79.345,67.252,79.345z"
         id="path8" /></g><g
       id="g10"><path
         d="M70.088,57.514c-2.522,0-5.546-0.417-9.241-1.275C51.24,54.006,20.976,44.911,8.41,41.104    c-0.347-0.104-0.563-0.17-0.632-0.19c-1.537-0.461-1.896-1.647-2.11-2.722c-0.04-0.196-0.117-0.446-0.199-0.712    c-0.354-1.146-0.947-3.064,0.784-4.22c1.685-1.122,5.97-3.564,8.211-4.508c0.148-0.062,0.353-0.149,0.607-0.257    c10.796-4.572,17.371-7.038,19.542-7.327c2.625-0.35,4.71-0.513,6.561-0.513c1.063,0,2.058,0.057,2.958,0.17    c0.79,0.098,3.591,0.388,7.138,0.755c8.683,0.898,23.215,2.4,27.855,3.134c2.73,0.431,6.203,1.028,8.85,1.832    c2.878,0.873,4.422,1.864,4.859,3.115c0.521,1.488-0.065,3.281-0.495,4.591c-0.116,0.357-0.268,0.818-0.315,1.081    c0.921,0.361,2.451,1.346,2.64,1.467c0.173,0.112,0.271,0.308,0.26,0.514l-0.114,1.942c-0.005,0.079-0.026,0.157-0.062,0.228    l-4.686,9.144c-0.111,0.217-0.347,0.339-0.588,0.306l-3.802-0.528c-1.14,1.354-5.771,6.714-8.176,7.479    c-0.339,0.108-0.688,0.248-1.06,0.394C75.04,56.827,73.306,57.513,70.088,57.514z M41.173,21.799c-1.799,0-3.836,0.159-6.41,0.502    c-1.423,0.189-5.917,1.602-19.247,7.247c-0.255,0.107-0.461,0.194-0.609,0.257c-2.184,0.92-6.371,3.307-8.02,4.407    c-0.949,0.632-0.733,1.612-0.327,2.931c0.091,0.293,0.177,0.57,0.228,0.824c0.235,1.172,0.555,1.622,1.318,1.851    c0.07,0.021,0.287,0.087,0.635,0.192C21.296,43.813,51.532,52.9,61.105,55.125c3.609,0.838,6.548,1.246,8.982,1.246    c3,0,4.622-0.643,5.926-1.158c0.39-0.154,0.758-0.299,1.134-0.419c1.932-0.614,6.321-5.523,7.85-7.364    c0.125-0.152,0.321-0.229,0.518-0.201l3.712,0.516l4.446-8.675l0.088-1.488c-0.75-0.47-1.849-1.106-2.31-1.237    c-0.209-0.061-0.378-0.198-0.48-0.388c-0.243-0.459-0.045-1.061,0.281-2.06c0.377-1.154,0.896-2.736,0.502-3.858    c-0.805-2.301-9.216-3.629-12.809-4.195c-4.61-0.729-19.123-2.229-27.794-3.126c-3.693-0.383-6.361-0.657-7.163-0.758    C43.136,21.852,42.188,21.799,41.173,21.799z"
         id="path12" /></g><g
       id="g14"><path
         d="M70.262,51.932c-0.144,0-0.287-0.001-0.433-0.003c-3.265-0.05-6.971-0.635-12.013-1.896    c-7.442-1.86-47.045-11.87-49.513-12.693c-1.612-0.537-2.431-0.904-2.72-1.54c-0.175-0.385-0.138-0.83,0.118-1.445    c0.065-0.156,0.244-0.229,0.399-0.164s0.229,0.243,0.164,0.398c-0.186,0.445-0.225,0.741-0.126,0.958    c0.192,0.423,1.009,0.766,2.357,1.214c2.307,0.77,40.322,10.396,49.468,12.682c4.996,1.248,8.658,1.827,11.875,1.877    c4.053,0.062,7.229-0.762,9.706-2.517c3.536-2.504,7.943-10.297,10.311-14.483c0.505-0.894,0.94-1.663,1.258-2.188    c0.435-0.719,0.64-1.03,0.954-0.911c0.295,0.112,0.219,0.468,0.182,0.638c-0.213,0.98-0.464,1.709-0.647,2.241    c-0.351,1.022-0.358,1.163-0.068,1.369c0.137,0.099,0.169,0.289,0.07,0.425c-0.099,0.138-0.288,0.169-0.426,0.071    c-0.69-0.494-0.478-1.119-0.152-2.063c0.095-0.276,0.201-0.585,0.311-0.946c-0.281,0.483-0.611,1.067-0.949,1.665    c-2.392,4.229-6.843,12.099-10.489,14.682C77.4,51.07,74.244,51.932,70.262,51.932z"
         id="path16" /></g><g
       id="g18"><path
         d="M38.678,24.709v-2.185c0,0,16.189,1.14,22.704,2.168c6.516,1.028,25.883,3.557,27.255,4.586    c1.371,1.028-0.393,3.605-1.193,4.863c-0.8,1.258-10.923,14.225-12.638,14.566c7.658-8.687,13.03-15.315,12.002-16.802    c-1.028-1.485-26.86-4.914-30.976-5.371C51.718,26.078,38.678,24.709,38.678,24.709z"
         id="path20" /></g><g
       id="g22"><path
         d="M74.006,66.884c0,0,0.229,3.314-9.601,1.257c-9.83-2.058-46.863-14.973-47.206-15.545    c3.658,2.972,47.983,17.904,53.022,17.425C71.822,69.868,73.804,69.191,74.006,66.884z"
         id="path24" /></g></g><text
     x="0"
     y="115"
     fill="#000000"
     font-size="5px"
     font-weight="bold"
     font-family="'Helvetica Neue', Helvetica, Arial-Unicode, Arial, Sans-serif"
     id="text26">Created by Blaise Sewell</text>
<text
     x="0"
     y="120"
     fill="#000000"
     font-size="5px"
     font-weight="bold"
     font-family="'Helvetica Neue', Helvetica, Arial-Unicode, Arial, Sans-serif"
     id="text28">from the Noun Project</text>
</svg>