<svg xmlns="http://www.w3.org/2000/svg" xmlns:xlink="http://www.w3.org/1999/xlink" version="1.1" x="0px" y="0px" viewBox="0 0 100 125" enable-background="new 0 0 100 100" xml:space="preserve"><path d="M80.088,46.727c0.486-0.349-0.498-2.313-1.44-1.896c-3.702,1.647-3.21,12.1,1.813,16.88  c4.435,4.224,9.351,7.67,11.255,10.77c2.952,4.805-8.399,5.266-10.695,5.444c-5.341,0.415-12.991,0.39-17.898-2.929l2.347-1.589  l0.648-0.434L55.055,56.623c0.069-0.03,0.149-0.048,0.217-0.09c0.456-0.308,0.572-0.936,0.265-1.392l-1.035-1.53  c-0.309-0.463-0.938-0.579-1.396-0.267c-0.348,0.235-0.497,0.651-0.418,1.043l-0.062,0.04L26.616,15.985l0.645-0.433  c-1.888-2.789-3.324-6.075-7.317-5.541c-3.092,0.4-5.859,2.076-6.968,2.822l-0.365-0.539l-2.298,1.374l0.733,1.18  c-1.445,1.042-5.279,4.295-6.125,5.791c0.163,0.229,0.328,0.459,0.48,0.676c1.609-0.407,5.7-3.174,7.124-4.119l0.749,1.207  l1.518-1.024l0.039,0.075c1.767,0.216,2.651,2.239,3.8,3.934l0.816-0.551l26.011,38.444l-0.043,0.03  c-0.33-0.229-0.775-0.239-1.121,0c-0.461,0.303-0.581,0.93-0.27,1.392l1.035,1.524c0.306,0.46,0.938,0.582,1.392,0.271  l11.039,16.314l0.815-0.554l1.875-1.272c4.516,3.722,11.63,4.209,17.133,4.08c5.407-0.127,12.635-0.218,16.271-4.872  c4.026-5.172-1.827-7.836-7.141-11.858C72.92,54.091,79.599,47.08,80.088,46.727z M48.249,57.392L22.23,18.951l1.599-1.076  l26.01,38.438L48.249,57.392z"/><text x="0" y="115" fill="#000000" font-size="5px" font-weight="bold" font-family="'Helvetica Neue', Helvetica, Arial-Unicode, Arial, Sans-serif">Created by Norbert de Graaff</text><text x="0" y="120" fill="#000000" font-size="5px" font-weight="bold" font-family="'Helvetica Neue', Helvetica, Arial-Unicode, Arial, Sans-serif">from the Noun Project</text></svg>