<svg xmlns="http://www.w3.org/2000/svg" xmlns:xlink="http://www.w3.org/1999/xlink" version="1.1" x="0px" y="0px" viewBox="0 0 100 125" enable-background="new 0 0 100 100" xml:space="preserve"><path d="M98.863,2.993c-0.563,4.111-0.867,8.277-1.747,12.315c-1.735,7.969-4.688,15.498-9.331,22.246  c-3.213,4.672-7.294,8.582-11.509,12.335c-3.185,2.837-6.407,5.634-9.653,8.401c-3.878,3.308-7.782,6.588-11.717,9.829  c-0.946,0.784-1.409,1.623-1.365,2.886c0.173,4.67,0.237,9.348,0.408,14.021c0.037,1.095-0.353,1.804-1.19,2.452  c-3.399,2.627-6.765,5.305-10.146,7.959c-1.246,0.98-1.434,0.872-1.758-0.668c-0.871-4.137-1.794-8.26-2.709-12.387  c-0.172-0.779-1.766-1.321-2.642-0.915c-1.387,0.642-2.817,1.2-4.134,1.961c-1.24,0.716-2.356,0.476-3.389-0.201  c-4.359-2.849-7.932-6.501-10.864-10.822c-1.269-1.87-0.242-3.405,0.443-5.022c0.384-0.91,0.834-1.79,1.238-2.691  c0.49-1.091-0.251-2.436-1.406-2.692c-3.053-0.677-6.096-1.396-9.143-2.089c-0.927-0.211-1.86-0.382-2.789-0.585  c-1.193-0.26-1.289-0.514-0.502-1.549c1.63-2.14,3.288-4.257,4.931-6.386c0.938-1.214,1.903-2.409,2.803-3.652  c0.843-1.165,1.884-1.418,3.306-1.34c3.43,0.186,6.896-0.12,10.297,0.244c3.357,0.359,5.498-0.832,7.539-3.456  c4.308-5.537,8.871-10.881,13.477-16.172c4.593-5.274,9.134-10.625,14.937-14.666c4.255-2.96,8.737-5.464,13.693-7.038  c2.768-0.878,5.489-2.017,8.324-2.546c4.169-0.779,8.414-1.168,12.639-1.622C98.647,0.955,98.778,1.197,98.863,2.993 M76.897,30.903  c0.032-4.145-3.563-7.81-7.684-7.834c-4.228-0.025-7.889,3.551-7.825,7.734c0.072,4.715,3.55,7.797,7.572,7.828  C73.729,38.667,76.657,35.156,76.897,30.903"/><path d="M1.489,94.608c0.372-6.044,1.562-12.272,5.445-17.641c1.051-1.452,2.395-2.7,3.688-3.957c0.308-0.3,0.951-0.248,1.439-0.358  c0.108,0.62,0.485,1.356,0.276,1.84c-0.843,1.974-2.047,3.801-2.78,5.809c-1.319,3.618-1.629,7.427-1.484,11.262  c0.013,0.272,0.551,0.749,0.85,0.752c3.753,0.058,7.504-0.1,11.036-1.551c1.976-0.812,3.837-1.914,5.813-2.724  c0.514-0.208,1.273,0.193,1.919,0.317c-0.136,0.459-0.149,1.022-0.43,1.363c-2.78,3.382-6.31,5.634-10.434,7.057  c-4.547,1.571-9.2,2.217-13.988,2.158c-1.038-0.014-1.444-0.334-1.363-1.38C1.542,96.718,1.489,95.87,1.489,94.608"/><text x="0" y="115" fill="#000000" font-size="5px" font-weight="bold" font-family="'Helvetica Neue', Helvetica, Arial-Unicode, Arial, Sans-serif">Created by Gem.icons</text><text x="0" y="120" fill="#000000" font-size="5px" font-weight="bold" font-family="'Helvetica Neue', Helvetica, Arial-Unicode, Arial, Sans-serif">from the Noun Project</text></svg>