<svg xmlns="http://www.w3.org/2000/svg" xmlns:xlink="http://www.w3.org/1999/xlink" version="1.1" x="0px" y="0px" viewBox="0 0 100 125" enable-background="new 0 0 100 100" xml:space="preserve"><path fill="#000000" d="M83.5,35.5L86,33c0.3-0.3,0.5-0.7,0.5-1.1c0-0.4-0.2-0.8-0.5-1.1L84.2,29l4.8-4.8c0.6-0.6,0.6-1.6,0-2.2  l-11-11c-0.6-0.6-1.6-0.6-2.2,0L71,15.8L69.2,14c-0.6-0.6-1.6-0.6-2.2,0l-2.5,2.5C52.8,7.5,40.5,2.2,30.2,2c-0.6,0-1.2,0.4-1.5,0.9  c-0.2,0.6-0.1,1.3,0.3,1.7l23.6,23.6l-3.3,3.3c-0.6,0.6-0.6,1.6,0,2.2l1.8,1.8L2.5,84.3c-0.6,0.6-0.6,1.6,0,2.2l11,11  c0.3,0.3,0.7,0.5,1.1,0.5s0.8-0.2,1.1-0.5l48.7-48.7l1.8,1.8c0.3,0.3,0.7,0.5,1.1,0.5c0.4,0,0.8-0.2,1.1-0.5l3.3-3.3L95.3,71  c0.3,0.3,0.7,0.5,1.1,0.5c0.2,0,0.4,0,0.6-0.1c0.6-0.2,1-0.8,0.9-1.5C97.8,59.5,92.5,47.2,83.5,35.5z M76.9,14.4l8.8,8.8L82,26.8  L73.2,18L76.9,14.4z M14.6,94.2l-8.8-8.8l47.6-47.6l8.8,8.8L14.6,94.2z"/><text x="0" y="115" fill="#000000" font-size="5px" font-weight="bold" font-family="'Helvetica Neue', Helvetica, Arial-Unicode, Arial, Sans-serif">Created by Gem.icons</text><text x="0" y="120" fill="#000000" font-size="5px" font-weight="bold" font-family="'Helvetica Neue', Helvetica, Arial-Unicode, Arial, Sans-serif">from the Noun Project</text></svg>