<svg xmlns="http://www.w3.org/2000/svg" xmlns:xlink="http://www.w3.org/1999/xlink" version="1.1" x="0px" y="0px" viewBox="0 0 100 125" enable-background="new 0 0 100 100" xml:space="preserve"><g><path d="M34.141,73.958l-0.345-6.106c-0.441-7.826-1.319-16.478-2.052-17.837c-1.051-0.12-5.609,1.547-9.368,3.216l-2.072,0.92   l1.022-2.023c1.896-3.753,3.834-8.326,3.748-9.354c-0.857-0.854-7.157-2.798-12.631-4.142l-7.186-1.765l7.398,0.172   c6.449,0.146,13.846-0.352,14.57-1.338c0.201-1.043-3.892-6.252-8.957-11.333l-4.167-4.18l5.137,2.906   c2.8,1.583,7.35,3.604,8.704,3.138c0.758-0.672,0.181-6.867-1.272-13.239l-1.186-5.2l2.673,4.616   c3.079,5.316,6.69,11.094,7.837,12.296c0.44-0.667,1.057-2.763,1.411-4.866l1.14-6.79l0.463,6.87   c0.402,5.957,1.431,11.448,2.248,11.991c-0.036-0.024,0.319,1.512,0.319,1.512c-0.409,0.141-0.839,0.082-1.212-0.165   c-1.317-0.873-2.1-5.067-2.536-8.644c-0.341,0.811-0.75,1.451-1.232,1.7c-0.364,0.188-0.765,0.194-1.128,0.017   c-0.997-0.485-3.901-5.048-6.267-8.976c0.811,4.71,1.187,9.744-0.729,10.407c-1.334,0.462-3.719-0.283-5.85-1.188   c3.436,3.744,6.889,8.127,6.051,9.851c-0.309,0.637-1.931,1.946-9.918,2.218c4.037,1.185,7.475,2.487,7.846,3.561   c0.456,1.319-1.407,5.644-2.859,8.681c3.341-1.395,7.55-2.913,8.8-2.306c0.404,0.196,1.539,0.748,2.51,13.648   c1.31-5.25,3.206-11.388,5.032-12.019c1.741-0.601,4.477,1.041,6.475,2.532c-0.795-2.334-1.528-5.077-1.037-6.15   c0.189-0.414,0.491-0.592,0.712-0.668c0,0,0.744,1.379,0.76,1.336c-0.284,0.735,0.866,4.582,2.118,7.713l1.307,3.268l-2.602-2.37   c-2.125-1.937-5.882-4.588-7.204-4.133c-0.963,0.449-3.236,6.787-5.215,16.239L34.141,73.958z"/><path d="M86.268,77.107c-5.032-2.607-7.913-9.957-9.041-13.474l1.673-0.686c0.514-0.211,0.76-0.798,0.549-1.313l-11.706-28.55   l-2.996-7.306c-0.211-0.514-0.798-0.76-1.313-0.549l-5.919,2.427l-5.659,2.32c-0.514,0.211-0.76,0.798-0.549,1.313l1.037,2.53   l-19.098,7.831c-0.364,0.149-0.537,0.565-0.388,0.928c0.093,0.226,0.289,0.379,0.511,0.426c0.135,0.029,0.279,0.018,0.417-0.038   l19.098-7.831l1.037,2.53c0.211,0.514,0.798,0.76,1.313,0.549l4.728-1.939c0.514-0.211,1.102,0.035,1.313,0.549l11.325,27.619   c0.211,0.514,0.799,0.76,1.313,0.549l1.327-0.544c1.244,3.863,4.359,11.606,10.047,14.554c6.573,3.406,7.32,13.109,7.327,13.206   l2.129-0.145C94.712,91.616,93.915,81.07,86.268,77.107z"/></g><text x="0" y="115" fill="#000000" font-size="5px" font-weight="bold" font-family="'Helvetica Neue', Helvetica, Arial-Unicode, Arial, Sans-serif">Created by Mac Cormier</text><text x="0" y="120" fill="#000000" font-size="5px" font-weight="bold" font-family="'Helvetica Neue', Helvetica, Arial-Unicode, Arial, Sans-serif">from the Noun Project</text></svg>