<svg xmlns="http://www.w3.org/2000/svg" xmlns:xlink="http://www.w3.org/1999/xlink" version="1.1" x="0px" y="0px" viewBox="0 0 100 125" enable-background="new 0 0 100 100" xml:space="preserve"><path d="M91.435,48.637c0,6.076-0.006,12.154,0.014,18.232c0.002,0.437,0.059,0.952,0.291,1.299  c2.086,3.101,2.933,6.592,3.262,10.238c0.139,1.555,0.139,3.123,0.228,4.685c0.169,2.981-1.104,5.293-3.335,7.142  c-3.017,2.505-6.6,3.867-10.3,4.93c-6.924,1.988-14.029,2.946-21.196,3.451c-7.239,0.506-14.497,0.625-21.727-0.029  c-8.281-0.745-16.548-1.749-24.337-4.896c-2.147-0.867-4.194-2.099-6.078-3.455c-2.378-1.711-3.528-4.163-3.42-7.189  c0.152-4.238,0.332-8.455,2.138-12.402c0.161-0.353,0.282-0.75,0.525-1.041c1.135-1.352,1.168-2.925,1.163-4.591  C8.621,53.743,8.626,42.479,8.649,31.212c0.011-6.185,4.011-11.253,10.03-12.845c0.394-0.105,0.9-0.366,1.059-0.695  c4.327-8.894,11.577-13.91,21.113-15.735c8.016-1.538,15.988-1.295,23.746,1.487c7.043,2.529,12.242,7.19,15.531,13.928  c0.295,0.601,0.664,0.896,1.307,1.059c5.949,1.508,9.965,6.618,9.992,12.739C91.455,36.98,91.435,42.808,91.435,48.637   M49.642,72.594c3.591,0,7.179-0.023,10.771,0.018c0.718,0.009,1.072-0.222,1.361-0.862c1.035-2.297,2.081-4.589,3.206-6.842  c0.913-1.827,2.067-3.545,3.842-4.62c4.144-2.516,6.74-6.243,8.498-10.619c3.115-7.744,3.657-15.749,1.873-23.851  c-2.112-9.589-7.722-16.274-17.214-19.254c-7.784-2.443-15.695-2.451-23.517-0.111C29.731,9.066,24,14.854,21.482,23.601  c-2.59,9.001-2.072,17.916,1.497,26.599c1.439,3.5,3.451,6.667,6.573,8.885c2.235,1.587,3.745,3.641,4.9,6.043  c1.059,2.207,2.127,4.409,3.144,6.636c0.296,0.648,0.681,0.854,1.385,0.847C42.534,72.574,46.089,72.594,49.642,72.594   M65.354,72.965c2.635,1.337,3.579,3.448,3.518,6.247c-0.1,4.512-0.027,9.026-0.027,13.539v1.21  c6.294-0.961,12.375-2.012,17.971-4.825c1.158-0.584,2.216-1.412,3.21-2.255c1.016-0.864,1.493-2.038,1.413-3.418  c-0.104-1.81-0.111-3.622-0.264-5.427c-0.514-6.044-3.412-10.482-9.095-12.81c-2.346-0.96-4.85-1.544-7.294-2.264  c-2.578-0.764-4.416,0.284-5.74,2.465c-0.441,0.726-0.895,1.456-1.26,2.222C66.96,69.377,66.188,71.13,65.354,72.965 M31.232,94.077  c0-0.616,0-1,0-1.386c0.002-4.795,0.014-9.592,0.002-14.391c-0.003-1.878,0.763-3.356,2.186-4.535  c0.211-0.174,0.427-0.342,0.662-0.531c-1.182-2.521-2.303-5.007-3.515-7.451c-0.404-0.816-1.024-1.527-1.579-2.264  c-0.458-0.608-1.057-0.802-1.854-0.744c-3.974,0.28-7.649,1.498-11.094,3.438c-3.422,1.925-5.781,4.762-6.516,8.649  c-0.504,2.67-0.596,5.418-0.887,8.132c-0.211,1.973,0.651,3.454,2.16,4.586c0.846,0.637,1.735,1.29,2.709,1.669  c2.671,1.04,5.354,2.107,8.116,2.846C24.727,92.929,27.923,93.411,31.232,94.077 M65.113,94.28v-0.976  c0-4.793,0.004-9.592-0.002-14.387c-0.001-1.973-0.576-2.551-2.536-2.551c-8.351-0.004-16.701-0.004-25.05,0  c-1.969,0-2.559,0.578-2.561,2.526c-0.003,4.796-0.001,9.593,0,14.39c0.002,0.343,0.034,0.686,0.05,1.001  C39.581,95.46,60.145,95.467,65.113,94.28 M17.736,22.667c-3.514,1.945-5.331,4.799-5.342,8.69  c-0.03,10.545-0.012,21.089-0.009,31.634c0,0.291,0.052,0.581,0.09,1.015c3.649-2.462,7.568-3.811,11.629-4.731  C15.746,48.168,14.675,35.86,17.736,22.667 M87.629,64.02c0.028-0.547,0.063-0.891,0.063-1.234  c0.006-7.454,0.02-14.909,0.006-22.364c-0.008-3.514,0.104-7.04-0.169-10.534c-0.259-3.288-2.207-5.617-5.177-7.185  c3.047,13.181,1.983,25.522-6.388,36.578C80.063,60.193,83.95,61.556,87.629,64.02"/><path d="M50.059,16.089c4.882,0.075,9.805,0.248,14.639,1.444c7.595,1.877,12.005,6.603,13.117,14.383  c0.797,5.568,0.716,11.068-1.423,16.354c-3.873,9.576-11.114,14.921-21.225,16.413c-6.072,0.894-12.075,0.445-17.75-2.076  c-8.88-3.941-13.794-10.953-15.311-20.43c-0.595-3.711-0.36-7.443,0.292-11.135c1.284-7.252,5.645-11.625,12.698-13.446  C39.991,16.333,44.989,16.156,50.059,16.089 M49.859,61.306c3.892-0.026,7.551-0.512,10.988-2.001  c8.183-3.55,12.435-9.966,13.553-18.689c0.245-1.926,0.009-3.449-1.706-4.62c-1.67-1.135-2.841-1.166-4.411,0.14  c-1.396,1.164-2.503,1.233-3.902,0.04c-1.364-1.162-2.743-1.301-4.327-0.536c-1.02,0.492-2.07,1.12-3.153,1.229  c-1.754,0.176-3.281,0.837-4.835,1.53c-1.137,0.507-2.437,0.889-3.5,0.274c-1.371-0.791-2.799-1.543-4.077-2.456  c-1.298-0.927-2.39-1.412-3.887-0.803c-0.688,0.28-1.337,0.656-2.013,0.972c-1.716,0.801-3.408,0.868-5.095-0.118  c-0.547-0.32-1.141-0.576-1.738-0.793c-1.611-0.591-3.096-0.438-4.515,0.643c-1.385,1.055-2.026,2.311-1.574,4.042  c0.053,0.203,0.03,0.425,0.055,0.638c0.882,7.301,4.185,13.122,10.538,17.019C40.471,60.401,45.154,61.253,49.859,61.306   M57.538,25.5c-0.012-1.051-0.867-1.881-1.906-1.848c-1.002,0.03-1.788,0.841-1.801,1.852c-0.011,1.065,0.804,1.896,1.857,1.896  C56.74,27.396,57.553,26.565,57.538,25.5"/><text x="0" y="115" fill="#000000" font-size="5px" font-weight="bold" font-family="'Helvetica Neue', Helvetica, Arial-Unicode, Arial, Sans-serif">Created by Gem.icons</text><text x="0" y="120" fill="#000000" font-size="5px" font-weight="bold" font-family="'Helvetica Neue', Helvetica, Arial-Unicode, Arial, Sans-serif">from the Noun Project</text></svg>